<?xml version="1.0" encoding="utf-8"?>
<!-- Generator: Adobe Illustrator 23.0.1, SVG Export Plug-In . SVG Version: 6.00 Build 0)  -->
<svg version="1.1" id="Layer_1" xmlns="http://www.w3.org/2000/svg" xmlns:xlink="http://www.w3.org/1999/xlink" x="0px" y="0px"
	 viewBox="0 0 960 566" style="enable-background:new 0 0 960 566;" xml:space="preserve">
<style type="text/css">
	.st0{fill:none;stroke:#DAA520;stroke-width:6;stroke-miterlimit:10;}
	.st1{fill:#DAA520;}
	.st2{fill:#DAA520;stroke:#DAA520;stroke-miterlimit:10;}
	.st3{fill:#DAA520;stroke:#DAA520;stroke-width:2;stroke-miterlimit:10;}
	.st4{fill:none;stroke:#000000;stroke-width:4;stroke-linecap:round;stroke-miterlimit:10;}
	.st5{fill:none;stroke:#000000;stroke-width:3;stroke-miterlimit:10;}
</style>
<title>Arastar</title>
<rect x="221.3" y="1.1" width="560" height="560"/>
<polygon class="st0" points="503.4,514.9 751.6,85 255.2,85 "/>
<path class="st1" d="M537.5,344.5c-0.3,12,20.2,40.1,16,83c-4,41-44.7,84-39,105l-0.8-1.3c-13.7-37.6-11.7-66.6,4.8-103.7
	c7.4-16.6,17.6-35.5,18.3-83H537.5z"/>
<path class="st2" d="M480.6,275.8c-7.1-6.3-11.4-16.3-13.2-25.9c-2.5-13.3-1.9-27.1-6.4-39.9c-3.1-9-8.6-16.9-14.1-24.6
	c-4.6-6.6-9.4-13.3-16-18.1s-5.4-3.8-14.4-8.8c4.5-9.4,8.5-8.9,18.5-5.9c9.3,2.5,18,6.9,25.6,12.9c9,7,14.6,18,21,20
	c7.7,2.4,7.8-9.4,11-17s1.5-9.9,1.3-18.1c0-1.6-0.1-3.3-0.1-4.9c0-5,0.1-10,0.5-14.9c7.1-0.1,16.7,0.8,31.7,3.6l2.7,0.5
	c4.2,0.8,8.5,2.3,11.3,5.4c0.3,0.4,0.6,0.7,0.9,1.1c2.1,3,2.7,6.8,2.8,10.4c1.8,37.4,13.9,46-1.1,91c-18.5,57-49.7,83.3-69.7,108.3
	l-0.3-0.3C481.2,335.3,483.3,289.1,480.6,275.8z"/>
<path class="st1" d="M534.5,293.6c1.7,16.9,2.4,33.9,2.3,50.9c-0.7,47.5-10.9,66.4-18.3,83c-16.6,37-18.5,66.1-4.8,103.7
	c-14.9-23.4-37.5-65.8-35.1-92.7c3-33.8,12.4-41.7,29.7-70.9C521.7,344.8,529.3,319.6,534.5,293.6z"/>
<path class="st3" d="M524.6,111.9c6.6,7.7,11.1,19,15.3,28.1c-2.8-3.1-7.1-4.6-11.3-5.4l-2.7-0.5c-2.4-4.7-7.4-7.4-12.2-9.8
	c-6-3.1-12.1-6.1-17.9-9.5c1-7.1,2.3-14.2,3.9-21.3l10.9,7.2c4,2.5,7.7,5.3,11.3,8.3C522.8,109.9,523.7,110.9,524.6,111.9z"/>
<path class="st1" d="M534.5,293.6c-5.2,26-12.8,51.3-26.3,74c-17.3,29.2-26.7,37.1-29.7,70.9c-2.4,26.9,20.3,69.3,35.2,92.7
	c0.3,0.8,0.6,1.5,0.8,2.3c-22.4-13.2-91-89-54-164c3.4-6.7,7.6-12.9,12.3-18.7c20-25,51.2-51.3,69.7-108.3
	C540.2,259.5,537.9,276.7,534.5,293.6z"/>
<path class="st1" d="M509.4,62.1c3.7-9.4,10-19.7,20.1-19.6c-5,16.6-8.3,33.7-10,51h-0.1c-0.5-1.1-1-2-1.5-2.9
	c-3.9-6.9-7.7-13.8-11.3-20.8C507.5,67.2,508.4,64.6,509.4,62.1z"/>
<path class="st3" d="M519.4,93.5c2.7,5.5,5.5,13,5.1,18.4c-0.9-1-1.8-1.9-2.7-2.8c-3.5-3.1-7.3-5.9-11.3-8.3l-10.9-7.2
	c1.9-8.1,4.2-16,6.9-23.8c3.6,7,7.4,14,11.3,20.9C518.4,91.5,518.9,92.5,519.4,93.5z"/>
<path class="st1" d="M513.7,124.3c4.7,2.4,9.7,5.1,12.2,9.8c-14.9-2.7-24.5-3.6-31.6-3.6c0.3-5.3,0.9-10.5,1.6-15.8
	C501.6,118.2,507.7,121.2,513.7,124.3z"/>
<path class="st1" d="M500.8,58.4c1.9,3.8,3.8,7.6,5.7,11.4c-2.7,7.8-5,15.7-6.9,23.8l-4.5-3c-7.2-15.5-14.5-32.3-11.2-49
	c0.5-2.6,1.4-5.4,3.6-7s5.9-1.3,6.9,1.2c0.3,1,0.5,2.1,0.4,3.2C494.8,45.7,497.8,52.2,500.8,58.4z"/>
<path class="st1" d="M495.2,90.6l4.5,3c-1.6,7-2.9,14.1-3.9,21.3c-3.7-2.1-7.3-4.5-10.7-7c-8.9-6.6-16.7-15-20.8-25.2
	c-2.2-5.4-3.3-11.5-1-16.9c7.2,5.8,13.6,12.7,21.4,17.8L495.2,90.6z"/>
<path class="st1" d="M494.3,130.6c-0.3,5-0.5,10-0.5,14.9l-1.4-0.7c-9.4,4.6-22.1,0.5-26.9-8.8C477.2,133.8,482.1,130.7,494.3,130.6
	z"/>
<path class="st4" d="M489.9,281.1c-3.4-1.1-6.6-2.9-9.3-5.3c-7.1-6.3-11.4-16.3-13.2-25.9c-2.5-13.3-1.9-27.1-6.4-39.9
	c-3.1-9-8.6-16.9-14.1-24.6c-4.6-6.6-9.4-13.3-16-18.1s-5.4-3.8-14.4-8.8"/>
<path class="st5" d="M480.5,275.5l0.1,0.3c2.7,13.3,0.6,59.5-8.1,74.7"/>
<path class="st5" d="M542.5,242.5c-18.5,57-49.7,83.3-69.7,108.3c-4.8,5.8-8.9,12.1-12.3,18.7c-37,75,31.6,150.8,54,164"/>
<path class="st5" d="M514.5,532.5l-0.8-1.3c-14.9-23.4-37.5-65.8-35.1-92.7c3-33.8,12.4-41.7,29.7-70.9c13.5-22.8,21.1-48,26.3-74
	c3.4-16.9,5.7-34,8-51.1"/>
<path class="st5" d="M534.5,293.5C534.5,293.5,534.5,293.6,534.5,293.5c1.7,17,2.4,34,2.3,51c-0.7,47.5-10.9,66.4-18.3,83
	c-16.6,37-18.5,66.1-4.8,103.7c0.3,0.8,0.6,1.5,0.8,2.3"/>
<path class="st5" d="M514.5,532.5c-5.7-21,35-64,39-105c4.2-42.9-16.3-71-16-83"/>
<path class="st5" d="M501.5,244.5c0.3-27.5,4.8-40.9,23.3-61.3c-2.9-10.4-2-21.5,2.3-31.4c-6.3,0.1-12.3-2.1-17.2-6.1
	c-7,2.6-10.1,2.8-16.2-0.2l-1.4-0.7c-9.4,4.6-22.1,0.5-26.9-8.8c11.7-2.2,16.6-5.3,28.8-5.4c7.1-0.1,16.7,0.8,31.6,3.6l2.7,0.5
	c4.2,0.8,8.5,2.3,11.3,5.4c0.3,0.4,0.6,0.7,0.9,1.1c2.1,3,2.7,6.8,2.8,10.4c1.8,37.4,13.9,46-1.1,91"/>
<path class="st5" d="M540.5,141.5c-0.2-0.5-0.5-1-0.7-1.5c-4.2-9.1-8.7-20.5-15.3-28.1c-0.9-1-1.8-1.9-2.7-2.8
	c-3.5-3.1-7.3-5.9-11.3-8.3l-10.9-7.2l-4.5-3l-10.5-7c-7.8-5.2-14.1-12.1-21.4-17.8c-2.2,5.3-1.1,11.5,1,16.9
	c4.1,10.2,11.9,18.6,20.8,25.2c3.4,2.5,7,4.9,10.7,7c5.8,3.4,11.9,6.4,17.9,9.5c4.7,2.4,9.7,5.1,12.2,9.8l0,0"/>
<path class="st5" d="M529.5,42.5c-5,16.6-8.3,33.7-10,51"/>
<g>
	<path class="st1" d="M663.9,373.4l-0.8,4.1c-0.7-0.7-1.5-1-2.3-1c-1.5,0-3.3,0.7-5.4,2.1c-1,0.7-1.8,1.4-2.3,2.2
		c-0.5,0.8-0.8,1.5-0.8,2.2c0,1.3,1.1,2.2,3.3,2.5l4.2,0.8c0.3,0.1,0.6,0.1,0.9,0.2s0.6,0.2,0.8,0.4c0.2,0.2,0.4,0.3,0.6,0.6
		c0.1,0.2,0.2,0.5,0.2,0.9c0,0.8-0.1,1.5-0.4,2.2c-0.3,0.7-0.7,1.4-1.1,2c-0.5,0.6-1,1.2-1.6,1.7c-0.6,0.5-1.2,1-1.8,1.3
		c-0.9,0.6-2.1,1.2-3.4,1.7c-1.3,0.5-2.8,1.1-4.4,1.5c-1.6,0.5-3.3,0.9-5.1,1.3c-1.8,0.4-3.6,0.7-5.5,1s-3.7,0.5-5.6,0.7
		s-3.7,0.2-5.4,0.2c-5.1,0-9.6-0.4-13.7-1.2c-4.1-0.8-7.7-1.9-10.9-3.2c-0.9-0.6-1.8-1.2-2.6-1.8s-1.7-1.2-2.6-1.9
		c-0.9-0.7-1.7-1.3-2.7-2.1c-0.9-0.7-1.9-1.5-2.9-2.4l0.3-0.5c2.8,1.5,5.6,2.9,8.4,4c2.8,1.1,5.6,2.1,8.5,2.8
		c2.9,0.8,5.8,1.3,8.8,1.7s6.1,0.6,9.3,0.6c2.3,0,4.7-0.1,7.2-0.3s5-0.5,7.4-0.9c2.4-0.4,4.8-0.9,7-1.4c2.2-0.6,4.2-1.2,5.9-1.9
		c0.7-0.3,1.3-0.6,1.9-0.9c0.6-0.3,1.1-0.6,1.6-0.9c0.4-0.3,0.8-0.6,1.1-0.9c0.3-0.3,0.4-0.6,0.5-0.9c0-0.2-0.1-0.4-0.3-0.6
		s-0.6-0.3-1.1-0.4l-4-0.5c-3.2-0.4-4.9-1.7-4.9-3.8c0-1.8,1.5-4.3,4.4-7.4c2.6-2.7,5.1-4.1,7.5-4.1
		C662.5,373,663.2,373.2,663.9,373.4z"/>
	<path class="st1" d="M669.4,384.3c0,1.7-0.5,4.1-1.5,7.1l-0.6-0.2c0.2-1.5,0.3-2.5,0.3-3.1c0-1.4-0.1-3-0.3-4.7l-1.4-11
		c-0.2-1.3-0.3-2.2-0.3-2.9c0-1.5,0.6-3.5,1.9-6c0,3.1,0.2,5.5,0.4,7.2l1.2,9.3C669.3,381.9,669.4,383.3,669.4,384.3z"/>
	<path class="st1" d="M681.9,390c0,0.2-0.1,0.5-0.3,0.6c-0.2,0.2-0.4,0.3-0.7,0.4c-0.3,0.1-0.6,0.2-1,0.3s-0.7,0.1-1.1,0.1h-0.9
		c-0.5,3.9-1.6,7-3.4,9.3c-1.8,2.3-3.9,3.5-6.5,3.5c-1.2,0-3.2-0.5-6.1-1.4l0.5-0.5c0.7,0.1,1.3,0.2,1.7,0.2c2.6,0,5.1-1,7.5-2.9
		c2.3-1.9,4-4.3,4.8-7.2l-2.2-3.5l1.5-3c1.2,1.3,2.2,2,2.9,2h1.2c0.5,0,0.9,0.1,1.4,0.3c0.4,0.2,0.6,0.5,0.6,0.9V390z"/>
	<path class="st1" d="M704.3,382.9c0,2-0.4,3.5-1.1,4.8c-0.8,1.2-1.7,1.8-2.9,1.8c-1.2,0-2.5-0.8-3.9-2.3h-0.1
		c-1.5,2.8-3.6,4.2-6.3,4.2c-0.5,0-1-0.1-1.4-0.2s-0.8-0.4-1.1-0.6c-0.2-0.2-0.4-0.5-0.7-0.8s-0.5-0.9-0.7-1.5H686
		c-0.5,0.6-1,1.2-1.5,1.6c-0.5,0.4-1.1,0.7-1.6,1c-0.6,0.2-1.2,0.4-1.9,0.5c-0.7,0.1-1.4,0.1-2.2,0.1l1.1-3.4c0.7,0,1.4-0.1,2-0.2
		s1.2-0.4,1.8-0.7c0.6-0.3,1.1-0.7,1.7-1.2c0.5-0.5,1.1-1.1,1.7-1.9l0.3,0.1c0.1,0.7,0.2,1.3,0.3,1.8c0.1,0.5,0.3,0.9,0.4,1.1
		c0.4,0.6,1,0.9,1.8,0.9c3.8,0,6.2-2,7.3-6h0.4c0.3,2.4,1.8,3.5,4.5,3.5c0.7,0,1-0.2,1-0.6c0-0.2-0.5-0.7-1.4-1.5l1-3.5
		C703.8,380.5,704.3,381.5,704.3,382.9z"/>
	<path class="st1" d="M720.1,389.9c0,0.2-0.1,0.4-0.4,0.6s-0.5,0.4-0.9,0.5c-0.3,0.1-0.7,0.3-1,0.3c-0.3,0.1-0.6,0.1-0.8,0.1
		c-1,0-1.9-0.1-2.6-0.2s-1.4-0.4-1.9-0.8c-0.5-0.4-0.9-0.9-1.3-1.6c-0.3-0.7-0.5-1.6-0.6-2.8c-0.1-1-0.2-2.3-0.4-4.1
		c-0.2-1.8-0.5-4.1-0.8-6.8c-0.6-4.7-0.8-7.3-0.8-7.8c0-0.8,0.7-2,2-3.6l1.8,20.5c0.1,0.8,0.3,1.5,0.5,2c0.3,0.5,0.7,0.9,1.1,1.2
		c0.5,0.3,1.1,0.4,1.7,0.5s1.5,0.1,2.3,0.1c0.2,0,0.4,0,0.6,0.1c0.2,0.1,0.5,0.1,0.7,0.2c0.2,0.1,0.4,0.2,0.5,0.4s0.2,0.3,0.2,0.5
		V389.9z"/>
	<path class="st1" d="M730.8,390c0,0.3-0.1,0.5-0.3,0.7c-0.2,0.2-0.5,0.3-0.8,0.4c-0.3,0.1-0.7,0.2-1,0.2c-0.4,0-0.7,0.1-1,0.1
		c-1,0-1.9-0.3-2.6-1s-1.2-1.5-1.5-2.5h-0.1c-0.8,1.3-1.8,2.2-2.8,2.7c-1.1,0.5-2.3,0.8-3.7,0.8l1.1-3.4c0.6,0,1.2-0.1,1.7-0.2
		c0.5-0.1,1.1-0.3,1.6-0.7c0.5-0.3,1.1-0.8,1.6-1.3s1.1-1.3,1.6-2.2l0.3,0.1c0.1,0.6,0.3,1.2,0.4,1.7c0.2,0.5,0.4,1,0.7,1.4
		c0.3,0.4,0.7,0.7,1.1,0.9c0.4,0.2,1,0.3,1.6,0.3c0.2,0,0.4,0,0.6,0.1s0.4,0.1,0.7,0.3s0.4,0.2,0.5,0.4c0.1,0.2,0.2,0.3,0.2,0.5V390
		z M726.6,397.5l-2,3.1l-2.9-2.1l1.9-3L726.6,397.5z"/>
	<path class="st1" d="M736,383.8c0,1.6-0.2,2.9-0.6,3.9c-0.4,1-1,1.8-1.7,2.3c-0.7,0.5-1.6,0.9-2.6,1.1c-1,0.2-2.1,0.3-3.3,0.3
		l1.1-3.4c0.8,0,1.6,0,2.4-0.1c0.8-0.1,1.5-0.2,2-0.5c1-0.5,1.4-1,1.4-1.6c0-0.3-0.1-0.6-0.3-0.9l-1.2-2c-0.3-0.4-0.4-0.8-0.4-1.2
		c0-0.4,0.1-0.8,0.3-1.1l1.5-2.3h0.1C735.6,380.2,736,382,736,383.8z M737.7,395.7l-1.9,3l-3-1.9l-1.7,2.6l-2.9-1.8l1.7-3.1l3.1,1.9
		l1.6-2.6L737.7,395.7z"/>
	<path class="st1" d="M746.4,389.3c0,3.6-1.1,6.9-3.2,9.7c-2.2,2.8-4.6,4.2-7.4,4.2c-1.6,0-3.7-0.6-6.3-1.8l0.5-0.5
		c1.2,0.3,2.2,0.5,3,0.5c1.7,0,3.2-0.5,4.7-1.4c2.1-1.3,3.8-2.8,5.2-4.4c1.4-1.6,2.1-3,2.1-4.2c0-0.8-0.4-1.9-1.2-3.5
		s-1.2-2.6-1.2-3.1c0-0.4,0.2-0.8,0.5-1.4l1.1-2.1C745.7,383.5,746.4,386.2,746.4,389.3z M744.7,373l-2.2,2.8l-2.6-2.4l2.1-2.7
		L744.7,373z"/>
	<path class="st1" d="M576.1,494.9c0,8.9-2.7,16.9-8,23.9s-11.4,10.5-18.2,10.5c-3.9,0-9-1.4-15.4-4.3l1.2-1.3
		c3,0.7,5.5,1.1,7.4,1.1c4.1,0,8-1.1,11.6-3.4c5.1-3.3,9.3-6.9,12.7-11c3.4-4,5.1-7.5,5.1-10.3c0-1.9-1-4.8-2.9-8.6
		c-2-3.8-2.9-6.3-2.9-7.5c0-0.9,0.4-2,1.1-3.5l2.7-5.2C574.2,480.5,576.1,487.1,576.1,494.9z"/>
	<path class="st1" d="M604.4,496.2c0,0.6-0.3,1.1-0.9,1.5c-0.6,0.5-1.3,0.9-2.2,1.2c-0.8,0.3-1.7,0.6-2.5,0.8
		c-0.9,0.2-1.5,0.3-2.1,0.3c-2.4,0-4.6-0.2-6.4-0.5c-1.9-0.3-3.4-1-4.7-1.9c-1.3-1-2.3-2.3-3.1-4c-0.8-1.7-1.3-4-1.5-6.8
		c-0.2-2.4-0.6-5.8-1.1-10.2c-0.5-4.4-1.1-10.1-1.9-16.9c-1.4-11.6-2.1-18.1-2.1-19.3c0-1.9,1.7-4.8,5-8.9l4.5,50.6
		c0.2,2.1,0.6,3.8,1.3,5s1.6,2.2,2.8,2.9c1.2,0.7,2.6,1.1,4.3,1.3c1.7,0.2,3.6,0.3,5.7,0.3c0.5,0,1,0.1,1.6,0.2
		c0.6,0.1,1.1,0.3,1.6,0.6c0.5,0.2,0.9,0.5,1.2,0.9c0.3,0.4,0.5,0.8,0.5,1.3V496.2z"/>
	<path class="st1" d="M630.9,496.6c0,0.7-0.3,1.2-0.8,1.6c-0.5,0.4-1.2,0.8-1.9,1.1c-0.8,0.3-1.6,0.5-2.5,0.6
		c-0.9,0.1-1.7,0.2-2.5,0.2c-2.5,0-4.6-0.8-6.4-2.4c-1.8-1.6-3-3.7-3.7-6.2h-0.2c-2,3.2-4.3,5.5-7,6.7c-2.7,1.3-5.7,1.9-9.2,1.9
		l2.8-8.4c1.5,0,3-0.2,4.3-0.5c1.3-0.3,2.6-0.9,3.9-1.7c1.3-0.8,2.6-1.9,3.9-3.3c1.3-1.4,2.7-3.2,4-5.4l0.8,0.3
		c0.3,1.5,0.6,2.9,1,4.2c0.4,1.3,1,2.4,1.7,3.4c0.7,1,1.6,1.7,2.7,2.3c1.1,0.6,2.4,0.8,3.9,0.8c0.4,0,0.9,0.1,1.5,0.2
		c0.6,0.1,1.1,0.3,1.6,0.6c0.5,0.3,0.9,0.6,1.3,1c0.3,0.4,0.5,0.8,0.5,1.3V496.6z M625.7,461.1l-4.6,7.3l-7.3-5l-4.4,6.4l-6.8-4.8
		l4.3-7.6l7.5,5.2l3.9-6.6L625.7,461.1z"/>
	<path class="st1" d="M686.1,479.1c0,4.8-0.9,8.8-2.8,11.7c-1.9,3-4.3,4.5-7.1,4.5c-2.9,0-6.2-1.9-9.7-5.7h-0.2
		c-3.7,7-8.9,10.5-15.4,10.5c-1.4,0-2.5-0.2-3.6-0.6c-1-0.4-1.9-0.9-2.7-1.5c-0.5-0.5-1.1-1.2-1.7-2.1c-0.6-0.9-1.2-2.1-1.8-3.6
		h-0.2c-1.2,1.6-2.4,2.9-3.6,3.9c-1.3,1-2.6,1.8-4,2.4s-3,1-4.6,1.2c-1.7,0.2-3.5,0.3-5.4,0.3l2.8-8.4c1.8,0,3.5-0.2,5-0.5
		c1.5-0.3,3-0.9,4.4-1.6c1.4-0.8,2.8-1.8,4.1-3c1.3-1.3,2.7-2.8,4.1-4.7l0.8,0.3c0.2,1.8,0.5,3.3,0.8,4.5c0.3,1.2,0.6,2.1,0.9,2.7
		c0.9,1.5,2.4,2.3,4.5,2.3c9.4,0,15.3-4.9,17.9-14.7h1c0.8,5.8,4.5,8.7,11,8.7c1.7,0,2.6-0.5,2.6-1.4c0-0.6-1.2-1.8-3.5-3.8l2.6-8.7
		C684.8,473.2,686.1,475.7,686.1,479.1z"/>
	<path class="st1" d="M698,482.6c0,4.2-1.2,10.1-3.7,17.5l-1.4-0.4c0.6-3.7,0.8-6.3,0.8-7.6c0-3.5-0.3-7.4-0.8-11.6l-3.6-27.1
		c-0.4-3.2-0.6-5.5-0.6-7.1c0-3.7,1.5-8.6,4.6-14.7c0.1,7.5,0.4,13.5,1,17.7l2.9,22.9C697.7,476.7,698,480.1,698,482.6z"/>
	<path class="st1" d="M717,494.9c0,8.9-2.7,16.9-8,23.9s-11.4,10.5-18.2,10.5c-3.9,0-9-1.4-15.4-4.3l1.2-1.3c3,0.7,5.5,1.1,7.4,1.1
		c4.1,0,8-1.1,11.6-3.4c5.1-3.3,9.3-6.9,12.7-11c3.4-4,5.1-7.5,5.1-10.3c0-1.9-1-4.8-2.9-8.6c-2-3.8-2.9-6.3-2.9-7.5
		c0-0.9,0.4-2,1.1-3.5l2.7-5.2C715.1,480.5,717,487.1,717,494.9z"/>
	<path class="st1" d="M744.7,422.1c-4,4.3-8.9,6.5-14.7,6.5c-1.5,0-3.8-0.4-6.8-1.3c-3-0.8-5.3-1.3-6.9-1.3c-1.4,0-3,0.5-4.9,1.5
		l-1-0.8c2.5-4.3,5-6.4,7.5-6.4c2,0,4.8,0.5,8.7,1.5c3.8,1,6.7,1.5,8.7,1.5c2,0,4.9-0.7,8.7-2.2L744.7,422.1z M734.2,482.6
		c0,4.2-1.2,10.1-3.7,17.5l-1.4-0.4c0.6-3.7,0.8-6.3,0.8-7.6c0-3.5-0.3-7.4-0.8-11.6l-3.6-27.1c-0.4-3.2-0.6-5.5-0.6-7.1
		c0-3.7,1.5-8.6,4.6-14.7c0.1,7.5,0.4,13.5,1,17.7l2.9,22.9C733.9,476.7,734.2,480.1,734.2,482.6z"/>
</g>
<path class="st5" d="M524.5,112.5c0-0.2,0.1-0.4,0.1-0.6c0.4-5.4-2.4-12.9-5.1-18.4c-0.5-1.1-1-2-1.5-2.9
	c-3.9-6.9-7.7-13.8-11.3-20.9c-2-3.8-3.9-7.6-5.7-11.4c-3-6.2-6-12.6-6-19.5c0.1-1.1,0-2.1-0.4-3.2c-1-2.5-4.8-2.8-6.9-1.2
	s-3,4.4-3.6,7c-3.3,16.8,4.1,33.5,11.2,49l0.1,0.1"/>
</svg>
