<?xml version="1.0" encoding="utf-8"?>
<!-- Generator: Adobe Illustrator 23.0.3, SVG Export Plug-In . SVG Version: 6.00 Build 0)  -->
<svg version="1.1" id="Layer_1" xmlns="http://www.w3.org/2000/svg" xmlns:xlink="http://www.w3.org/1999/xlink" x="0px" y="0px"
	 viewBox="0 0 666 685" style="enable-background:new 0 0 666 685;" xml:space="preserve">
<style type="text/css">
	.st0{display:none;fill:#04050A;}
	.st1{fill:none;stroke:#BE8F57;stroke-width:6;stroke-miterlimit:10;}
	.st2{fill:url(#SVGID_1_);}
	.st3{fill:url(#SVGID_2_);}
	.st4{fill:url(#SVGID_3_);}
	.st5{fill:url(#SVGID_4_);}
	.st6{fill:url(#SVGID_5_);}
	.st7{fill:url(#SVGID_6_);}
	.st8{fill:url(#SVGID_7_);}
	.st9{fill:url(#SVGID_8_);}
	.st10{fill:#F4C35C;}
	.st11{fill:none;stroke:#F4C35C;stroke-miterlimit:10;}
	.st12{fill:none;stroke:#000000;stroke-miterlimit:10;}
	.st13{fill:#D4A440;}
</style>
<title>ArastarGold</title>
<g>
	<rect class="st0" width="666" height="666"/>
	<polygon class="st1" points="333,508.9 581.2,79 84.8,79 	"/>
	
		<radialGradient id="SVGID_1_" cx="363.3342" cy="253.5" r="68.73" gradientTransform="matrix(1 0 0 -1 0.17 686)" gradientUnits="userSpaceOnUse">
		<stop  offset="0" style="stop-color:#F4C35C"/>
		<stop  offset="0.24" style="stop-color:#D4A544"/>
		<stop  offset="0.76" style="stop-color:#936713"/>
		<stop  offset="1" style="stop-color:#7A4F00"/>
	</radialGradient>
	<path class="st2" d="M371.7,338.5c-0.3,12,20.2,40.1,16,83c-4,41-44.7,84-39,105l-0.9-1.3c-13.6-37.6-11.7-66.6,4.9-103.7
		c7.4-16.6,17.6-35.5,18.3-83H371.7z"/>
	
		<linearGradient id="SVGID_2_" gradientUnits="userSpaceOnUse" x1="301.3321" y1="469.4563" x2="416.8721" y2="402.7463" gradientTransform="matrix(1 0 0 -1 0.17 686)">
		<stop  offset="0" style="stop-color:#F4C35C"/>
		<stop  offset="0.11" style="stop-color:#D9A947"/>
		<stop  offset="0.28" style="stop-color:#B7892E"/>
		<stop  offset="0.45" style="stop-color:#9C6F1A"/>
		<stop  offset="0.63" style="stop-color:#895D0B"/>
		<stop  offset="0.81" style="stop-color:#7E5303"/>
		<stop  offset="1" style="stop-color:#7A4F00"/>
	</linearGradient>
	<path class="st3" d="M314.7,269.8c-7.1-6.3-11.4-16.3-13.2-25.9c-2.5-13.3-1.9-27.1-6.4-39.9c-3.1-9-8.6-16.9-14.1-24.6
		c-4.6-6.6-9.4-13.3-16-18.1s-5.4-3.8-14.4-8.8c4.5-9.4,8.5-8.9,18.5-5.9c9.3,2.5,18,6.9,25.6,12.9c9,7,14.6,18,21,20
		c7.7,2.4,7.8-9.4,11-17s1.5-9.9,1.3-18.1c0-1.6-0.1-3.3-0.1-4.9c0-5,0.1-10,0.5-14.9c7.1-0.1,16.7,0.8,31.6,3.5l2.7,0.5
		c4.2,0.8,8.5,2.3,11.3,5.4c0.3,0.4,0.6,0.7,0.9,1.1c2.1,3,2.7,6.8,2.9,10.4c1.8,37.3,13.9,46-1.1,91c-18.5,57-49.7,83.3-69.7,108.3
		l-0.3-0.3C315.4,329.3,317.4,283.1,314.7,269.8z"/>
	
		<radialGradient id="SVGID_3_" cx="341.5714" cy="279.625" r="86.5082" gradientTransform="matrix(1 0 0 -1 0.17 686)" gradientUnits="userSpaceOnUse">
		<stop  offset="0" style="stop-color:#F4C35C"/>
		<stop  offset="0.24" style="stop-color:#D4A544"/>
		<stop  offset="0.76" style="stop-color:#936713"/>
		<stop  offset="1" style="stop-color:#7A4F00"/>
	</radialGradient>
	<path class="st4" d="M368.7,287.6c1.7,16.9,2.4,33.9,2.3,50.9c-0.7,47.5-10.9,66.4-18.3,83c-16.6,37-18.5,66.1-4.9,103.7
		c-14.9-23.4-37.5-65.8-35.1-92.7c3-33.8,12.4-41.7,29.7-70.9C355.8,338.8,363.5,313.6,368.7,287.6z"/>
	
		<linearGradient id="SVGID_4_" gradientUnits="userSpaceOnUse" x1="349.8474" y1="576.4154" x2="387.9474" y2="554.4154" gradientTransform="matrix(1 0 0 -1 0.17 686)">
		<stop  offset="0" style="stop-color:#F4C35C"/>
		<stop  offset="0.11" style="stop-color:#D9A947"/>
		<stop  offset="0.28" style="stop-color:#B7892E"/>
		<stop  offset="0.45" style="stop-color:#9C6F1A"/>
		<stop  offset="0.63" style="stop-color:#895D0B"/>
		<stop  offset="0.81" style="stop-color:#7E5303"/>
		<stop  offset="1" style="stop-color:#7A4F00"/>
	</linearGradient>
	<path class="st5" d="M358.7,105.9c6.6,7.7,11.1,19,15.3,28.1c-2.8-3.1-7.1-4.6-11.3-5.4l-2.7-0.5c-2.4-4.7-7.4-7.4-12.2-9.8
		c-6-3.1-12.1-6.1-17.9-9.5c1-7.1,2.3-14.2,3.9-21.3l10.9,7.2c4,2.5,7.7,5.3,11.3,8.3C357,103.9,357.9,104.9,358.7,105.9z"/>
	
		<radialGradient id="SVGID_5_" cx="330.1248" cy="304.03" r="107.9836" gradientTransform="matrix(1 0 0 -1 0.17 686)" gradientUnits="userSpaceOnUse">
		<stop  offset="0" style="stop-color:#F4C35C"/>
		<stop  offset="0.24" style="stop-color:#D4A544"/>
		<stop  offset="0.76" style="stop-color:#936713"/>
		<stop  offset="1" style="stop-color:#7A4F00"/>
	</radialGradient>
	<path class="st6" d="M368.7,287.6c-5.2,26-12.8,51.3-26.3,74c-17.3,29.2-26.7,37.1-29.7,70.9c-2.4,26.9,20.3,69.3,35.1,92.7
		c0.3,0.8,0.6,1.5,0.9,2.3c-22.4-13.2-91-89-54-164c3.4-6.7,7.6-12.9,12.3-18.7c20-25,51.2-51.3,69.7-108.3
		C374.4,253.5,372.1,270.7,368.7,287.6z"/>
	
		<linearGradient id="SVGID_6_" gradientUnits="userSpaceOnUse" x1="354.3155" y1="626.3994" x2="374.1754" y2="614.9294" gradientTransform="matrix(1 0 0 -1 0.17 686)">
		<stop  offset="0" style="stop-color:#F4C35C"/>
		<stop  offset="0.11" style="stop-color:#D9A947"/>
		<stop  offset="0.28" style="stop-color:#B7892E"/>
		<stop  offset="0.45" style="stop-color:#9C6F1A"/>
		<stop  offset="0.63" style="stop-color:#895D0B"/>
		<stop  offset="0.81" style="stop-color:#7E5303"/>
		<stop  offset="1" style="stop-color:#7A4F00"/>
	</linearGradient>
	<path class="st7" d="M343.6,56.1c3.7-9.4,10-19.7,20.1-19.6c-5,16.6-8.3,33.7-10,51h-0.1c-0.5-1.1-1-2-1.5-2.9
		c-3.9-6.9-7.7-13.8-11.3-20.8C341.6,61.2,342.6,58.6,343.6,56.1z"/>
	
		<linearGradient id="SVGID_7_" gradientUnits="userSpaceOnUse" x1="347.33" y1="602.48" x2="368.9" y2="590.03" gradientTransform="matrix(1 0 0 -1 0.17 686)">
		<stop  offset="0" style="stop-color:#F4C35C"/>
		<stop  offset="0.11" style="stop-color:#D9A947"/>
		<stop  offset="0.28" style="stop-color:#B7892E"/>
		<stop  offset="0.45" style="stop-color:#9C6F1A"/>
		<stop  offset="0.63" style="stop-color:#895D0B"/>
		<stop  offset="0.81" style="stop-color:#7E5303"/>
		<stop  offset="1" style="stop-color:#7A4F00"/>
	</linearGradient>
	<path class="st8" d="M353.6,87.5c2.7,5.5,5.5,13,5.1,18.4c-0.9-1-1.8-1.9-2.7-2.8c-3.5-3.1-7.3-5.9-11.3-8.3l-10.9-7.2
		c1.9-8.1,4.2-16,6.9-23.8c3.6,7,7.4,14,11.3,20.9C352.6,85.5,353.1,86.5,353.6,87.5z"/>
	
		<linearGradient id="SVGID_8_" gradientUnits="userSpaceOnUse" x1="339.0009" y1="564.0717" x2="366.4109" y2="548.2516" gradientTransform="matrix(1 0 0 -1 0.17 686)">
		<stop  offset="0" style="stop-color:#F4C35C"/>
		<stop  offset="0.11" style="stop-color:#D9A947"/>
		<stop  offset="0.28" style="stop-color:#B7892E"/>
		<stop  offset="0.45" style="stop-color:#9C6F1A"/>
		<stop  offset="0.63" style="stop-color:#895D0B"/>
		<stop  offset="0.81" style="stop-color:#7E5303"/>
		<stop  offset="1" style="stop-color:#7A4F00"/>
	</linearGradient>
	<path class="st9" d="M347.9,118.3c4.7,2.4,9.7,5.1,12.2,9.8c-14.9-2.7-24.5-3.6-31.6-3.6c0.3-5.3,0.9-10.5,1.6-15.8
		C335.8,112.2,341.9,115.2,347.9,118.3z"/>
	<path class="st10" d="M335,52.4c1.9,3.8,3.8,7.6,5.7,11.4c-2.7,7.8-5,15.7-6.9,23.8l-4.5-3c-7.2-15.5-14.5-32.3-11.2-49
		c0.5-2.6,1.4-5.4,3.6-7s5.9-1.3,6.9,1.2c0.3,1,0.5,2.1,0.4,3.2C329,39.7,332,46.2,335,52.4z"/>
	<path class="st10" d="M329.4,84.6l4.5,3c-1.6,7-2.9,14.1-3.9,21.3c-3.7-2.1-7.3-4.5-10.7-7c-8.9-6.6-16.7-15-20.8-25.2
		c-2.2-5.4-3.3-11.5-1-16.9c7.2,5.8,13.6,12.7,21.4,17.8L329.4,84.6z"/>
	<path class="st10" d="M328.4,124.6c-0.3,5-0.5,10-0.5,14.9l-1.4-0.7c-9.4,4.6-22.1,0.5-26.9-8.8
		C311.4,127.8,316.3,124.7,328.4,124.6z"/>
	<path class="st11" d="M250.7,152.5c4.5-9.4,8.5-8.9,18.5-5.9c9.3,2.5,18,6.9,25.5,12.9c9,7,14.6,18,21,20c7.7,2.4,7.8-9.4,11-17
		s1.5-9.9,1.3-18.1c0-1.6-0.1-3.3-0.1-4.9c0-5,0.1-10,0.5-14.9c0.3-5.3,0.9-10.5,1.6-15.8c1-7.1,2.3-14.2,3.9-21.3
		c1.9-8.1,4.2-16,6.9-23.8c0.9-2.6,1.8-5.1,2.8-7.7c3.7-9.4,10-19.7,20.1-19.6"/>
	<path class="st12" d="M324,275.1c-3.4-1.1-6.6-2.9-9.3-5.3c-7.1-6.3-11.4-16.3-13.2-25.9c-2.5-13.3-1.9-27.1-6.4-39.9
		c-3.1-9-8.6-16.9-14.1-24.6c-4.6-6.6-9.4-13.3-16-18.1s-5.4-3.8-14.4-8.8"/>
	<path class="st12" d="M314.7,269.5l0.1,0.3c2.7,13.3,0.6,59.5-8.1,74.7"/>
	<path class="st12" d="M376.7,236.5c-18.5,57-49.7,83.3-69.7,108.3c-4.8,5.8-8.9,12.1-12.3,18.7c-37,75,31.6,150.8,54,164"/>
	<path class="st12" d="M348.7,526.5l-0.9-1.3c-14.9-23.4-37.5-65.8-35.1-92.7c3-33.8,12.4-41.7,29.7-70.9c13.5-22.8,21.1-48,26.3-74
		c3.4-16.9,5.7-34,8-51.1"/>
	<path class="st12" d="M368.7,287.5C368.7,287.5,368.7,287.6,368.7,287.5c1.7,17,2.4,34,2.3,51c-0.7,47.5-10.9,66.4-18.3,83
		c-16.6,37-18.5,66.1-4.9,103.7c0.3,0.8,0.6,1.5,0.9,2.3"/>
	<path class="st12" d="M348.7,526.5c-5.7-21,35-64,39-105c4.2-42.9-16.3-71-16-83"/>
	<path class="st12" d="M335.7,238.5c0.3-27.5,4.8-40.9,23.3-61.3c-2.9-10.4-2-21.5,2.3-31.4c-6.3,0.1-12.3-2.1-17.1-6.1
		c-7,2.6-10.1,2.8-16.2-0.2l-1.4-0.7c-9.4,4.6-22.1,0.5-26.9-8.8c11.7-2.2,16.6-5.3,28.8-5.4c7.1-0.1,16.7,0.8,31.6,3.5l2.7,0.5
		c4.2,0.8,8.5,2.3,11.3,5.4c0.3,0.4,0.6,0.7,0.9,1.1c2.1,3,2.7,6.8,2.9,10.4c1.8,37.3,13.9,46-1.1,91"/>
	<path class="st12" d="M374.7,135.5c-0.2-0.5-0.5-1-0.7-1.5c-4.2-9.1-8.7-20.5-15.3-28.1c-0.9-1-1.8-1.9-2.7-2.8
		c-3.5-3.1-7.3-5.9-11.3-8.3l-10.9-7.2l-4.5-3l-10.5-7c-7.8-5.2-14.1-12.1-21.4-17.8c-2.2,5.3-1.1,11.5,1,16.9
		c4.1,10.2,11.9,18.6,20.8,25.2c3.4,2.5,7,4.9,10.7,7c5.8,3.4,11.9,6.4,17.9,9.5c4.7,2.4,9.7,5.1,12.2,9.8l0,0"/>
	<path class="st12" d="M363.7,36.5c-5,16.6-8.3,33.7-10,51"/>
	<path class="st12" d="M358.7,106.5c0-0.2,0.1-0.4,0.1-0.6c0.4-5.4-2.4-12.9-5.1-18.4c-0.5-1.1-1-2-1.5-2.9
		c-3.9-6.9-7.7-13.8-11.3-20.9c-2-3.8-3.9-7.6-5.7-11.4c-3-6.2-6-12.7-6-19.5c0.1-1.1,0-2.1-0.4-3.2c-1-2.5-4.8-2.8-6.9-1.2
		s-3,4.4-3.6,7c-3.3,16.8,4.1,33.5,11.2,49l0.1,0.1"/>
	
		<image style="overflow:visible;opacity:0.69;enable-background:new    ;" width="162" height="166" xlink:href="3D166701.png"  transform="matrix(1 0 0 1 251.17 519)">
	</image>
	<path class="st13" d="M313.6,550.4l-0.5,2.4c-0.3-0.4-0.8-0.6-1.3-0.6c-1.2,0.1-2.2,0.5-3.2,1.2c-0.5,0.3-1,0.8-1.4,1.3
		c-0.3,0.4-0.4,0.8-0.5,1.3c0,0.8,0.6,1.3,1.9,1.5l2.5,0.5c0.2,0,0.4,0.1,0.5,0.1c0.2,0,0.3,0.1,0.5,0.2c0.1,0.1,0.2,0.2,0.3,0.3
		c0.1,0.2,0.1,0.3,0.1,0.5c0,0.4-0.1,0.9-0.3,1.3c-0.2,0.4-0.4,0.8-0.7,1.2c-0.3,0.4-0.6,0.7-0.9,1c-0.3,0.3-0.7,0.6-1.1,0.8
		c-0.6,0.4-1.3,0.7-2,1c-0.8,0.3-1.7,0.6-2.6,0.9c-0.9,0.3-1.9,0.5-3,0.8s-2.1,0.4-3.2,0.6s-2.2,0.3-3.3,0.4s-2.2,0.1-3.2,0.1
		c-2.7,0-5.4-0.2-8-0.7c-2.2-0.4-4.3-1-6.4-1.9l-1.5-1.1c-0.5-0.4-1-0.7-1.5-1.1s-1-0.8-1.6-1.2s-1.1-0.9-1.7-1.4l0.2-0.3
		c1.6,0.9,3.2,1.7,4.9,2.4c1.6,0.7,3.3,1.2,5,1.7c1.7,0.5,3.4,0.8,5.2,1c1.8,0.2,3.6,0.3,5.5,0.3c1.3,0,2.8-0.1,4.2-0.2
		s2.9-0.3,4.4-0.5s2.8-0.5,4.1-0.8c1.2-0.3,2.3-0.7,3.5-1.1c0.4-0.1,0.7-0.3,1.1-0.5c0.3-0.2,0.6-0.3,0.9-0.5
		c0.2-0.2,0.4-0.4,0.6-0.6c0.1-0.1,0.2-0.3,0.3-0.5c0-0.1-0.1-0.3-0.2-0.4c-0.2-0.1-0.4-0.2-0.6-0.3l-2.3-0.3
		c-1.9-0.2-2.9-1-2.9-2.2c0-1.1,0.9-2.5,2.6-4.3c1.5-1.6,3-2.4,4.4-2.4C312.9,550.2,313.3,550.3,313.6,550.4z"/>
	<path class="st13" d="M318.7,556.8c-0.1,1.4-0.4,2.8-0.9,4.2l-0.3-0.1c0.1-0.6,0.2-1.2,0.2-1.8c0-0.9-0.1-1.8-0.2-2.8l-0.9-6.4
		c-0.1-0.6-0.1-1.1-0.1-1.7c0.1-1.2,0.5-2.4,1.1-3.5c0,1.4,0.1,2.8,0.2,4.2l0.7,5.4C318.6,555.2,318.7,556,318.7,556.8z"/>
	<path class="st13" d="M327.9,560.2c0,0.1-0.1,0.3-0.2,0.4c-0.1,0.1-0.3,0.2-0.4,0.3c-0.2,0.1-0.4,0.1-0.6,0.1c-0.2,0-0.4,0.1-0.6,0
		h-0.5c-0.2,2-0.8,3.9-2,5.5c-0.9,1.2-2.3,2-3.8,2c-1.2-0.1-2.4-0.4-3.6-0.8l0.3-0.3c0.3,0.1,0.7,0.1,1,0.1c1.6,0,3.2-0.6,4.4-1.7
		c1.4-1.1,2.4-2.5,2.8-4.2l-1.3-2l0.9-1.8c0.7,0.8,1.3,1.2,1.7,1.2h0.7c0.3,0,0.5,0.1,0.8,0.2c0.2,0.1,0.4,0.3,0.4,0.5L327.9,560.2z
		"/>
	<path class="st13" d="M329.7,560.2c0,0.3-0.2,0.6-0.5,0.6c-0.4,0.1-0.9,0.2-1.3,0.2h-1.8l0.7-2h1.8c0.3,0,0.5,0.1,0.8,0.2
		c0.2,0.1,0.4,0.3,0.4,0.6L329.7,560.2z"/>
	<path class="st13" d="M331.5,560.2c0,0.3-0.2,0.6-0.5,0.6c-0.4,0.1-0.9,0.2-1.3,0.2h-1.8l0.7-2h1.8c0.3,0,0.6,0.1,0.8,0.2
		c0.2,0.1,0.4,0.3,0.4,0.6V560.2z"/>
	<path class="st13" d="M333.4,560.2c0,0.3-0.2,0.6-0.5,0.6c-0.4,0.1-0.9,0.2-1.3,0.2h-1.8l0.7-2h1.8c0.3,0,0.6,0.1,0.8,0.2
		c0.2,0.1,0.4,0.3,0.4,0.6L333.4,560.2z"/>
	<path class="st13" d="M346.5,556c0,1-0.2,1.9-0.7,2.8c-0.3,0.6-1,1-1.7,1.1c-0.9-0.1-1.8-0.6-2.3-1.4h0c-0.6,1.5-2.1,2.5-3.7,2.5
		c-0.3,0-0.6,0-0.9-0.1c-0.4-0.1-0.8-0.5-1-0.9c-0.2-0.3-0.3-0.6-0.4-0.9h0c-0.3,0.3-0.5,0.7-0.9,0.9c-0.3,0.2-0.6,0.4-1,0.6
		c-0.4,0.1-0.7,0.2-1.1,0.3c-0.4,0.1-0.9,0.1-1.3,0.1l0.7-2c0.4,0,0.8,0,1.2-0.1c0.3-0.1,0.7-0.2,1-0.4c0.4-0.2,0.7-0.4,1-0.7
		c0.4-0.3,0.7-0.7,1-1.1l0.2,0.1c0.1,0.4,0.1,0.8,0.2,1.1c0,0.2,0.1,0.4,0.2,0.7c0.2,0.4,0.6,0.6,1.1,0.5c2.2,0,3.6-1.2,4.3-3.5h0.2
		c0.2,1.4,1.1,2.1,2.6,2.1c0.4,0,0.6-0.1,0.6-0.3s-0.3-0.4-0.8-0.9l0.6-2.1C346.2,554.6,346.6,555.3,346.5,556z"/>
	<path class="st13" d="M364.9,560.1c0,0.1-0.1,0.3-0.2,0.4c-0.2,0.1-0.3,0.2-0.5,0.3c-0.2,0.1-0.4,0.1-0.6,0.2
		c-0.2,0-0.3,0.1-0.5,0.1c-0.5,0-1,0-1.5-0.1c-0.4-0.1-0.8-0.2-1.1-0.5c-0.3-0.3-0.6-0.6-0.7-1c-0.2-0.5-0.3-1.1-0.4-1.6
		c0-0.6-0.1-1.4-0.3-2.4s-0.3-2.4-0.5-4c-0.3-2.8-0.5-4.3-0.5-4.6c0.2-0.8,0.6-1.5,1.2-2.1l1.1,12c0,0.4,0.1,0.8,0.3,1.2
		c0.2,0.3,0.4,0.5,0.7,0.7c0.3,0.2,0.6,0.3,1,0.3c0.5,0,0.9,0.1,1.4,0.1c0.1,0,0.2,0,0.4,0c0.1,0,0.3,0.1,0.4,0.1
		c0.1,0,0.2,0.1,0.3,0.2c0.1,0.1,0.1,0.2,0.1,0.3L364.9,560.1z"/>
	<path class="st13" d="M371.2,560.2c0,0.2-0.1,0.3-0.2,0.4c-0.1,0.1-0.3,0.2-0.5,0.3c-0.2,0.1-0.4,0.1-0.6,0.1c-0.2,0-0.4,0-0.6,0
		c-0.6,0-1.1-0.2-1.5-0.6c-0.4-0.4-0.7-0.9-0.9-1.5h0c-0.4,0.7-1,1.2-1.7,1.6c-0.7,0.3-1.4,0.5-2.2,0.5l0.7-2c0.3,0,0.7,0,1-0.1
		c0.3-0.1,0.7-0.2,0.9-0.4c0.3-0.2,0.7-0.5,0.9-0.8c0.4-0.4,0.7-0.8,1-1.3l0.2,0.1c0.1,0.3,0.1,0.7,0.3,1c0.1,0.3,0.2,0.6,0.4,0.8
		c0.2,0.2,0.4,0.4,0.6,0.5c0.3,0.1,0.6,0.2,0.9,0.2c0.1,0,0.2,0,0.4,0c0.1,0,0.3,0.1,0.4,0.1c0.1,0.1,0.2,0.1,0.3,0.2
		c0.1,0.1,0.1,0.2,0.1,0.3L371.2,560.2z M368.7,564.6l-1.2,1.8l-1.7-1.2l1.1-1.8L368.7,564.6z"/>
	<path class="st13" d="M373,560.2c0,0.3-0.2,0.6-0.5,0.6c-0.4,0.2-0.9,0.2-1.4,0.2h-1.8l0.7-2h1.8c0.3,0,0.5,0.1,0.8,0.2
		c0.2,0.1,0.4,0.3,0.4,0.6L373,560.2z"/>
	<path class="st13" d="M374.9,560.2c0,0.3-0.2,0.6-0.5,0.6c-0.4,0.1-0.9,0.2-1.3,0.2h-1.9l0.7-2h1.8c0.3,0,0.6,0.1,0.8,0.2
		c0.2,0.1,0.4,0.3,0.4,0.6L374.9,560.2z"/>
	<path class="st13" d="M376.7,560.2c0,0.3-0.2,0.6-0.5,0.6c-0.4,0.1-0.9,0.2-1.3,0.2H373l0.7-2h1.8c0.3,0,0.6,0.1,0.8,0.2
		c0.2,0.1,0.4,0.3,0.4,0.6L376.7,560.2z"/>
	<path class="st13" d="M379.8,556.5c0,0.8-0.1,1.6-0.4,2.3c-0.2,0.5-0.6,1-1,1.4c-0.5,0.3-1,0.5-1.5,0.6c-0.6,0.1-1.3,0.2-1.9,0.2
		l0.7-2c0.5,0,1,0,1.4-0.1c0.4,0,0.8-0.1,1.2-0.3c0.6-0.3,0.9-0.6,0.9-0.9c0-0.2-0.1-0.4-0.2-0.5l-0.7-1.2c-0.1-0.2-0.2-0.5-0.2-0.7
		c0-0.2,0.1-0.5,0.2-0.7l0.9-1.3h0.1C379.5,554.3,379.8,555.4,379.8,556.5z M380.8,563.5l-1.1,1.8l-1.8-1.1l-1,1.5l-1.7-1.1l1-1.8
		l1.8,1.1l0.9-1.5L380.8,563.5z"/>
	<path class="st13" d="M387.7,559.8c0,2.1-0.6,4-1.9,5.7c-1,1.5-2.6,2.4-4.3,2.5c-1.3-0.1-2.5-0.4-3.7-1l0.3-0.3
		c0.6,0.2,1.2,0.2,1.8,0.3c1,0,1.9-0.3,2.8-0.8c1.1-0.7,2.1-1.6,3-2.6c0.7-0.7,1.1-1.5,1.2-2.5c-0.1-0.7-0.3-1.4-0.7-2
		c-0.3-0.5-0.6-1.2-0.7-1.8c0-0.3,0.1-0.6,0.3-0.8l0.6-1.3C387.2,556.5,387.7,558.1,387.7,559.8z M386.7,550.2l-1.3,1.6l-1.5-1.4
		l1.2-1.6L386.7,550.2z"/>
	<path class="st13" d="M293,617.5c0.1,5.2-1.6,10.3-4.8,14.5c-3.3,4.3-6.9,6.4-11.1,6.4c-2.3,0-5.5-0.9-9.4-2.6l0.7-0.8
		c1.5,0.4,3,0.6,4.5,0.7c2.5,0,4.9-0.7,7-2.1c2.9-1.8,5.5-4.1,7.8-6.7c2.1-2.5,3.1-4.6,3.1-6.3c-0.2-1.8-0.8-3.6-1.8-5.2
		c-1.2-2.3-1.8-3.8-1.8-4.6c0.1-0.7,0.3-1.5,0.7-2.1l1.6-3.2C291.9,609,293.1,613.2,293,617.5z"/>
	<path class="st13" d="M309.5,618.3c0,0.4-0.2,0.7-0.5,0.9c-0.4,0.3-0.8,0.6-1.3,0.8c-0.5,0.2-1,0.4-1.5,0.5
		c-0.4,0.1-0.8,0.2-1.3,0.2c-1.3,0-2.6-0.1-3.9-0.3c-1-0.2-2-0.6-2.9-1.2c-0.8-0.6-1.5-1.5-1.9-2.5c-0.5-1.3-0.8-2.7-0.9-4.1
		c-0.1-1.5-0.4-3.5-0.7-6.2s-0.7-6.1-1.2-10.3c-0.9-7.1-1.3-11-1.3-11.7c0-1.1,1-2.9,3-5.4l2.7,30.8c0.1,1,0.3,2.1,0.8,3
		c0.4,0.7,1,1.3,1.7,1.7c0.8,0.4,1.7,0.7,2.6,0.8c1.2,0.1,2.3,0.2,3.5,0.2c0.3,0,0.6,0,1,0.1c0.3,0.1,0.7,0.2,1,0.3
		c0.3,0.1,0.5,0.3,0.7,0.6c0.2,0.2,0.3,0.5,0.3,0.8L309.5,618.3z"/>
	<path class="st13" d="M325.6,618.5c0,0.4-0.2,0.8-0.5,1c-0.3,0.3-0.7,0.5-1.2,0.7c-0.5,0.2-1,0.3-1.5,0.4c-0.5,0.1-1,0.1-1.5,0.1
		c-1.4,0-2.8-0.5-3.9-1.5c-1.1-1-1.9-2.3-2.3-3.8h-0.1c-1,1.7-2.5,3.2-4.3,4.1c-1.8,0.8-3.7,1.2-5.6,1.2l1.7-5.1
		c0.9,0,1.8-0.1,2.6-0.3c0.9-0.2,1.7-0.5,2.4-1c0.9-0.6,1.7-1.2,2.4-2c0.9-1,1.7-2.1,2.5-3.3l0.5,0.2c0.2,0.9,0.4,1.7,0.6,2.5
		c0.2,0.7,0.6,1.4,1,2c0.4,0.6,1,1.1,1.7,1.4c0.7,0.4,1.6,0.5,2.4,0.5c0.3,0,0.6,0,0.9,0.1c0.3,0.1,0.7,0.2,1,0.4
		c0.3,0.2,0.6,0.4,0.8,0.6c0.2,0.2,0.3,0.5,0.3,0.8V618.5z M322.4,596.9l-2.8,4.5l-4.4-3.1l-2.7,3.9l-4.1-2.9l2.6-4.6l4.6,3.1l2.4-4
		L322.4,596.9z"/>
	<path class="st13" d="M359.2,607.9c0.1,2.5-0.5,5-1.7,7.1c-0.8,1.6-2.5,2.7-4.3,2.8c-1.8,0-3.8-1.2-5.9-3.5h-0.1
		c-2.3,4.3-5.4,6.4-9.4,6.4c-0.7,0-1.5-0.1-2.2-0.3c-0.6-0.2-1.2-0.5-1.6-0.9c-0.4-0.4-0.7-0.8-1-1.3c-0.4-0.7-0.8-1.4-1.1-2.2h-0.1
		c-0.6,0.9-1.4,1.7-2.2,2.4c-0.7,0.6-1.6,1.1-2.4,1.4c-0.9,0.4-1.8,0.6-2.8,0.7c-1.1,0.2-2.2,0.2-3.3,0.2l1.7-5.1c1,0,2-0.1,3-0.3
		c0.9-0.2,1.8-0.5,2.7-1c0.9-0.5,1.7-1.1,2.5-1.8c0.9-0.9,1.7-1.8,2.5-2.8l0.5,0.2c0.1,0.9,0.3,1.9,0.5,2.8c0.1,0.6,0.3,1.1,0.6,1.7
		c0.6,1,1.6,1.5,2.7,1.4c5.7,0,9.3-3,10.9-9h0.6c0.5,3.5,2.7,5.3,6.7,5.3c1,0,1.6-0.3,1.6-0.8c0-0.3-0.7-1.1-2.1-2.3l1.6-5.3
		C358.4,604.3,359.3,606,359.2,607.9z"/>
	<path class="st13" d="M365.6,610c0,2.6-0.7,6.1-2.3,10.6l-0.9-0.3c0.3-1.5,0.4-3.1,0.5-4.6c0-2.3-0.2-4.7-0.5-7l-2.2-16.5
		c-0.2-1.4-0.3-2.9-0.4-4.3c0-2.2,0.9-5.2,2.8-9c0,3.6,0.2,7.2,0.6,10.8l1.7,13.9C365.4,605.8,365.6,607.9,365.6,610z"/>
	<path class="st13" d="M376.4,617.5c0.1,5.2-1.7,10.3-4.9,14.5c-3.3,4.3-6.9,6.4-11.1,6.4c-2.3,0-5.5-0.9-9.4-2.6l0.7-0.8
		c1.5,0.4,3,0.6,4.5,0.7c2.5,0,5-0.7,7-2.1c2.9-1.8,5.5-4.1,7.8-6.7c2.1-2.5,3.1-4.6,3.1-6.3c-0.2-1.8-0.8-3.6-1.8-5.2
		c-1.2-2.3-1.8-3.8-1.8-4.6c0.1-0.7,0.3-1.5,0.7-2.1l1.6-3.2C375.3,609,376.5,613.2,376.4,617.5z"/>
	<path class="st13" d="M392.5,573.2c-2.3,2.6-5.6,4.1-9,4c-1.4-0.1-2.8-0.3-4.1-0.8c-1.4-0.4-2.8-0.7-4.2-0.8
		c-1.1,0.1-2.1,0.4-3,0.9l-0.6-0.5c1.5-2.6,3-3.9,4.5-3.9c1.8,0.1,3.5,0.4,5.3,0.9c1.7,0.5,3.5,0.8,5.3,0.9c1.8-0.1,3.6-0.6,5.3-1.3
		L392.5,573.2z M386.1,610c0,2.6-0.8,6.1-2.3,10.6l-0.9-0.3c0.3-1.5,0.4-3.1,0.5-4.6c0-2.3-0.2-4.7-0.5-7l-2.2-16.5
		c-0.2-1.4-0.3-2.9-0.4-4.3c0-2.2,0.9-5.2,2.8-9c0,3.6,0.2,7.2,0.6,10.8l1.7,13.9C385.8,605.8,386,607.9,386.1,610z"/>
</g>
</svg>
