<svg xmlns="http://www.w3.org/2000/svg" viewBox="0 0 498.14 500.93"><defs><style>.a{fill:none;stroke:#000;stroke-miterlimit:10;}</style></defs><title>ArastarOutline</title><polyline class="a" points="215.6 52 0.87 52 201.29 399.14"/><line class="a" x1="242.9" y1="52" x2="237.05" y2="52"/><polyline class="a" points="304.25 386.33 497.27 52 270.65 52"/><path class="a" d="M340.73,63.26c.85-2.41,1.73-4.81,2.66-7.19,3.67-9.43,10-19.66,20.11-19.57" transform="translate(-83.76 -27)"/><path class="a" d="M328.25,124.56c.34-5.27.86-10.54,1.57-15.78" transform="translate(-83.76 -27)"/><path class="a" d="M250.5,152.5c4.52-9.35,8.49-8.87,18.45-5.93A71.38,71.38,0,0,1,294.5,159.5c9,7,14.57,18,21,20,7.67,2.39,7.82-9.4,11-17s1.51-9.91,1.33-18.05q-.06-2.47-.06-4.95" transform="translate(-83.76 -27)"/><path class="a" d="M323.85,275.07a25.15,25.15,0,0,1-9.29-5.26c-7.13-6.27-11.38-16.29-13.2-25.92-2.51-13.25-1.93-27.14-6.4-39.86-3.15-9-8.65-16.87-14.12-24.63-4.65-6.6-9.44-13.3-15.95-18.07s-5.39-3.83-14.39-8.83" transform="translate(-83.76 -27)"/><path class="a" d="M314.5,269.5l.06.31c2.69,13.31.65,59.49-8.06,74.69" transform="translate(-83.76 -27)"/><path class="a" d="M376.5,236.5c-18.45,57-49.71,83.26-69.66,108.28A104.17,104.17,0,0,0,294.5,363.5c-37,75,31.59,150.85,54,164" transform="translate(-83.76 -27)"/><path class="a" d="M348.5,526.5l-.85-1.32c-14.87-23.41-37.51-65.82-35.15-92.68,3-33.79,12.38-41.71,29.67-70.89,13.5-22.78,21.14-48,26.34-74,3.38-16.86,5.72-34,8-51.08" transform="translate(-83.76 -27)"/><path class="a" d="M368.5,287.5a.22.22,0,0,0,0,.08,486.6,486.6,0,0,1,2.29,50.91c-.66,47.51-10.88,66.41-18.3,83-16.56,37.05-18.5,66.06-4.85,103.68.27.77.56,1.54.85,2.32" transform="translate(-83.76 -27)"/><path class="a" d="M348.5,526.5c-5.73-21,35-64,39-105,4.19-42.9-16.31-71-16-83" transform="translate(-83.76 -27)"/><path class="a" d="M335.5,238.5c.32-27.5,4.84-40.95,23.34-61.29a47.11,47.11,0,0,1,2.31-31.44A26.28,26.28,0,0,1,344,139.66c-7,2.65-10.09,2.83-16.24-.16l-1.36-.69c-9.37,4.62-22.08.46-26.91-8.81,11.74-2.16,16.6-5.28,28.75-5.43,7.11-.09,16.72.83,31.65,3.55l2.66.49c4.16.79,8.46,2.34,11.26,5.42a11.18,11.18,0,0,1,.92,1.14c2.1,3,2.68,6.75,2.85,10.37,1.81,37.35,13.91,46-1.09,91" transform="translate(-83.76 -27)"/><path class="a" d="M374.5,135.5c-.23-.48-.45-1-.68-1.47-4.18-9.1-8.66-20.47-15.26-28.14a33.23,33.23,0,0,0-2.72-2.83,89.42,89.42,0,0,0-11.27-8.34L329.19,84.55l-10.54-7c-7.77-5.15-14.15-12.07-21.36-17.82-2.22,5.35-1.14,11.52,1,16.89,4.13,10.21,11.94,18.6,20.79,25.16a114.82,114.82,0,0,0,10.7,7c5.83,3.4,11.89,6.44,17.91,9.5,4.73,2.41,9.73,5.13,12.17,9.84l0,0" transform="translate(-83.76 -27)"/><path class="a" d="M363.5,36.5a266.3,266.3,0,0,0-10,51" transform="translate(-83.76 -27)"/><path class="a" d="M358.5,106.5a6,6,0,0,0,.06-.61c.4-5.37-2.38-12.87-5.12-18.36-.52-1.06-1.05-2-1.55-2.93q-6-10.47-11.48-21.18-2.85-5.49-5.57-11.06c-3-6.17-6-12.65-6-19.53a8,8,0,0,0-.37-3.17c-1.05-2.47-4.75-2.77-6.9-1.16s-3.05,4.39-3.56,7c-3.25,16.75,4.06,33.53,11.21,49l.06.12" transform="translate(-83.76 -27)"/></svg>