<?xml version="1.0" encoding="UTF-8" standalone="no"?>
<svg
   xmlns:dc="http://purl.org/dc/elements/1.1/"
   xmlns:cc="http://creativecommons.org/ns#"
   xmlns:rdf="http://www.w3.org/1999/02/22-rdf-syntax-ns#"
   xmlns:svg="http://www.w3.org/2000/svg"
   xmlns="http://www.w3.org/2000/svg"
   xmlns:sodipodi="http://sodipodi.sourceforge.net/DTD/sodipodi-0.dtd"
   xmlns:inkscape="http://www.inkscape.org/namespaces/inkscape"
   viewBox="0 -100 1125.09 1300"
   version="1.1"
   id="svg38"
   sodipodi:docname="ArastarOutline2.svg"
   inkscape:version="0.92.4 (5da689c313, 2019-01-14)"
   width="1"
   height="1">
  <metadata
     id="metadata42">
    <rdf:RDF>
      <cc:Work
         rdf:about="">
        <dc:format>image/svg+xml</dc:format>
        <dc:type
           rdf:resource="http://purl.org/dc/dcmitype/StillImage" />
        <dc:title>ArastarOutline</dc:title>
      </cc:Work>
    </rdf:RDF>
  </metadata>
  <sodipodi:namedview
     pagecolor="#ffffff"
     bordercolor="#666666"
     borderopacity="1"
     objecttolerance="10"
     gridtolerance="10"
     guidetolerance="10"
     inkscape:pageopacity="0"
     inkscape:pageshadow="2"
     inkscape:window-width="1366"
     inkscape:window-height="745"
     id="namedview40"
     showgrid="false"
     inkscape:zoom="256"
     inkscape:cx="2.09375"
     inkscape:cy="-0.1640625"
     inkscape:window-x="-8"
     inkscape:window-y="-8"
     inkscape:window-maximized="1"
     inkscape:current-layer="svg38"
     fit-margin-top="-50"
     fit-margin-bottom="-50"
     fit-margin-left="-50"
     fit-margin-right="-50"
     units="px"
     viewbox-height="1500"
     viewbox-y="-100" />
  <defs
     id="defs4">
    <style
       id="style2">.a{fill:none;stroke:#000;stroke-linecap:round;stroke-miterlimit:10;stroke-width:0.05px;}</style>
    <filter
       inkscape:label="Glow"
       inkscape:menu="Shadows and Glows"
       inkscape:menu-tooltip="Shadowy outer bevel"
       style="color-interpolation-filters:sRGB"
       width="100%"
       height="100%"
       x="0"
       y="0"
       filterUnits="userSpaceOnUse"
       id="filter72">
      <feMorphology
         result="result1"
         in="SourceAlpha"
         operator="dilate"
         radius="9.2402464065708418"
         id="feMorphology44" />
      <feGaussianBlur
         stdDeviation="9.4800000000000004"
         in="result1"
         result="result0"
         radius="9.1999999999999993"
         id="feGaussianBlur46" />
      <feDiffuseLighting
         surfaceScale="-5"
         id="feDiffuseLighting50">
        <feDistantLight
           elevation="45"
           azimuth="225"
           id="feDistantLight48" />
      </feDiffuseLighting>
      <feComposite
         in2="result0"
         operator="in"
         result="result91"
         id="feComposite52" />
      <feComposite
         in="SourceGraphic"
         in2="result91"
         result="fbSourceGraphic"
         id="feComposite54" />
      <feColorMatrix
         result="fbSourceGraphicAlpha"
         in="fbSourceGraphic"
         values="0 0 0 -1 0 0 0 0 -1 0 0 0 0 -1 0 0 0 0 1 0"
         id="feColorMatrix56" />
      <feComposite
         in2="fbSourceGraphic"
         operator="arithmetic"
         k1="0"
         k2="1"
         result="composite1"
         in="fbSourceGraphic"
         k3="0"
         k4="0"
         id="feComposite58" />
      <feColorMatrix
         in="composite1"
         values="0"
         type="saturate"
         result="colormatrix1"
         id="feColorMatrix60" />
      <feFlood
         flood-opacity="1"
         flood-color="rgb(230,124,0)"
         result="flood1"
         id="feFlood62" />
      <feBlend
         in2="colormatrix1"
         in="flood1"
         mode="multiply"
         result="blend1"
         id="feBlend64" />
      <feBlend
         in2="blend1"
         mode="screen"
         result="blend2"
         id="feBlend66" />
      <feColorMatrix
         in="blend2"
         values="1"
         type="saturate"
         result="colormatrix2"
         id="feColorMatrix68" />
      <feComposite
         in2="fbSourceGraphic"
         in="colormatrix2"
         operator="in"
         result="composite2"
         id="feComposite70" />
    </filter>
  </defs>
  <title
     id="title6">ArastarOutline</title>
  <path
     class="a"
     d="M 491.9,815.32 H 5.32 L 459.49,1602"
     id="path8"
     style="fill:none;stroke:#000000;stroke-width:0.05px;stroke-linecap:round;stroke-miterlimit:10;filter:url(#filter72)"
     inkscape:connector-curvature="0"
     transform="translate(-5.28,-698.38)" />
  <path
     class="a"
     d="m 692.92,1573 437.4,-757.63 H 616.55"
     id="path10"
     style="fill:none;stroke:#000000;stroke-width:0.05px;stroke-linecap:round;stroke-miterlimit:10;filter:url(#filter72)"
     inkscape:connector-curvature="0"
     transform="translate(-5.28,-698.38)" />
  <path
     class="a"
     d="m 585.72,779.74 c 2,-5.44 3.86,-10.88 6.12,-16.32 8.39,-21.3 22.67,-44.65 45.56,-44.42"
     id="path12"
     style="fill:none;stroke:#000000;stroke-width:0.05px;stroke-linecap:round;stroke-miterlimit:10;filter:url(#filter72)"
     inkscape:connector-curvature="0"
     transform="translate(-5.28,-698.38)" />
  <path
     class="a"
     d="m 557.4,918.66 c 0.68,-12 2,-23.79 3.62,-35.8"
     id="path14"
     style="fill:none;stroke:#000000;stroke-width:0.05px;stroke-linecap:round;stroke-miterlimit:10;filter:url(#filter72)"
     inkscape:connector-curvature="0"
     transform="translate(-5.28,-698.38)" />
  <path
     class="a"
     d="m 381.08,981.89 c 10.19,-21.3 19.26,-20.17 41.92,-13.37 a 158.38,158.38 0 0 1 57.79,29.24 c 20.4,15.86 33.09,40.79 47.6,45.32 17.45,5.44 17.67,-21.3 24.93,-38.52 7.26,-17.22 3.4,-22.44 2.94,-41 0,-3.63 -0.22,-7.48 -0.22,-11.11"
     id="path16"
     style="fill:none;stroke:#000000;stroke-width:0.05px;stroke-linecap:round;stroke-miterlimit:10;filter:url(#filter72)"
     inkscape:connector-curvature="0"
     transform="translate(-5.28,-698.38)" />
  <path
     class="a"
     d="m 547.42,1259.74 a 59.23,59.23 0 0 1 -21.07,-12 c -16.09,-14.27 -25.84,-36.94 -29.92,-58.69 -5.66,-30.15 -4.3,-61.42 -14.5,-90.43 -7,-20.4 -19.49,-38.3 -32,-55.75 -10.42,-15 -21.3,-30.14 -36.26,-41 -14.96,-10.86 -12.24,-8.61 -32.63,-20"
     id="path18"
     style="fill:none;stroke:#000000;stroke-width:0.05px;stroke-linecap:round;stroke-miterlimit:10;filter:url(#filter72)"
     inkscape:connector-curvature="0"
     transform="translate(-5.28,-698.38)" />
  <path
     class="a"
     d="m 526.12,1247.05 0.23,0.68 c 6.12,30.15 1.36,134.85 -18.36,169.3"
     id="path20"
     style="fill:none;stroke:#000000;stroke-width:0.05px;stroke-linecap:round;stroke-miterlimit:10;filter:url(#filter72)"
     inkscape:connector-curvature="0"
     transform="translate(-5.28,-698.38)" />
  <path
     class="a"
     d="m 666.63,1172.27 c -41.92,129.18 -112.63,188.78 -158,245.44 a 235.78,235.78 0 0 0 -27.88,42.38 c -83.85,170 71.62,341.76 122.39,371.67"
     id="path22"
     style="fill:none;stroke:#000000;stroke-width:0.05px;stroke-linecap:round;stroke-miterlimit:10;filter:url(#filter72)"
     inkscape:connector-curvature="0"
     transform="translate(-5.28,-698.38)" />
  <path
     class="a"
     d="m 603.18,1829.5 -2,-3 c -33.77,-53 -85,-149.12 -79.55,-210.09 6.8,-76.6 28.1,-94.5 67.31,-160.68 30.59,-51.67 47.82,-108.78 59.6,-167.71 7.71,-38.3 12.92,-77 18.13,-115.8"
     id="path24"
     style="fill:none;stroke:#000000;stroke-width:0.05px;stroke-linecap:round;stroke-miterlimit:10;filter:url(#filter72)"
     inkscape:connector-curvature="0"
     transform="translate(-5.28,-698.38)" />
  <path
     class="a"
     d="m 648.5,1287.85 v 0 a 1095.37,1095.37 0 0 1 5.21,115.58 c -1.58,107.65 -24.7,150.48 -41.47,188.1 -37.62,83.86 -41.93,149.81 -11.1,235 0.68,1.81 1.36,3.4 2,5.21"
     id="path26"
     style="fill:none;stroke:#000000;stroke-width:0.05px;stroke-linecap:round;stroke-miterlimit:10;filter:url(#filter72)"
     inkscape:connector-curvature="0"
     transform="translate(-5.28,-698.38)" />
  <path
     class="a"
     d="m 603.18,1829.5 c -12.92,-47.6 79.32,-145 88.38,-238 9.52,-97.22 -36.94,-160.9 -36.26,-188.1"
     id="path28"
     style="fill:none;stroke:#000000;stroke-width:0.05px;stroke-linecap:round;stroke-miterlimit:10;filter:url(#filter72)"
     inkscape:connector-curvature="0"
     transform="translate(-5.28,-698.38)" />
  <path
     class="a"
     d="m 573.71,1176.8 c 0.68,-62.33 10.88,-92.69 52.81,-138.93 A 106.86,106.86 0 0 1 631.73,966.71 58.87,58.87 0 0 1 593,952.89 c -15.87,5.89 -22.89,6.34 -36.72,-0.46 l -3.17,-1.58 c -21.3,10.42 -50.09,1.13 -61,-20 26.51,-5 37.62,-12 65.27,-12.24 16.09,-0.22 37.84,1.82 71.61,7.94 l 6.12,1.13 c 9.52,1.81 19.26,5.21 25.61,12.24 0.68,0.9 1.36,1.58 2,2.49 4.76,6.8 6.12,15.41 6.57,23.57 4.08,84.53 31.5,104.25 -2.49,206.24"
     id="path30"
     style="fill:none;stroke:#000000;stroke-width:0.05px;stroke-linecap:round;stroke-miterlimit:10;filter:url(#filter72)"
     inkscape:connector-curvature="0"
     transform="translate(-5.28,-698.38)" />
  <path
     class="a"
     d="m 662.1,943.37 c -0.45,-1.14 -1.13,-2.27 -1.59,-3.4 -9.52,-20.63 -19.71,-46.46 -34.67,-63.69 -2,-2.26 -4.08,-4.3 -6.12,-6.34 A 172.41,172.41 0 0 0 594.11,851.13 L 559.21,828 535.41,812.14 c -17.68,-11.79 -31.95,-27.43 -48.5,-40.34 -5,12 -2.49,26.06 2.27,38.3 9.29,23.11 27,42.15 47.14,57.11 a 247.69,247.69 0 0 0 24.25,15.86 c 13.14,7.71 27,14.51 40.57,21.53 10.65,5.44 22,11.56 27.64,22.21 v 0"
     id="path32"
     style="fill:none;stroke:#000000;stroke-width:0.05px;stroke-linecap:round;stroke-miterlimit:10;filter:url(#filter72)"
     inkscape:connector-curvature="0"
     transform="translate(-5.28,-698.38)" />
  <path
     class="a"
     d="M 637.17,719 A 606.34,606.34 0 0 0 614.51,834.58"
     id="path34"
     style="fill:none;stroke:#000000;stroke-width:0.05px;stroke-linecap:round;stroke-miterlimit:10;filter:url(#filter72)"
     inkscape:connector-curvature="0"
     transform="translate(-5.28,-698.38)" />
  <path
     class="a"
     d="m 625.84,877.64 c 0,-0.45 0.22,-0.9 0.22,-1.36 0.91,-12.23 -5.43,-29.23 -11.55,-41.7 -1.14,-2.49 -2.27,-4.53 -3.4,-6.57 C 602,812.15 593.43,796.28 585,780 c -4.3,-8.39 -8.61,-16.55 -12.69,-25.16 -6.8,-14 -13.59,-28.56 -13.59,-44.19 a 16.12,16.12 0 0 0 -0.91,-7.26 c -2.27,-5.66 -10.88,-6.34 -15.64,-2.72 -4.76,3.62 -6.8,10 -8.16,15.87 -7.48,38.07 9.29,75.92 25.39,111 l 0.22,0.22"
     id="path36"
     style="fill:none;stroke:#000000;stroke-width:0.05px;stroke-linecap:round;stroke-miterlimit:10;filter:url(#filter72)"
     inkscape:connector-curvature="0"
     transform="translate(-5.28,-698.38)" />
</svg>
