<svg xmlns="http://www.w3.org/2000/svg" viewBox="0 0 1125.09 1133.41"><defs><style>.a{fill:none;stroke:#000;stroke-linecap:round;stroke-miterlimit:10;stroke-width:0.05px;}</style></defs><title>ArastarOutline</title><path class="a" d="M491.9,815.32H5.32L459.49,1602" transform="translate(-5.28 -698.38)"/><path class="a" d="M692.92,1573l437.4-757.63H616.55" transform="translate(-5.28 -698.38)"/><path class="a" d="M585.72,779.74c2-5.44,3.86-10.88,6.12-16.32,8.39-21.3,22.67-44.65,45.56-44.42" transform="translate(-5.28 -698.38)"/><path class="a" d="M557.4,918.66c.68-12,2-23.79,3.62-35.8" transform="translate(-5.28 -698.38)"/><path class="a" d="M381.08,981.89c10.19-21.3,19.26-20.17,41.92-13.37a158.38,158.38,0,0,1,57.79,29.24c20.4,15.86,33.09,40.79,47.6,45.32,17.45,5.44,17.67-21.3,24.93-38.52s3.4-22.44,2.94-41c0-3.63-.22-7.48-.22-11.11" transform="translate(-5.28 -698.38)"/><path class="a" d="M547.42,1259.74a59.23,59.23,0,0,1-21.07-12c-16.09-14.27-25.84-36.94-29.92-58.69-5.66-30.15-4.3-61.42-14.5-90.43-7-20.4-19.49-38.3-32-55.75-10.42-15-21.3-30.14-36.26-41s-12.24-8.61-32.63-20" transform="translate(-5.28 -698.38)"/><path class="a" d="M526.12,1247.05l.23.68c6.12,30.15,1.36,134.85-18.36,169.3" transform="translate(-5.28 -698.38)"/><path class="a" d="M666.63,1172.27c-41.92,129.18-112.63,188.78-158,245.44a235.78,235.78,0,0,0-27.88,42.38c-83.85,170,71.62,341.76,122.39,371.67" transform="translate(-5.28 -698.38)"/><path class="a" d="M603.18,1829.5l-2-3c-33.77-53-85-149.12-79.55-210.09,6.8-76.6,28.1-94.5,67.31-160.68,30.59-51.67,47.82-108.78,59.6-167.71,7.71-38.3,12.92-77,18.13-115.8" transform="translate(-5.28 -698.38)"/><path class="a" d="M648.5,1287.85h0a1095.37,1095.37,0,0,1,5.21,115.58c-1.58,107.65-24.7,150.48-41.47,188.1-37.62,83.86-41.93,149.81-11.1,235,.68,1.81,1.36,3.4,2,5.21" transform="translate(-5.28 -698.38)"/><path class="a" d="M603.18,1829.5c-12.92-47.6,79.32-145,88.38-238,9.52-97.22-36.94-160.9-36.26-188.1" transform="translate(-5.28 -698.38)"/><path class="a" d="M573.71,1176.8c.68-62.33,10.88-92.69,52.81-138.93a106.86,106.86,0,0,1,5.21-71.16A58.87,58.87,0,0,1,593,952.89c-15.87,5.89-22.89,6.34-36.72-.46l-3.17-1.58c-21.3,10.42-50.09,1.13-61-20,26.51-5,37.62-12,65.27-12.24,16.09-.22,37.84,1.82,71.61,7.94l6.12,1.13c9.52,1.81,19.26,5.21,25.61,12.24.68.9,1.36,1.58,2,2.49,4.76,6.8,6.12,15.41,6.57,23.57,4.08,84.53,31.5,104.25-2.49,206.24" transform="translate(-5.28 -698.38)"/><path class="a" d="M662.1,943.37c-.45-1.14-1.13-2.27-1.59-3.4-9.52-20.63-19.71-46.46-34.67-63.69-2-2.26-4.08-4.3-6.12-6.34a172.41,172.41,0,0,0-25.61-18.81L559.21,828l-23.8-15.86c-17.68-11.79-31.95-27.43-48.5-40.34-5,12-2.49,26.06,2.27,38.3,9.29,23.11,27,42.15,47.14,57.11a247.69,247.69,0,0,0,24.25,15.86c13.14,7.71,27,14.51,40.57,21.53,10.65,5.44,22,11.56,27.64,22.21h0" transform="translate(-5.28 -698.38)"/><path class="a" d="M637.17,719a606.34,606.34,0,0,0-22.66,115.58" transform="translate(-5.28 -698.38)"/><path class="a" d="M625.84,877.64c0-.45.22-.9.22-1.36.91-12.23-5.43-29.23-11.55-41.7-1.14-2.49-2.27-4.53-3.4-6.57C602,812.15,593.43,796.28,585,780c-4.3-8.39-8.61-16.55-12.69-25.16-6.8-14-13.59-28.56-13.59-44.19a16.12,16.12,0,0,0-.91-7.26c-2.27-5.66-10.88-6.34-15.64-2.72s-6.8,10-8.16,15.87c-7.48,38.07,9.29,75.92,25.39,111l.22.22" transform="translate(-5.28 -698.38)"/></svg>