<?xml version="1.0" encoding="UTF-8" standalone="no"?>
<!-- Generator: Adobe Illustrator 23.0.1, SVG Export Plug-In . SVG Version: 6.00 Build 0)  -->

<svg
   xmlns:dc="http://purl.org/dc/elements/1.1/"
   xmlns:cc="http://creativecommons.org/ns#"
   xmlns:rdf="http://www.w3.org/1999/02/22-rdf-syntax-ns#"
   xmlns:svg="http://www.w3.org/2000/svg"
   xmlns="http://www.w3.org/2000/svg"
   xmlns:sodipodi="http://sodipodi.sourceforge.net/DTD/sodipodi-0.dtd"
   xmlns:inkscape="http://www.inkscape.org/namespaces/inkscape"
   version="1.1"
   id="Layer_1"
   x="0px"
   y="0px"
   viewBox="0 0 1463.8 2337.5"
   style="enable-background:new 0 0 1463.8 2337.5;"
   xml:space="preserve"
   sodipodi:docname="ashley2.svg"
   inkscape:version="0.92.4 (5da689c313, 2019-01-14)"><metadata
   id="metadata85"><rdf:RDF><cc:Work
       rdf:about=""><dc:format>image/svg+xml</dc:format><dc:type
         rdf:resource="http://purl.org/dc/dcmitype/StillImage" /><dc:title>ashley</dc:title></cc:Work></rdf:RDF></metadata><defs
   id="defs83"><filter
     inkscape:label="Glow"
     inkscape:menu="Shadows and Glows"
     inkscape:menu-tooltip="Shadowy outer bevel"
     style="color-interpolation-filters:sRGB"
       width="100%"
       height="100%"
       x="0"
       y="0"
       filterUnits="userSpaceOnUse"
     id="filter1047"><feMorphology
       result="result1"
       in="SourceAlpha"
       operator="dilate"
       radius="9.2402464065708418"
       id="feMorphology1019" /><feGaussianBlur
       stdDeviation="10.32"
       in="result1"
       result="result0"
       radius="9.1999999999999993"
       id="feGaussianBlur1021" /><feDiffuseLighting
       surfaceScale="-5"
       id="feDiffuseLighting1025"><feDistantLight
         elevation="45"
         azimuth="225"
         id="feDistantLight1023" /></feDiffuseLighting><feComposite
       in2="result0"
       operator="in"
       result="result91"
       id="feComposite1027" /><feComposite
       in="SourceGraphic"
       in2="result91"
       result="fbSourceGraphic"
       id="feComposite1029" /><feColorMatrix
       result="fbSourceGraphicAlpha"
       in="fbSourceGraphic"
       values="0 0 0 -1 0 0 0 0 -1 0 0 0 0 -1 0 0 0 0 1 0"
       id="feColorMatrix1031" /><feComposite
       in2="fbSourceGraphic"
       operator="arithmetic"
       k1="0"
       k2="1"
       result="composite1"
       in="fbSourceGraphic"
       k3="0"
       k4="0"
       id="feComposite1033" /><feColorMatrix
       in="composite1"
       values="0"
       type="saturate"
       result="colormatrix1"
       id="feColorMatrix1035" /><feFlood
       flood-opacity="1"
       flood-color="rgb(230,124,0)"
       result="flood1"
       id="feFlood1037" /><feBlend
       in2="colormatrix1"
       in="flood1"
       mode="multiply"
       result="blend1"
       id="feBlend1039" /><feBlend
       in2="blend1"
       mode="screen"
       result="blend2"
       id="feBlend1041" /><feColorMatrix
       in="blend2"
       values="1"
       type="saturate"
       result="colormatrix2"
       id="feColorMatrix1043" /><feComposite
       in2="fbSourceGraphic"
       in="colormatrix2"
       operator="in"
       result="composite2"
       id="feComposite1045" /></filter></defs><sodipodi:namedview
   pagecolor="#ffffff"
   bordercolor="#666666"
   borderopacity="1"
   objecttolerance="10"
   gridtolerance="10"
   guidetolerance="10"
   inkscape:pageopacity="0"
   inkscape:pageshadow="2"
   inkscape:window-width="1366"
   inkscape:window-height="745"
   id="namedview81"
   showgrid="false"
   inkscape:zoom="0.49283422"
   inkscape:cx="787.09563"
   inkscape:cy="1278.6351"
   inkscape:window-x="-8"
   inkscape:window-y="-8"
   inkscape:window-maximized="1"
   inkscape:current-layer="Layer_1" />
<style
   type="text/css"
   id="style10">
	.st0{fill:none;stroke:#D4A440;stroke-width:3;stroke-miterlimit:10;}
	.st1{fill:none;stroke:#E1C07C;stroke-width:3;stroke-miterlimit:10;}
</style>
<title
   id="title12">ashley</title>
<path
   class="st0"
   d="M274.2,848.6c9.8-1.4,20.5-0.4,30.4,0.6c19.1,1.9,36.7,8.7,55.3,12.8c16.7,3.7,34.3,10.5,46.7,22.4  c-1.3,12.3-23.5,28.4-33.6,35.6c-12.9,9.2-27.2,16.7-38.6,28.3c-5.1,5.3-12.8,12.4-14.9,19.4"
   id="path14" />
<path
   class="st0"
   d="M406.5,884.4c-16.1,3.3-36.5-0.3-52.1-4.7c-12.8-3.6-31.8-12.3-45.5-8.2c-9.7,2.9-10.4,11.2-10.5,19.9"
   id="path16" />
<path
   class="st0"
   d="M406.5,884.4c-13.6,5.6-30.1,14.9-44.4,17.9c-12.1,2.6-32.6,9.5-43.4,16.1"
   id="path18" />
<path
   class="st0"
   d="M302.2,876.7c-3.6,8.7-2.8,14.1-2.3,20.6c0.6,10.1,8.6,5.6,15.5,3.5c14.1-4.3,29.2-8.4,44-11.6  c8.6-1.9,17.3-3.3,26.1-4"
   id="path20" />
<path
   class="st0"
   d="M314.1,779.8c-8.4-12.3-57.6-14.7-52.3,3.7"
   id="path22" />
<path
   class="st0"
   d="M347.1,756.9c-4.6,5.8-1.8,17-6.9,24.3c-5.4,7.8-16,13.8-25.2,16.1"
   id="path24" />
<path
   class="st0"
   d="M749.7,745.4c0.8,3.3,0.8,7.7,2.3,10.8c5.1,10.8,32.1,11.9,43.1,9c16.8-4.5,30-15.2,39.9-29.7  c17-25,36-50.3,47.9-78.2c13.6-32,20.5-58.6,18.9-94c-1.7-37.2-29-59.4-64.8-62.5c-17.5-1.5-33.8,4.7-45.2,18  c-6.1,7.2-10.8,15.8-16.1,23.4c-4.6,6.5-14.1,13.5-15.1,21.6c-37.9,29.8-97.5,6.7-108.5-16c-10-20.5-19.9-38.8-39.8-51.5  c-17.6-11.2-36.6-17.5-55.5-25.9c-21.5-9.6-26.4-22.9-21.9-45.3c3.9-19.3,4.3-38.3,4.3-58.4c0-43.6-50.8-57.8-86.2-61.3  c-23.5-2.2-47.2-2.7-70.8-1.6c-20.4,1-46.4-3.5-63.5,1.5"
   id="path26" />
<path
   class="st0"
   d="M773.1,611.3c-0.6,5,0.5,15.3,0.9,21.6c0.5,7.7,5.1,11.7,4.5,18.9c-0.6,6.7-7.6,13.9-7.9,20  c-0.5,9.1,8.5,10.5,15.6,6.6c6.6-3.6,7.9-11.1,13.5-15.7c5.1-4.2,12.6-5.2,18-9.1c14.6-10.5,15.8-25,9.2-41.2  c-8.1-19.9-32.7-22-41.2-39.1c-8.7-17.5,6.2-45.1,24.3-49.5c13.8-3.3,38.2-4,50.4,2.7c17.5,9.6,22.6,21.2,23.4,40.3  c1,22.1,0,41.6-7.2,62.5"
   id="path28" />
<path
   class="st0"
   d="M855,611.3c12.6,12.2-6.5,46.3-16.2,55.8"
   id="path30" />
<path
   class="st0"
   d="M886.7,702.5c2.9,18.1,5.3,34.2,11,52.6c9.1,29.7,20.1,55.7,32.5,84.7c10.7,25.2,37.7,43.8,55.6,65.3  c0.3-6.5,2.2-13,3.9-19.3c6.6-24.8,25.5-43.1,33.3-67.6c3.9-12.2,6.1-24.1,0.7-36.5c-4.6-10.5-14.5-18.3-14.3-31  c0.1-6.3,4.4-9.9,5.7-15.5c1.5-7.1-0.3-11,0.2-18.1c1-13.6,7.9-19.5,16.1-29.6c17-21,27.2-52.7,35-78.5  c8.4-27.7,19.8-54.5,29.2-81.8c10.3-29.7-2.9-44.7-12-72.9c-8.2-25.5-3.2-52-5.8-78.9c-2.8-28-19.3-48.8-31.8-73  s-30.9-43.5-48.3-64.3c-8.3-10-12.1-23.3-19-34.2c-4.4-6.9-9.2-26.9-14.3-27.7c-4.7-15-8-29-21.5-39.6  c-25.3-19.6-57.9-28.6-85.3-43.8c-26.8-14.8-18.9-55.4-44.5-73.6c-4.8,2.5-9.5-5.5-14.1-8.3c-6.4-3.9-14.1-5.6-21.3-7.3  c-14.2-3.2-28.7-2-42.8,0.9c-12.2,2.5-19.4-1.4-31-2.8c-13.1-1.6-27.1,2.6-39.5,7.5c-11.3,4.5-19.7,9.5-30.8,7  c-10.6-2.4-20.5-5.6-32-4.8c-12.7,0.8-26.9,5.1-38.9,9.5c-13.5,4.9-22.6,16.4-34.9,22.6c-27.6,13.8-66.1,28.3-97.1,37.8  c-26.8,8.3-49.9,24.5-74.1,40.3c-37.5,24.5-76.1,53.9-98.4,92.9c-6.5,11.3-9.3,3.6-21.6,6.5c-7.8,1.9-16.6,9-22.1,14.8  c-12,12.8-26,38.9-17.8,55.9c-27.8-5.3-42.6,13.2-52.1,38.7c-9.3,24.8-15.5,54.4,2.6,77c7.4,9.2,18.2,14.5,25.5,23.3  c7.8,9.4,2.6,10.5-5.4,16.6c-16.3,12.4-33,34-42.8,52c-29.7,53.7,12,88.3,18.4,97c5.3,7.2,13.9,56.7,3.4,66.5  c-12.6,11.8-25.7,24.1-36.2,37.8c-9.7,12.7-22.1,36.1-22.1,52c0,19.7,16.7,34.1,30.1,46.1c14.2,12.7,27.1,24.9,37.8,40.8  c21.7,32,5.6,71.9-20.9,95.2c-12.9,11.3-22.7,21.9-10.7,38.3c10.3,14.1,24.7,34.8,41.4,41.2c-8.2-7-17.9-32.9-20.2-44  c-4.3-20.6,10-26.8,23.2-37.3c26.5-20.9,43.2-56.7,28.5-89.4c-12.3-27.3-42.7-47-43.8-78.9c-1.1-30.5,35.8-47.4,56.7-62.1  c11.5-8.1,22.8-15.6,33.9-24.3s19.4-23.5,31.1-30.5"
   id="path32" />
<path
   class="st0"
   d="M387.4,1597.5c-26,4.4-90.7,57.1-135.1,89"
   id="path34" />
<path
   class="st0"
   d="M829.5,1841.4c19,62.3,64.6,130,91.3,190.5"
   id="path36" />
<path
   class="st0"
   d="M298.2,890.7c-4-2.7-16.3-11-21.9-25.4c-1.3-3.4-2.7-6.8-2.6-11.5c0.1-9.3,5.6-12.8,8.7-23.3  c1.7-5.8,3.6-12.4,1.3-18.5c-3.5-9.2-13.6-8.8-37.9-21.9c-10.1-5.5-15.2-8.3-18.3-12.5c-2.3-3.2-9.2-14.2-2.3-40.8  c5.8-22.4,14.1-28,31.8-59c17.9-31.2,26.7-47.1,22.5-64.4c-1.5-5.9-5.6-13.6-13.8-28.9c-10.4-19.4-12.9-20-15.9-27.3  c-7-17.2,0.5-28.9,7.9-63.2c6.3-29,1.6-24.1,8.9-65.1c5.6-31.6,8.5-47.4,16.2-65.6c6.1-14.2,15.7-36.8,35.9-58"
   id="path38" />
<path
   class="st0"
   d="M1035.5,2331.8c-2.9-17.6-5.8-16.5-25.6-83.2c-36.1-121.7-54.1-182.5-92.9-222.1  c-43.3-44.2-57.7-16.8-178.8-88.4c-35-20.7-65.2-42.2-125.6-85.3c-108.6-77.5-95.5-75.7-128.2-94.9  c-136.2-80.1-263.3-51.4-274.4-100.7c-3-13.3,3.9-25.8,21.1-48.6c81-107.1,187.7-174.4,235.9-203.8  c104.5-63.7,136.1-71.8,150.8-114.1c13.5-38.9,7.1-90.5,2.2-130.6c-1.2-9.6-3.5-23.5-12.6-37.7c-2.1-3.3-8.6-12.9-25.9-25.4  c-16.3-11.8-36.5-26.5-62.2-28.7c-22-1.9-23.4,7.5-67.1,17.8c-32,7.5-49.1,11.5-69.6,5c-5.4-1.7-36.7-11.7-46.6-37.6  c-5.5-14.4-5.1-35.5-8.1-70c-0.3-3-0.9-8.8-5-13.2c-3.2-3.4-6-3.2-12.3-6.4c-6.5-3.3-12.4-6.4-14.6-11.6  c-3.4-8.2,2.9-20.7,11.1-27.2c7.2-5.7,14.9-6,15.8-11.3c0.3-1.9-0.3-4-2.5-7.1c-1.4-1.9-2.9-3.7-4.7-5.2"
   id="path40" />
<path
   class="st0"
   d="M988.2,897c11.4,206.7,182.7,373.2,292.8,532.6c148.1,214.5,109.3,342.8,128,440.7  c19,99.8,48.7,201.2,51.8,302.8c3.5,112.5-0.1,142.3-2.4,164.3"
   id="path42" />
<path
   class="st0"
   d="M334.3,1499.8c-32.9,39.3-199.6,135.2-240.4,171c-45,39.6-67.3,74.7-81.9,130.8c-30.7,118,13.3,242.2,47.9,353  c23,73.7,44.9,97,45.4,177.1"
   id="path44" />
<path
   class="st0"
   d="M774.2,772.6H671l96.4,167"
   id="path46"
   style="filter:url(#filter1047)" />
<path
   class="st0"
   d="M816.9,933.4l92.8-160.8h-109"
   id="path48"
   style="filter:url(#filter1047)" />
<path
   class="st0"
   d="M794.1,765c0.4-1.2,0.8-2.3,1.3-3.5c1.8-4.5,4.8-9.5,9.7-9.4"
   id="path50"
   style="filter:url(#filter1047)" />
<path
   class="st0"
   d="M788.1,794.5c0.2-2.5,0.4-5.1,0.8-7.6"
   id="path52"
   style="filter:url(#filter1047)" />
<path
   class="st0"
   d="M750.7,808c2.2-4.5,4.1-4.3,8.9-2.8c4.5,1.2,8.6,3.3,12.3,6.2c4.3,3.4,7,8.7,10.1,9.6c3.7,1.2,3.8-4.5,5.3-8.2  s0.7-4.8,0.6-8.7c0-0.8,0-1.6,0-2.4"
   id="path54"
   style="filter:url(#filter1047)" />
<path
   class="st0"
   d="M786,866.9c-1.7-0.5-3.2-1.4-4.5-2.5c-3.4-3-5.5-7.8-6.3-12.5c-1.2-6.4-0.9-13-3.1-19.2  c-1.5-4.3-4.2-8.1-6.8-11.8c-2.2-3.2-4.5-6.4-7.7-8.7s-2.6-1.8-6.9-4.2"
   id="path56"
   style="filter:url(#filter1047)" />
<path
   class="st0"
   d="M781.5,864.2v0.1c1.3,6.4,0.3,28.6-3.9,35.9"
   id="path58"
   style="filter:url(#filter1047)" />
<path
   class="st0"
   d="M811.3,848.4c-8.9,27.4-23.9,40-33.5,52.1c-2.3,2.8-4.3,5.8-5.9,9c-17.8,36.1,15.2,72.5,26,78.9"
   id="path60"
   style="filter:url(#filter1047)" />
<path
   class="st0"
   d="M797.9,987.8c-0.1-0.2-0.3-0.4-0.4-0.7c-7.2-11.3-18-31.7-16.9-44.6c1.4-16.3,6-20.1,14.3-34.1  c6.5-11,10.2-23.1,12.7-35.6c1.6-8.1,2.8-16.4,3.8-24.6"
   id="path62"
   style="filter:url(#filter1047)" />
<path
   class="st0"
   d="M807.5,872.9L807.5,872.9c0.8,8.1,1.2,16.3,1.1,24.5c-0.3,22.8-5.2,31.9-8.8,39.9c-8,17.8-8.9,31.8-2.3,49.9  c0.1,0.4,0.3,0.8,0.4,1.1"
   id="path64"
   style="filter:url(#filter1047)" />
<path
   class="st0"
   d="M797.9,987.8c-2.8-10.1,16.8-30.8,18.8-50.5c2-20.6-7.8-34.1-7.7-39.9"
   id="path66"
   style="filter:url(#filter1047)" />
<path
   class="st0"
   d="M791.6,849.3c0.2-13.2,2.3-19.7,11.2-29.5c-1.4-5-1-10.4,1.1-15.1c-3,0-5.9-1-8.2-2.9c-3.4,1.3-4.9,1.4-7.8-0.1  l-0.7-0.3c-4.8,2.2-10.4,0.3-13-4.3c5.7-1,8-2.5,13.8-2.6c5.1,0.1,10.2,0.7,15.2,1.7l1.3,0.2c2,0.3,3.9,1.2,5.4,2.6  c0.2,0.2,0.3,0.4,0.5,0.5c0.9,1.5,1.4,3.2,1.4,5c0.9,18,6.7,22.1-0.5,43.8"
   id="path68"
   style="filter:url(#filter1047)" />
<path
   class="st0"
   d="M810.4,799.8l-0.3-0.7c-2-4.4-4.2-9.8-7.3-13.5c-0.4-0.5-0.8-0.9-1.3-1.4c-1.7-1.5-3.5-2.8-5.4-4l-5.2-3.5  l-2.2-1.4l-5.1-3.4c-3.7-2.5-6.8-5.8-10.3-8.6c-1.1,2.6-0.5,5.5,0.5,8.1c2,4.9,5.7,9,10,12.1c1.6,1.2,3.4,2.3,5.1,3.4  c2.8,1.6,5.7,3.1,8.6,4.6c2.3,1.2,4.7,2.5,5.8,4.7l0,0"
   id="path70"
   style="filter:url(#filter1047)" />
<path
   class="st0"
   d="M805.1,752.2c-2.4,8-4,16.2-4.8,24.5"
   id="path72"
   style="filter:url(#filter1047)" />
<path
   class="st0"
   d="M802.7,785.8c0-0.1,0-0.2,0-0.3c0.2-2.6-1.1-6.2-2.5-8.8c-0.3-0.5-0.5-1-0.7-1.4c-1.9-3.3-3.7-6.7-5.5-10  c-0.9-1.8-1.8-3.6-2.8-5.5c-1.5-3-2.9-6.1-2.9-9.4c0-0.5,0-1-0.2-1.5c-0.5-1.2-2.3-1.3-3.3-0.6c-1,0.9-1.6,2.1-1.7,3.4  c-1.6,8.1,2,16.1,5.4,23.6v0"
   id="path74"
   style="filter:url(#filter1047)" />
<path
   class="st0"
   d="M310,572.9c-12.6-2.3-18.4-25-18.4-35.2c-0.1-14.3,20.2-15.6,31.5-19.2c39.1-12.3,81.4-20.3,120.7-4.4  c10,4,16.9,7.4,24.5,15c5.2,5.2,13.1,10.3,16.5,16.8c-9.4-4.2-19.3-8.4-29.2-11.9c-15.5-5.4-31.3-5.3-47.2-7.3  c-15.8-2-28.8-3.2-44.2,2.5c-10.4,3.8-19.5,12.1-28.3,18.7c-5.4,4-11.5,8.2-15.6,13.5C317.4,565.2,314.4,571,310,572.9z"
   id="path76" />
<path
   class="st1"
   d="M521,391.3"
   id="path78" />
</svg>