<svg xmlns="http://www.w3.org/2000/svg" viewBox="0 0 1400.11 2108.4"><defs><style>.a{fill:none;stroke:#000;stroke-miterlimit:10;stroke-width:0.25px;}</style></defs><title>brusher</title><path class="a" d="M737.6,1068.5c13.3-8.3,15.7-10.6,24.7-15.5,22.7-12.4,45.3-25.9,65.3-42.4,42.3-35.1,78.8-77.9,114.6-119.2,63.9-73.7,122.6-151.2,173.2-234.7,25.5-42.2,44.2-97.4,32.3-145.3-8.1-32.6-29.1-38.3-59.2-46.7-33.4-9.3-64.7-20.9-97-32.7-37.6-13.7-76.3-28.9-115.1-36.6-29.8-5.9-80.1-24.3-109.9-16.1" transform="translate(69.2 -327.32)"/><path class="a" d="M766.3,388.7c51.3,35.8,84.4,104.1,99.5,161.6,4.5,17.3,9.1,34.3,8.4,52.8" transform="translate(69.2 -327.32)"/><path class="a" d="M593,504.9c-30.2,9.8-56.7,9.5-90.8,11.2-74.7,3.6-92.8,90.4-107.1,147.4-5.2,20.5-10.4,40.8-17.1,61-5.3,16.1-5,38.4-12.7,52.5" transform="translate(69.2 -327.32)"/><path class="a" d="M766.3,388.7c-20.3-5.7-28.1,2.5-43.5,16.3-11.9,10.7-23.2,36-57,61.9" transform="translate(69.2 -327.32)"/><path class="a" d="M766.3,388.7c0-53.2-188.1-59.4-281.5-44.4-22.1,3.5-47.1,15-64.7,25.4" transform="translate(69.2 -327.32)"/><path class="a" d="M375,390.5c-18.7,8.4-51.4,20.9-59.1,41.5" transform="translate(69.2 -327.32)"/><path class="a" d="M523.5,339.7c-36.9-20.9-83.5-11.3-118.5,1-17.6,6.2-32.7,3.6-50.1,16.7-16.7,12.6-29.8,19.6-50.7,26.2-24.3,7.7-30.9,10.9-32.2,39-36.6,1.5-51.6,35.3-53.1,66.6-.9,19.1-16.5,23.3-20.2,40.5-7.8,36.2-39.6,61.9-53.9,96.6-14.9,36.2-19.5,73.5-42,105.3C78.3,766.4,58,802,37.9,839.8c-17,32-25.8,58.9-27.6,94.5-2,37.3,11.8,68.6,10.8,105.3-1,35.9-14,67.3-16.2,102.6-2.3,37.2,9.4,67.3,10.8,102.6,1.6,41.1-7.9,81.1,3.4,121.5,10.2,36.5,14.9,58.2,12.8,97.2C29.7,1506,14.5,1536,4.2,1576.9c-10.8,42.9-1.2,98.8,14.2,140.4" transform="translate(69.2 -327.32)"/><path class="a" d="M378.2,353.5c-20.8,7.9-1.7,35.2,2,47.9,4.1,14.4-3.4,44.6,6.1,56.7,13.6,17.4,30-6.1,33.9-19.2,4.6-15.5,5.9-40.7,2.8-57.7C420.2,366,398,342.6,378.2,353.5Z" transform="translate(69.2 -327.32)"/><path class="a" d="M316,411.3c1.3,12-1.8,17.2,2.3,32.4,4.5,16.6,19.8,30.6,24.6,46.7,4.7,15.7-12.5,49.4-23,29.5-8.7-16.5-23.6-27.4-30.5-38.7-9.9-16.3-20.9-40.6-17.3-58.4" transform="translate(69.2 -327.32)"/><path class="a" d="M275.9,453.4c5.4,11.5-16.1,25.5-15.3,41,1,20.7,16.6,30.5,23.8,47.9,4.6,11,1.2,55.6-11.7,42.8-13.1-13.1-26.4-25.4-32.6-33.9-10.3-14.2-18.4-38.9-22-56.4" transform="translate(69.2 -327.32)"/><path class="a" d="M900.3,632.7c-4.4-5.6-22.3-17.2-26.1-29.6" transform="translate(69.2 -327.32)"/><path class="a" d="M292.1,859.3c-6-12.1-24.4-16.5-37.4-23.1-21-10.7-29,8.5-24.2,29,3.3,14,17.6,31.3,25.8,43.5,10.5,15.7,22.8,30.2,33.5,45.5,6.9,9.9,26.5,47.4,35.4,49.9" transform="translate(69.2 -327.32)"/><path class="a" d="M306.4,934.2c-8.1-31.4-12-49.6-15.1-82.3-3.9-40.9,1.1-39.2,33.8-56.5,26.7-14.2,70-21.8,82.8-6" transform="translate(69.2 -327.32)"/><path class="a" d="M441,796.3c-32.3-6.5-63.7-20.2-85,16.1-15.9,27.1-27.4,63.7-34.3,93.4-3.2,14-1.1,44.9,17.8,46.7" transform="translate(69.2 -327.32)"/><path class="a" d="M521.5,896.1c-7.6-22.7,2.4-53.5-14.5-73.3-16.6-19.5-35.6-13.4-62.8-25" transform="translate(69.2 -327.32)"/><path class="a" d="M444.3,797.9c-24.2-17.5-89.8,58.6-98.2,82.1" transform="translate(69.2 -327.32)"/><path class="a" d="M485.5,828.1c-4.2,7.6-8.4,18.4-17.1,21-5.6,1.7-9.1,1.1-13.8-2.2-5.2-3.7-4.1-6-5-12.4-.6-4.4-1-12.2-3.9-15.7" transform="translate(69.2 -327.32)"/><path class="a" d="M473.8,846.9c3.1,7,7.4,27.9,11.6,35.8" transform="translate(69.2 -327.32)"/><path class="a" d="M416.9,834.8c6.7.9,12.2,6.6,18.2,9.4s9.5-2.3,15.5-1.1" transform="translate(69.2 -327.32)"/><path class="a" d="M435.1,844.1c-2.5,4.1,2,20.2,3.9,26.1" transform="translate(69.2 -327.32)"/><path class="a" d="M439.1,870.2c11.1-1,24.2,6,34.8,9a326.5,326.5,0,0,1,43.6,15.4c14.4,6.4,27.3,12.8,39.8,22.3,7.5,5.6,14.9,11.1,21.4,17.9,6.8,7.1,12.3,15.3,19,22.5,13.1,14.2,27,22.3,31.7,40.9" transform="translate(69.2 -327.32)"/><path class="a" d="M629.3,998.2c71.8,38.9,147.8,101.4,217.7,148.5,93.9,63.3,191.9,121.1,282.5,188.8,40.4,30.2,87.1,69.7,110.6,115.2" transform="translate(69.2 -327.32)"/><path class="a" d="M1240.1,1450.7c1.7,6.6,23.8,30.8,31.8,38.7,14.1,14,31.2,25.8,44,40.5,20.9,24.1,18.6,52.7.5,77-24.1,32.3-58.1,54.3-92.9,74.1-58.3,33.1-122.6,34.6-190.9,37.9-88.2,4.3-180.5-.4-281.6,3.8" transform="translate(69.2 -327.32)"/><path class="a" d="M325.1,1004.1c14.2,6,39.5,5.1,56.7,14.8s34.5,20.6,53.6,26.6c38.7,12.2,69.1,43,101.3,68.7,16,12.7,31.6,24.6,46,39,42.4,42.7,90.2,78.6,134.1,119.5,50.9,47.5,93.2,93.2,120.1,157.4,25.7,61.4,89,116.5,155.9,128.2" transform="translate(69.2 -327.32)"/><path class="a" d="M831.3,1418.9c-52.2-27.9-127.5-18.4-185.3-24.8-29.1-3.2-55.3-10.7-82-22.7s-44.6-33.1-70.2-47.5c-47.9-27.1-97.5-51.2-147.4-73" transform="translate(69.2 -327.32)"/><path class="a" d="M437.3,1328c-59.3.3-122.2-15.6-181.8,0" transform="translate(69.2 -327.32)"/><path class="a" d="M303.4,976.6c-6.2,6.6-14.5,48.7-19.7,62.7-7.7,20.9-14.2,41.9-22,62.7-15.4,41.1-35.6,86.6-57.7,124-39.2,66.2-81.7,131.4-80.8,209.3.5,39.5,24.6,67.3,37.9,102.6,13.9,36.6,16.1,71.3,36.5,106.6,20.2,35.1,36.9,66.5,61.2,99.3,24.6,33.2,54.8,61.8,76.5,97.8,23.8,39.5,44.9,75.6,71.6,113,26.3,36.9,42.9,70.2,67,109.6,12.7,20.8,24.9,43.2,39,63.2,29.6,42,73.8,72.2,103.3,115.1" transform="translate(69.2 -327.32)"/><path class="a" d="M584,2203c17.7,46.8-60.5,181.4-50.7,232.7" transform="translate(69.2 -327.32)"/><path class="a" d="M780.4,1878.9c104.8,10.2,237.1-51.3,200.9-156.1" transform="translate(69.2 -327.32)"/><path class="a" d="M1074.2,2435.7c10.8-70.8.2-69.4-3.7-143.9-3.9-74.9-3.2-147.8-10.7-222.7-8-80.1-6.4-158-38.8-232.6-17.3-39.7-7.6-34.1-33.6-69" transform="translate(69.2 -327.32)"/><path class="a" d="M458.6,1055.2c-20.7,19.3-11.4,68.4-13,93.7" transform="translate(69.2 -327.32)"/><path class="a" d="M557.6,1151.6c3.8,6.4,4,14.4,8.3,21.4,4.5,7.4,9.4,14.9,15.7,20.6,14.6,13.2,30.4,16.5,38.6,36.3" transform="translate(69.2 -327.32)"/><path class="a" d="M629.3,998.2c.5-7.9,12-17.4,17.2-23.2,9.2-10.2,19.7-17.2,30.9-24.9,25.3-17.4,54.5-30.5,82.6-42.7,26.9-11.7,75.5-16.6,89-47.4,4.3-9.7,4-20.1,5.2-30.8,1-9.2-2.4-21.5.9-30.2,4.8-13,10.8-27.2,10.1-41.9-.2-4.9-1.2-3.4-2.4-7.9-.7-2.8,6.2-4.4,8.5-9.3,3-6.5.6-12.8-.1-19.9-1.7-17.4,12.6-16,25.8-22.5,11.3-5.6,24.1-16.1,26-29,2.3-15.6-5.2-24.7-22.7-35.8" transform="translate(69.2 -327.32)"/><path class="a" d="M890.3,670.2c-1.4-15-23.6-1.9-26.6,5.2" transform="translate(69.2 -327.32)"/><path class="a" d="M864.3,688.6c-16.4,1.5-26.5-11.8-18.9-26.5" transform="translate(69.2 -327.32)"/><path class="a" d="M872,728.1c-6.1-6.8-19.8-12.6-31.1-13s-25.9,6.5-35.6,2.4" transform="translate(69.2 -327.32)"/><path class="a" d="M864.3,770.1c-8.9-3.7-22.6-16.8-30.6-24.2-8.8-8.2-16.7-25.8-28.3-28.3" transform="translate(69.2 -327.32)"/><path class="a" d="M862.8,749.2c-11.5-10.5-42.1-27.5-57.5-31.8" transform="translate(69.2 -327.32)"/><path class="a" d="M758.7,484.5c13-4.9,53.4,11,61.4,20,9.4,10.5,26.9,30.3,19.5,34.3-9-5.7-24.4-24.9-31.5-33C800.8,497.5,768.4,488.6,758.7,484.5Z" transform="translate(69.2 -327.32)"/><path class="a" d="M827.5,588.5c-2.7,5.2-6.7,3.3-10-1.3-12.1-16.8-51.2-45.5-67-57.2" transform="translate(69.2 -327.32)"/><path class="a" d="M519.3,531c3.4,13.8-13.3,53.4-29.5,32.9" transform="translate(69.2 -327.32)"/><path class="a" d="M486.7,538.4c-3.4,7.4-.6,17.7,3,25.5" transform="translate(69.2 -327.32)"/><path class="a" d="M530.3,566.2c2.6,9.6,4.5,17.9,9.8,26.5-13.4,6.7-14.6-17.4-26.8-13.4C509.3,572.4,524.6,566.4,530.3,566.2Z" transform="translate(69.2 -327.32)"/><path class="a" d="M455.1,533.4c0,17.7,13.7,35.7,19,48" transform="translate(69.2 -327.32)"/><path class="a" d="M477.5,520.9c-6.7,10.5-10.4,49.4-2.2,58.6" transform="translate(69.2 -327.32)"/><path class="a" d="M442.2,545.9c-1.6,5.4,3.2,22.8,5.5,28.5,3.7,9.1,13.1,18.1,19.6,25.4,13.4,15.2,57.3,31.8,66.4,29" transform="translate(69.2 -327.32)"/><path class="a" d="M593.2,505.5c12.6-27.8,50.1-16.8,72.6-38.7" transform="translate(69.2 -327.32)"/><path class="a" d="M936.7,619.1c-13.4,1-37.4-10.5-41.5-13-3.4-2.1-21.9-14.1-19.6-18.9" transform="translate(69.2 -327.32)"/><path class="a" d="M981.8,611.4c-14.6,2.9-30.4,3.3-45.1,7.8-9.4,2.8-23.7,8.4-27.8,18.2" transform="translate(69.2 -327.32)"/><path class="a" d="M360.7,1883.7c-1.1,25.8,10.5,67.1,12.1,93.3,2.6,42.9,1,84.5-7.9,126.6-8.8,41.8-26.5,81.9-57.5,111.9-37.5,36.4-86.7,38.1-136.9,47.9" transform="translate(69.2 -327.32)"/><path class="a" d="M18.4,1717.5c5,23.8,51.7,155.8,50.9,198.1-1.8,92.6-41.4,210.1-138.4,242.3" transform="translate(69.2 -327.32)"/><path class="a" d="M182.8,1966.4c11.7,14.8,24.3,238.6-12.4,297" transform="translate(69.2 -327.32)"/><path class="a" d="M-69.2,2158c36.6.2,113.9-14.8,144.1-34.2,21.5-13.9,42.9-29.8,58.5-50.5,32.4-42.9,45.3-100,64.3-149.4" transform="translate(69.2 -327.32)"/><path class="a" d="M543.1,523c3.7,3.8,3.7,21.6,0,28.4" transform="translate(69.2 -327.32)"/><path class="a" d="M519.3,531c-8.4,22.9-18.7,23.9-25,11.4" transform="translate(69.2 -327.32)"/><path class="a" d="M817.5,587.3c-7.7-35.5-38-51.7-45.2-53.1-6.7-1.3-15.8-.8-21.8-4.1" transform="translate(69.2 -327.32)"/></svg>