<svg id="Layer_2" data-name="Layer 2" xmlns="http://www.w3.org/2000/svg" viewBox="0 0 2262.61 1826.25"><defs><style>.cls-1{fill:none;stroke:#000;stroke-miterlimit:10;}</style></defs><title>couple</title><path class="cls-1" d="M335.15,617.42C312.34,644,303,675.48,302.23,714.22c-.38,19.94-10.59,40.51-5,59.65,5,17.06,16.88,31.4,22.33,48.33,3.83,11.91,4.33,24.68,8,36.66s12.94,16.72,25.15,19.48c6.56,1.49,35.75,2.42,44.25.65" transform="translate(552.43 -504)"/><path class="cls-1" d="M514.14,865.33c-4.86-31.12-20.73-61.82-47.72-78.05-13.55-8.14-29.12-12.27-43.23-19.41-23.86-12.06-42.83-32.49-56.15-55.68s-21.3-49.07-26.81-75.23c-3.2-15.15-7.83-28.86-8-44.34s3.59-31.53,13.44-43.47a68.83,68.83,0,0,1,14.14-12.56c19.08-13.23,41.75-20.23,64.35-25.57,19.08-4.51,38.73-8,58.23-5.89,20.41,2.2,39.68,10.42,57.91,19.85,19.06,9.87,38,21.81,49.46,40,5.5,8.75,9,18.58,12.45,28.32l7.68,21.63c5.1,14.4,18.18,22.46,23.31,36.85,8.18,22.92,3.61,50,16.59,70.57,11.28,17.87,32.74,26,49.17,39.27,9.36,7.56,17.32,17.17,21.56,28.44s4.48,24.27-.72,35.12c-3.31,6.91-8.59,12.63-13,18.88s-8.29,26.84-3.48,31.29,11.4,6.28,17.54,8.56c11.7,4.33,23.38,11.65,27.78,23.32,3.59,9.5,1.69,20.23-1.84,29.76s-8.61,18.46-11.58,28.17c-.88,2.86-1.57,5.93-.77,8.81s2.93,5.14,4.87,7.41A74.24,74.24,0,0,1,755,1011.85c2.43,9.89,1.89,22.21-6.58,27.87a46.07,46.07,0,0,0-4.58,2.91c-3.18,2.68-4.21,7.18-4.08,11.33s1.19,8.23,1.38,12.38c.67,14.52-8.6,23.81-19.89,33" transform="translate(552.43 -504)"/><path class="cls-1" d="M406.8,757.77c9,32.65-2.18,82.17,8.72,114.23,6.18,18.2,21.6,31.62,37.46,42.47,15.35,10.49,51.81,25.81,51,48-.23,5.9-3.23,11.26-5.64,16.64a88.65,88.65,0,0,0-7.27,27.31c-1,9.69-.07,20.23,6,27.86,4.17,5.23,10.26,8.47,15.71,12.34,11.33,8.05,20.45,19.63,24,33.06s1.07,28.7-7.86,39.35c-15.63,18.64-45.18,19-62.94,35.61,42.06-21.08,86.28-14.14,129.82-19.22s87.59-14,125.43-36.1" transform="translate(552.43 -504)"/><path class="cls-1" d="M386.06,1004.55c14.68,39.37,117.42,46.64,126.68,42.06" transform="translate(552.43 -504)"/><path class="cls-1" d="M351.92,542.72c-28.66,12.94-51.86,46.55-56.94,77.59s1.25,70.24,6.72,101.21" transform="translate(552.43 -504)"/><path class="cls-1" d="M319.59,822.2C306.45,830.79,297.46,845,287,856.72c-5.44,6.06-19.57,16.29-21.33,24.24s.8,17.37,7.87,21.4c6.3,3.59,14.1,2.14,21.35,2.25s15.91,3.44,16.81,10.63c.69,5.5-3.59,10.26-7.68,14a219.53,219.53,0,0,1-67.05,42,77.26,77.26,0,0,0,40.7,12.44c15.3.24,30.33-4.1,44.55-9.72,20.44-8.09,42-21.85,45.4-43.56,2.68-16.91-9.71-38.34-18.61-53" transform="translate(552.43 -504)"/><path class="cls-1" d="M273.38,634.7c8.13,14.14,16.2,29.94,13.36,46-1.68,9.57-7.19,18.7-5.85,28.33,1,6.86,13.86,27.31,16.94,31.38" transform="translate(552.43 -504)"/><path class="cls-1" d="M297.83,778.69c-6.88,1.87-14,3.76-21.05,2.77s-14.11-5.63-15.64-12.6" transform="translate(552.43 -504)"/><path class="cls-1" d="M285.18,782.4c-1.79,2.19-3.7,4.74-3.35,7.55.41,3.24,3.72,5.66,3.76,8.92,0,2.1-1.34,4-1.28,6.12a13.78,13.78,0,0,0,.76,3.26,14.34,14.34,0,0,1-2,11.8,6.71,6.71,0,0,0-1.28,2.3,6,6,0,0,0,.54,3.17c3.36,9.39,3.78,20.37-.13,29.68-6.12,14.53-23.09,18.09-37.55,18.68A288.74,288.74,0,0,1,182,869.57c-14.31-2.57-28.73-6.34-41.16-14.62s-22.73-21.67-25.09-37.52" transform="translate(552.43 -504)"/><path class="cls-1" d="M389.18,820c-8.58,11-20.36,12.66-33.95,15.88-6.71,1.59-22.33-.44-24.76-12.1-1.37-6.55-2.09-15.66-.93-22.25" transform="translate(552.43 -504)"/><path class="cls-1" d="M101.7,749.57c-5.16-7.7-15.24-11.94-24.24-9.68s-16,11.2-15.47,20.46c.38,6.87,4.4,13,8.56,18.45,6.58,8.69,14.24,17.13,24.33,21.28s23.12,2.88,30-5.55" transform="translate(552.43 -504)"/><path class="cls-1" d="M218.26,739l1.67,1.47c7.09-1.67,51.15-15.51,45.44-25.54C258.07,702.08,223.71,743.74,218.26,739Z" transform="translate(552.43 -504)"/><path class="cls-1" d="M260.46,739.9c-8.1,2.79-18.5,12.06-27.46,7.58C242.22,745.12,251.44,743,260.46,739.9Z" transform="translate(552.43 -504)"/><path class="cls-1" d="M50.29,590.53C118,625,197.4,635.79,273.38,634.7c6.95-.11,15.07-7.28,21.07-10.81" transform="translate(552.43 -504)"/><path class="cls-1" d="M299.59,601.59c-53.11-50.51-129.46-81.32-202.74-81.91-19.81-.16-40.23,1.87-57.76,11.08S7.4,557.63,7,577.44" transform="translate(552.43 -504)"/><path class="cls-1" d="M7,577.44c-8.95,3.47-21,20.3-24.49,29.23s-4.42,18.66-5,28.24a539.36,539.36,0,0,0-.67,56.15c.58,14.57,1.88,29.58,8.64,42.49,4.84,9.28,12.23,16.94,18.25,25.5S14.55,777.88,13,788.23c-.62,4.25-2.29,8.33-2.44,12.62-.28,7.92,4.8,15.26,11.28,19.82,10.12,7.12,27.15,16.86,37,5.22a79.7,79.7,0,0,0,17.37-37" transform="translate(552.43 -504)"/><path class="cls-1" d="M193.65,631.05c15.87,19.46,10.51,57.15-2.47,78.65-6.92,11.46-18.13,23-14.71,36,1.41,5.34,5.19,9.7,7.63,14.65s3.21,11.64-.8,15.45a14.08,14.08,0,0,1-5.38,2.88c-9.88,3.32-22,2.83-29.31-4.58-4.3-4.35-7-11-12.92-12.57-4.71-1.3-15.11,4.47-20,4.6s-17-12.71-14-16.56" transform="translate(552.43 -504)"/><path class="cls-1" d="M37.49,829.69a335.6,335.6,0,0,0,68.4,100.18L63.21,967.42a4.55,4.55,0,0,1-2.79,1.46,4.52,4.52,0,0,1-3-1.79,496.7,496.7,0,0,1-58-73.25c-8.5-13.09-16.45-26.75-20.89-41.72-2.07-7-3.36-14.3-2.19-21.46C-20.75,812.77-4,801,11.38,791.34" transform="translate(552.43 -504)"/><path class="cls-1" d="M97.43,937.23a122.89,122.89,0,0,0,13.83,60.38c5.64,10.79,12.86,20.69,18.68,31.38s21.78,49.41,21.21,61.57" transform="translate(552.43 -504)"/><path class="cls-1" d="M-23.54,843.21c-13.53-1.43-43.75-1.49-54.5,6.85-6.61,5.12-10.41,13-15.77,19.39-6.42,7.66-15,13.15-23.25,18.76-27,18.32-53.84,41.93-60,73.94-4.94,25.78,4.6,52.25,2.77,78.44-.66,9.48-2.82,18.89-2.36,28.38.49,9.86,3.77,19.35,7.26,28.59,23.22,61.43,56.78,118.33,90.17,174.88" transform="translate(552.43 -504)"/><path class="cls-1" d="M-78.95,1271.87c9.82,24.16-.06,52.47,7.67,77.39,1,3.35,2.39,6.64,2.82,10.12.48,3.89-.23,7.82-.93,11.68l-9.84,53.86c-.79,4.3-8.53,6.46-12.64,5" transform="translate(552.43 -504)"/><path class="cls-1" d="M-79.23,1424.92c18.72-2.45,34.13,2.47,52.9,4.55,24.42,2.72,48.31,9.25,72.75,11.75,25.18,2.58,50.9.89,75.55,6.63,10.73,2.5,21.12,6.38,32,8.35,12.67,2.31,25.68,2,38.47,3.61,23,3,44.69,12.23,66,21.41l3.95,1.7" transform="translate(552.43 -504)"/><path class="cls-1" d="M-78.95,1271.87c18.21,27.63,53.2,52,71.41,79.66,8.53,12.94,17.11,26,27.55,37.39A148.93,148.93,0,0,0,90.54,1432c16.71,4.54,34.05,6.11,51.3,7.67,43.22,3.89,78.43,11,121.65,14.86" transform="translate(552.43 -504)"/><path class="cls-1" d="M165,1302a2437.81,2437.81,0,0,1-13.28-337.22c11,41.33,52.39,71.52,95.17,72,6.86.09,15.68.73,17.72,7.28.69,2.22.32,4.61,0,6.92-4.47,33.24,3.48,66.71,7.45,100a423.59,423.59,0,0,1-4.53,129.29A318.31,318.31,0,0,1,351,1324.75c-16.94-2.28-34.09,1.45-51.19,1.48-15.59,0-31-3-46.29-6l-65.05-12.88C178.86,1305.41,174.53,1304.12,165,1302Z" transform="translate(552.43 -504)"/><path class="cls-1" d="M380.94,1370.62c-1.44-14.26,6-35.48,17-44.6-15.54-.7-31.39-.56-46.93-1.27" transform="translate(552.43 -504)"/><path class="cls-1" d="M391.73,1332.9a483.38,483.38,0,0,1,67.22-1c7.14.43,14.31,1,21.44.48,17.53-1.36,49.69-16.42,67.18-14.71" transform="translate(552.43 -504)"/><path class="cls-1" d="M387.72,1371.2c26.31,14.1,57.48,32.77,80.42,51.87,7.53,6.27,14.9,13.2,24.12,16.53,6.23,2.26,11.22,9.61,15.69,14.16,6.12,6.23,11.06,9.79,20.37,9.67,5.84-.07,11.57-1.51,17.19-3.07,4-1.1,8-2.3,11.52-4.56s6.36-5.75,7-9.85a27.59,27.59,0,0,0,17.12-25.64,26.62,26.62,0,0,0,9.59-23,15.72,15.72,0,0,1-.18-4.16,13.77,13.77,0,0,1,.92-2.9,41.52,41.52,0,0,0,2.72-14.29c.05-3.82,2.54-6.38-.81-8.23" transform="translate(552.43 -504)"/><path class="cls-1" d="M791.4,1218c-9.61-5.12-56.64-4-67.58-4.76-8.34-.54-16.21-3.85-24.27-6-17.87-4.82-36.7-4.07-55.19-3.29-11.34.48-22.91,1-33.51,5.06s-18,5.75-20.33,16.84c-2.7,12.54,8.87,24.84,10.09,24.06,18.32-11.72,22.68-17.6,33.76-25.73" transform="translate(552.43 -504)"/><path class="cls-1" d="M634.37,1224.16c-18.63,13.14-41.46,32.5-60.1,45.64-3.8,2.69-7.72,5.49-10.08,9.5s-.46,14.8,2.68,18.24" transform="translate(552.43 -504)"/><path class="cls-1" d="M746.77,937c16.72,25.58,35.62,56.9,48,84.83,6.44,14.5,11.66,29.49,17.18,44.36a1160.92,1160.92,0,0,0,59.42,133.68c8.75,16.76,18,33.54,22.53,51.9s3.75,38.92-6.58,54.76c-4.28,6.58-10.25,12.24-17.52,15.2-7,2.84-14.68,3.08-22.2,3-22.72-.28-45.43-3.26-68.09-1.66-14.75,1-31.1,9-45.81,12.7-17.19,4.29-34.94,9.21-48.27,21.56-5.93,5.5-10.63,12.16-16.08,18.13-3.14,3.45-6.69,6.77-11.13,8.2s-9.94.48-12.62-3.33c-3-4.27-1.53-10.17.56-15a75.33,75.33,0,0,1,16.49-23.8" transform="translate(552.43 -504)"/><path class="cls-1" d="M847.66,1200.51c-30.38-.56-57.83,17.06-82.34,35s-49.69,37.61-79.73,42.17c-16.36,2.48-32.84-.81-49.14,1.08-11.2,1.31-26.56,1.65-35.84,8.81-3.57,2.75-6.3,6.43-9,10.08q-13.89,19.13-26.48,39.15c-1.26,2-2.55,4.31-1.92,6.58a8,8,0,0,0,3.33,3.93,46.81,46.81,0,0,0,20.23,8.3" transform="translate(552.43 -504)"/><path class="cls-1" d="M-46.51,1465.15c-31.88-31.71-73.31-55.59-118.13-59.16s-92.62,15.86-116.2,54.14c-12,19.47-17.22,42.23-22.27,64.52q-50.82,224.52-101.65,449.05c-2.85,12.6-13.16,46.14-16,58.75" transform="translate(552.43 -504)"/><path class="cls-1" d="M-405.83,2058.31c-4.41-3.09-8.91-6.27-12.07-10.63s-4.81-10.2-2.87-15.23c3.53-9.18,15.75-10.61,25.56-10.12a342.23,342.23,0,0,1,57.19,7.75c17,3.77,34.18,9.13,47.43,20.38s21.7,29.65,16.85,46.34" transform="translate(552.43 -504)"/><path class="cls-1" d="M-273.74,2096.8c14.94-30.24,28.67-61.78,36.34-94.63l84.15-360.37" transform="translate(552.43 -504)"/><path class="cls-1" d="M209.47,1710.72c-51.69-.57-170.15-6.06-221.83-6.64-27.36-.31-55.12-.67-81.38-8.35s-50.53-15.19-62.85-39.62" transform="translate(552.43 -504)"/><path class="cls-1" d="M-405.83,2058.31c3.13,16.74,5.26,35.64,4.48,52.66-.31,6.78-1.49,14.52-7.2,18.2-3.3,2.13-7.46,2.39-11.06,4-9.27,4.07-12.46,15.31-15.31,25a210.45,210.45,0,0,1-89.91,118.33c-13.47,8.38-30.26,20-26.58,35.46,3.57,15,23.28,18.33,38.71,17.71,81.6-3.26,160.53-28.42,238.28-53.37,3.16-1,6.45-2.1,8.81-4.43,3.93-3.87,4.26-10,4.35-15.5.44-28.38.76-57.48-8.81-84.2-4.92-13.74-12.39-26.62-15.54-40.87s.43-25.44,11.87-34.51" transform="translate(552.43 -504)"/><path class="cls-1" d="M93,2097.14c-9.87,29.74-15.41,65.4-16.84,96.69a77,77,0,0,0,49.15,8.09c2.94-.51,5.91-1.19,8.89-1,4.1.3,7.87,2.24,11.52,4.14L212.53,2240c5.21,2.72,10.53,5.48,16.33,6.48,5.35.93,10.84.3,16.21-.57a187.48,187.48,0,0,0,36.08-9.58c5.87-2.2,11.83-4.85,15.93-9.59,9.68-11.21,4.68-29.4-5.6-40.06s-24.45-16.53-36.58-25c-38-26.62-52.27-82.1-31.9-123.76q-47.42-14.16-93.59-32.12c-12.17-4.73-28.64,32.49-28.92,40.39-.22,6.19,2.69,11.8,2.45,18C102.51,2075.25,96.43,2086.81,93,2097.14Z" transform="translate(552.43 -504)"/><path class="cls-1" d="M473.24,1427.37c2.42,39.6-9,100-21.51,137.66-11,33-27.4,63.9-43.24,94.87A3224.13,3224.13,0,0,0,262.6,1989.39c-5.41,14.33-10.72,28.71-16.56,42.88-1.14,2.77-2.58,5.81-5.39,6.84-2,.72-4.17.25-6.23-.22-41.37-9.63-83.81-19.71-118.87-43.69-4.69-3.2-9.4-6.85-11.82-12-4.81-10.18.81-22,6.18-31.87a1245.44,1245.44,0,0,0,115.63-300.4c3.77-15.56,7.31-31.38,14.53-45.66,5.48-10.83,13-20.59,17.76-31.75,15.76-36.8-1.08-79.55,5.66-119,8.59-50.38,73.53-89.8,124.23-83.32" transform="translate(552.43 -504)"/><path class="cls-1" d="M337.89,1109.76c-32.6,64,3.32,125.6,36.6,138.92,40.08,16,169.94,20,226.12,1.21" transform="translate(552.43 -504)"/><path class="cls-1" d="M285,796.48c-10.89,5-23.92,9.76-31.92,18.13" transform="translate(552.43 -504)"/><path class="cls-1" d="M284.31,805c-7.87,4.53-22,8.62-31.22,9.62" transform="translate(552.43 -504)"/><path class="cls-1" d="M281.81,822.35c-9.49,1.73-19.68-5.62-28.72-7.74" transform="translate(552.43 -504)"/><path class="cls-1" d="M258.8,775.73a39,39,0,0,1-2.47,22.08" transform="translate(552.43 -504)"/><path class="cls-1" d="M389.18,820c-8.43-1-26.43-1.52-34.87-2.46-3.48-.4-7-.8-10.26-2.16-6.25-2.61-10.54-8.36-14.51-13.85" transform="translate(552.43 -504)"/><path class="cls-1" d="M389.18,820l-26.92,1.91c-7.05.5-14.3,1-21-1.2A17.9,17.9,0,0,1,329,805.54" transform="translate(552.43 -504)"/><path class="cls-1" d="M306.41,676c6.73,9,15.67,19.66,24.58,26.49a18.32,18.32,0,0,1,4.34,4.08,5.69,5.69,0,0,1,.66,5.66c-4.72-.62-8.94-3.22-12.76-6.06-7.5-5.57-12.93-14.45-18.37-22" transform="translate(552.43 -504)"/><path class="cls-1" d="M367.51,712.93a9.58,9.58,0,0,0-7.74,1.9,6.34,6.34,0,0,0,1.53,5.88,15.12,15.12,0,0,0,5.22,3.53,51.73,51.73,0,0,0,9.82,3.43" transform="translate(552.43 -504)"/><path class="cls-1" d="M311.78,706c-1.42,5.49,1.46,11.37,5.76,15.06s9.8,5.61,15.2,7.34" transform="translate(552.43 -504)"/><path class="cls-1" d="M332.74,728.42c-4-.36-10.94.47-14.62-1.17s-6.71-5.21-6.71-15.06" transform="translate(552.43 -504)"/><path class="cls-1" d="M378.21,739.53a61.65,61.65,0,0,0,16.89,14.29c3.09,1.78,6.78,3.31,10.11,2.06" transform="translate(552.43 -504)"/><path class="cls-1" d="M377.9,739.89a26.44,26.44,0,0,0,29.8,21.16" transform="translate(552.43 -504)"/><path class="cls-1" d="M364.64,793.33c-1.25,3-4.21,5.08-7.35,6a28.6,28.6,0,0,1-9.73.63c-3.26-.21-6.52-.53-9.76-1-5.37-.72-10.87-1.82-15.33-4.89s-7.67-8.55-6.57-13.85c.56-2.74,2.16-5.12,3.73-7.43,11.69-17.22,18.78-31.89,16.85-52.61" transform="translate(552.43 -504)"/><path class="cls-1" d="M869.82,1321.71c44.41,33,79.84,79.38,114,122.93" transform="translate(552.43 -504)"/><path class="cls-1" d="M451.73,1565c7.71,26.7,22.48,71,32.76,96.84,5.41,13.59,11.5,27.52,22.45,37.24,9.44,8.37,21.65,12.84,33.69,16.64a476.7,476.7,0,0,0,240.7,11.79,404.49,404.49,0,0,0,119.91,189.83c34.22,30.27,73.36,54.5,108.38,83.85,13.19,11.06,25.85,22.88,40.32,32.21,22.7,14.63,48.82,22.44,74.74,29.15,16,4.14,16.86,3.65,28.15-8.54,10.41-11.25,20.57-22.74,30.66-34.27q59.4-67.86,112.87-140.64c10.68-14.54,21.21-29.26,33.59-42.39,32.2-34.14,75.48-55.93,119.86-71.21,18-6.2,36.49-11.47,55.43-13.7,53.17-6.28,108.91,11.32,159.71-5.59,12.52-31.11,29.35-70.35,41.87-101.47,2.34-5.8,4.57-12.81,1-17.94-2.47-3.52-6.94-4.91-11.08-6.08-28-7.91-58.28-15.76-85.58-5.7-10,3.69-19.56,9.77-30.22,9.74-7.77,0-15.1-3.31-22.26-6.33a387.33,387.33,0,0,0-209.43-25.59c-9.81,1.55-20.61,3.29-29-1.95-4.32-2.69-7.43-6.9-10.77-10.74-36.23-41.56-102-41.07-146.09-74.13-11.37-8.52-21.21-19.22-33.75-25.87-21.56-11.44-47.4-9.24-71.72-11.19-26.26-2.11-50.56-12.34-74-24.35" transform="translate(552.43 -504)"/><path class="cls-1" d="M332.74,582c19.18-53.76,102.78-40.29,132.09-29.7a120.06,120.06,0,0,1,67.22,61.47c19.32,41.48,14.32,93,41.24,130,20,27.47,56.29,45,62.9,78.31,6.25,31.46-17.71,63.65-9.69,94.71,6,23.34,28.14,38.4,49,50.4,23.11,13.28,63.74,14.16,79.4,44.64" transform="translate(552.43 -504)"/><path class="cls-1" d="M738.37,1080.11c28.85,19,70.48,57.92,61.71,99.67-3.81,18.09-7.09,36-8.68,38.22" transform="translate(552.43 -504)"/><path class="cls-1" d="M151.67,964.73c-7.85-22.49-5.78-51,4.37-72.57,3.34-7.08,18.6-19.84,25.91-22.59" transform="translate(552.43 -504)"/><path class="cls-1" d="M633.18,1334.44l-11.24,21c-2.83,5.3-5.75,11.26-4.18,17,1.42,5.23,6.53,9,11.91,9.61s10.84-1.63,14.87-5.26" transform="translate(552.43 -504)"/><path class="cls-1" d="M609.16,1319.08a248.14,248.14,0,0,0-18.3,30c-1.69,3.29-3.36,6.84-3,10.51.61,5.91,6.51,10.13,12.4,10.87s11.75-1.16,17.38-3" transform="translate(552.43 -504)"/><path class="cls-1" d="M526.45,1710.72c-26.51,6.42-63.49,9.27-90.76,8.46-16.27-.49-38.8-.79-54.73-4.16" transform="translate(552.43 -504)"/><path class="cls-1" d="M377.24,879.94c19.71,20.14,33.45,51.31,30.69,79.36A75.1,75.1,0,0,1,402,982.76c-10.53,23.41-34.67,37.83-59,45.9-5.46,1.81-11.2,3.48-15.47,7.32-6.47,5.82-8.16,15.77-5.57,24.08s8.84,15.07,16,20a57.88,57.88,0,0,1-37.21-23.19c-3.71-5.19-6.61-11.33-6.21-17.7.47-7.59,5.59-14.24,11.83-18.59s13.54-6.82,20.65-9.52c14-5.3,28.15-12.22,36.8-24.4s9.65-31-1.48-40.93" transform="translate(552.43 -504)"/><path class="cls-1" d="M97.75,757.81c-4.35-3.46-11-2.83-15.47.53a8.12,8.12,0,0,0-2.9,3.59,8.36,8.36,0,0,0,.78,6.28c.94,2,2.23,3.73,3.09,5.72" transform="translate(552.43 -504)"/><path class="cls-1" d="M102.24,769.59a11,11,0,0,0-6.92,6.63A5.49,5.49,0,0,0,95,779.1a11.43,11.43,0,0,0,.84,2.24,10.82,10.82,0,0,1-.63,9.43" transform="translate(552.43 -504)"/><path class="cls-1" d="M693.17,1264.81c-13,8.52-17.92,9.72-26.92,13.81" transform="translate(552.43 -504)"/><path class="cls-1" d="M660.93,1248.25c-5.41,4.71-6.85,5.47-13.67,7.67-20.11,6.47-32.32,20.82-46.65,31.68" transform="translate(552.43 -504)"/><path class="cls-1" d="M595.76,1292.33c-14.92-2.7-39,6.64-46.6,19.77-1,1.71-1.85,3.62-1.59,5.57s15.7,19.61,17.61,19.16" transform="translate(552.43 -504)"/><path class="cls-1" d="M398.86,1325.88a11.34,11.34,0,0,1,.6,6.07" transform="translate(552.43 -504)"/><path class="cls-1" d="M-283.29,2115.66a474,474,0,0,1-75.07,26.44c-11.1,2.88-22.47,5.38-33.93,4.89s-23.15-4.26-31.24-12.39" transform="translate(552.43 -504)"/><path class="cls-1" d="M-400.87,2114.19a34.68,34.68,0,0,1-9.2,28.37" transform="translate(552.43 -504)"/><path class="cls-1" d="M189.07,2068.07a305.29,305.29,0,0,1-78.4,8.64,62.15,62.15,0,0,1-10.65-.89" transform="translate(552.43 -504)"/><path class="cls-1" d="M189.07,2068.07c11.75,0,23.49-.53,24.69,8.7" transform="translate(552.43 -504)"/><path class="cls-1" d="M568.27,1412.78c4.25,1.1,9.49,4.69,12.84,7.53" transform="translate(552.43 -504)"/><path class="cls-1" d="M553.3,1432.59a24.6,24.6,0,0,1,10.87,13" transform="translate(552.43 -504)"/><path class="cls-1" d="M573.06,1377.82a43.45,43.45,0,0,1,17.36,13.24" transform="translate(552.43 -504)"/></svg>