<?xml version="1.0" encoding="utf-8"?>
<!-- Generator: Adobe Illustrator 23.0.3, SVG Export Plug-In . SVG Version: 6.00 Build 0)  -->
<svg version="1.1" id="svg1165" xmlns="http://www.w3.org/2000/svg" xmlns:xlink="http://www.w3.org/1999/xlink" x="0px" y="0px"
	 viewBox="0 0 757.1 2102.1" style="enable-background:new 0 0 757.1 2102.1;" xml:space="preserve">
<title>dancing</title>
<path id="path1111" class="st0" d="M466.1,348.7c12.3,1.8,27.1,5.8,38.3,12.2c10.6,6,19.5,16.1,29.6,22.6
	c22.9,14.8,54.2,7.3,79.5,14.7c19.6,5.8,13.9,21.3,6.7,35.5c7.9,13.5,29.9,5.4,27.5,19.3c10.3,0,12.6,6.4,16.3,21.5
	c2.7,10.7,10.8,10.9,19.5,18.2c6.5,5.4,15.3,12.7,15.8,21.6c0.5,9.1-4.2,16.5-10,23.3c-25.2,29.3-68.4,59.1-68.4,100.7
	c0,26.4-4.3,53.5-2.7,79.7c0.8,11.6-0.8,29.4,0.9,40.7c2,13.1,4.5,26,7.1,39c4.8,23.7,9.8,50.1,18.6,72.7c8.2,21,21.4,43,32.8,62.8
	c11.8,20.6,28.3,37.5,41.4,57.6c14.2,21.8,35.1,51.2,35.6,77.9c0.3,17.1,4.2,36.2,0,52.7c-3.9,15.3-10.2,31.4-18.6,44.3
	c-16.8,25.7-40.6,47.9-56.9,74.6c-33.7,55.3-52.1,124.6-67.4,187.3c-14,57.7-27.7,114.5-45.5,171c-9.5,30.1-24.1,59.1-29.8,90.3
	c-5.2,28.7-1.7,57.9-4.8,86.8c-3.1,28.6-10.7,56.5-15,84.9c-4,26.5-3.4,54.4-9.4,80c-5.4,23.1-11.6,45.8-15.2,70
	c-4.3,28.6-22,52.9-25.3,81.1c-2.4,20.3-23.7,5.6-24.6-6.6c-0.7,0.5-1.5,1.4-2.3,1.9c-20.2-7.4-17-33.1-15.3-50.3
	c2-19.7,2.3-39.9,3.3-59.4c1-20.6-3.4-39.5-4.4-60c-1-20.2-2.2-39.9-1.1-60.5c1-18.9,2.8-46.1,14.4-61.6
	c4.4-52.7-21.4-107.6-30.5-161c-5.5-32.4-12.2-65-17-97.5s-4.1-65.3-8.9-97.6c-3.9-26-8.9-53.6-6.6-80c2.2-24.7,6.1-49.8,8.6-74.7
	c5.3-52.8,7.1-107,15-159.3c2.2-14.5,2.8-29.3,5-43.9c3.9-25.8,6.4-50.4,8.6-76c2-22.5,5-49.9-6.4-70.5"/>
<path id="path1113" class="st0" d="M516.8,695.7c-76.8-22.3-105.8,61.6-130.2,116.6c-29.1,65.7-49.7,134.1-49.7,206
	c0,36.3,3.3,72.2,3.3,108.3c0,12.7-4,28.2-5.6,41.1c-0.8,6.5,0.4,13-2.4,18.9s-7.5,6.2-6.5,13.4c0.7,4.5,6.9,8.3,7.8,15
	c0.7,5.7,0.9,10.8-1.6,16.6c-2.4,5.5-9,9.6-11.2,14.4c-3,6.6,0.1,10.3-0.6,17.8c-1.4,14.3-9.8,18.5-18.2,27.2
	c-9.3,9.5-5.3,23.3-11.8,33.8c-18.3,29.5-45.5,57.4-68.7,84c-21.2,24.3-47.9,61.7-82.1,64.6c2.5,2,5,3.8,8.6,4.4
	c0.5,11.7-11.1,17.5-17.9,25.3c-8.1,9.4-16.7,20.2-23.9,30.3c-40.8,56.7-63.5,142-63.5,211.6c0,100.4,54.5,190.5,72,287.9
	c3.1,17.5,11.7,51.4,4.7,67.7"/>
<path id="path1115" class="st0" d="M-108.5-337.1"/>
<path id="path1117" class="st0" d="M-108.5-337.1"/>
<path id="path1119" class="st0" d="M-108.5-337.1"/>
<path id="path1121" class="st0" d="M734.9,1015.3c-28.7-1-58.6,11.4-86.9,14.2c-24.4,2.4-58,21.7-77.5,18.2"/>
<path id="path1123" class="st0" d="M401.3,1088.7c-21.4,2.6-41.4,8.4-61.3,0.7"/>
<path id="path1125" class="st0" d="M147.9,1477.6c19.3,8.8,54.9,14.3,74.1,26.2c20.9,13,39.7,29.5,61.2,42.1
	c38.2,22.4,92.3,49.6,121.9,80.8"/>
<path id="path1127" class="st0" d="M533.3,1745.3c-21.7-102.5,0.8-221.8-4.4-327.4c-2.6-53.2-3.5-102.7,4.3-154.5
	s19.5-101.8,27.9-152.4c9.5-57,9.5-115,53.7-158.8"/>
<path id="path1129" class="st0" d="M468.8,1958.8c-13,13.1-13.2,37-15,54.7c-2.4,23.4-11.8,47.7-11.6,71.4"/>
<path id="path1131" class="st0" d="M487.5,1964.9c-10.7,21.1-10.2,78.4-14.3,101"/>
<path id="path1133" class="st0" d="M693,533c-11.3,6.1-30.7,14.8-42.6,21c-13.9,7.1-28.2,13.1-41.9,20.2
	c-22.6,11.8-55.7,22.9-77.9,3.3"/>
<path id="path1135" class="st0" d="M504,576.6c-8,12.9-26.9,7.6-27.9,7.3"/>
<path id="path1137" class="st0" d="M611.8,440.6c-4.1,4.8-10.9,3.2-15.3-5.2"/>
<path id="path1139" class="st0" d="M478.8,413.1c5.1-10.5,1.6-22.7,6.5-32.9c3.7-7.8,13.9-21.6,22.4-17.4
	C511.5,362.1,491.7,388,478.8,413.1L478.8,413.1z"/>
<path id="path1141" class="st0" d="M535.9,404.3c-5.8,2.4-10.4,6.9-16.4,9.3s-12.5,3.5-18,4.9"/>
<path id="path1143" class="st0" d="M-108.5-337.1"/>
<path id="path1145" class="st0" d="M443.5,2065.9c-7.7-2.7-3.5,18.5-3.6,21"/>
<path id="path1147" class="st0" d="M467.8,2084.9c-1-6.4-5.6-6.4-6.9,0c-0.5,2.7-1.8,14.8-0.7,16.6"/>
<g class="glow">
	<path id="path1149_1_" class="st0" d="M528.2,379.2c40-40,36-107.2,16-147.2c0,40-42.5,43.1-62.5,73.1"/>
	<path id="path1153_1_" class="st0" d="M409.9,760.7C466,651.3,458.1,647.3,474.2,592c10-30,10-150,0-170c-20,20-60,10-90,40
		C294.2,532,209.9,760.7,409.9,760.7"/>
	<path id="path1155_1_" class="st0" d="M164.2,432c30-80,60-90,130-110s130-20,160-70c20-20,30-50,30-80c30,90-20,220-100,290"/>
	<path id="path1157_1_" class="st0" d="M409.9,760.7C277.6,786.8,204.2,662,184.2,612c-50-150-10-270,50-400c50-100,180-130,210-130
		c-20,60-40,130,10,170"/>
	<path id="path1159_1_" class="st2" d="M409.9,760.7C242.2,805.7,94.2,652,84.2,402c0-100,40-190,90-280c40-47,100-82,160-100
		c-30,29-30,68-20,100"/>
	<path id="path1161_1_" class="st0" d="M174.2,122c10-80,20-90,30-120c-160,170-220,260-200,410c10,150,205.7,448.7,405.7,348.7"/>
</g>
<path class="st0" d="M660.3,460.9c-8.9,1-17.2,2.3-25.1,6.6c4.3-6,7.2-15.5,7.8-22.9"/>
<path class="st0" d="M647.8,453c-1.5,1.9-11.1,12.5-12.6,14.5"/>
</svg>
