<svg version="1.1" viewBox="0 0 762.97 2100" xmlns="http://www.w3.org/2000/svg">
 <defs>
  <style>.a{fill:none;stroke:#000;stroke-miterlimit:10;}</style>
  <filter id="inset" x="-.9" y="-.25" width="2.71" height="1.51" style="color-interpolation-filters:sRGB">
   <feMorphology in="SourceAlpha" operator="dilate" radius="8.5999999999999996" result="result1"/>
   <feGaussianBlur in="result1" result="result0" stdDeviation="9.5999999999999996"/>
   <feDiffuseLighting surfaceScale="-5">
    <feDistantLight azimuth="225" elevation="45"/>
   </feDiffuseLighting>
   <feComposite in2="result0" operator="in" result="result91"/>
   <feComposite in="SourceGraphic" in2="result91" result="result94"/>
   <feFlood flood-color="rgb(255,205,0)" flood-opacity="0" result="result92"/>
   <feBlend in2="result92" mode="multiply" result="result93"/>
   <feComposite in2="result94" operator="in" result="result95"/>
   <feComposite in="result95" in2="SourceGraphic" operator="over"/>
  </filter>
 </defs>
 <title>dancing</title>
 <path class="a" transform="translate(-102.66 -339.11)" d="m574.54 685.8c12.32 1.84 27.14 5.76 38.31 12.16 10.57 6 19.53 16.08 29.64 22.6 22.93 14.78 54.21 7.27 79.47 14.74 19.63 5.81 13.9 21.26 6.74 35.5 7.86 13.49 29.9 5.4 27.5 19.33 10.25 0 12.56 6.35 16.32 21.47 2.66 10.72 10.77 10.93 19.48 18.16 6.53 5.43 15.32 12.74 15.84 21.58.53 9.14-4.15 16.53-10 23.27-25.21 29.26-68.43 59.1-68.39 100.72 0 26.41-4.35 53.5-2.66 79.68.75 11.62-.83 29.38.89 40.73 2 13.12 4.45 26 7.08 39 4.82 23.7 9.8 50.08 18.57 72.65 8.17 21 21.38 43 32.79 62.81 11.83 20.59 28.33 37.52 41.39 57.58 14.17 21.77 35.1 51.22 35.63 77.89.35 17.07 4.2 36.15 0 52.67-3.86 15.26-10.21 31.38-18.63 44.28-16.8 25.74-40.6 47.93-56.88 74.62-33.73 55.33-52.13 124.58-67.41 187.35-14 57.69-27.72 114.52-45.54 171-9.49 30.08-24.14 59.07-29.75 90.29-5.16 28.72-1.65 57.93-4.78 86.81-3.1 28.62-10.7 56.46-15.05 84.86-4 26.51-3.44 54.45-9.38 80-5.37 23.13-11.56 45.81-15.24 70-4.34 28.56-22 52.88-25.29 81.06-2.37 20.33-23.71 5.58-24.65-6.55-.69.49-1.49 1.4-2.28 1.94-20.19-7.4-17-33.14-15.26-50.35 2-19.73 2.34-39.86 3.33-59.41 1-20.62-3.41-39.54-4.42-60-1-20.17-2.22-39.88-1.14-60.52 1-18.9 2.78-46.11 14.44-61.63 4.35-52.65-21.39-107.57-30.52-161-5.54-32.39-12.24-65-17-97.47s-4.06-65.33-8.88-97.64c-3.88-26-8.91-53.55-6.59-80 2.18-24.74 6.07-49.8 8.56-74.7 5.3-52.81 7.15-107 15-159.33 2.17-14.49 2.76-29.35 5-43.88 3.92-25.77 6.41-50.44 8.64-76 2-22.47 5-49.91-6.39-70.54" style="stroke:#ffd400"/>
 <path class="a" transform="translate(-102.66 -339.11)" d="m625.22 1032.8c-76.84-22.29-105.83 61.61-130.17 116.59-29.09 65.74-49.72 134.09-49.72 206 0 36.28 3.33 72.16 3.33 108.27 0 12.65-4 28.22-5.6 41.08-.8 6.47.36 13-2.41 18.88s-7.52 6.23-6.45 13.36c.68 4.51 6.93 8.28 7.76 15 .7 5.72.94 10.84-1.59 16.64-2.4 5.5-9 9.57-11.18 14.37-3 6.59.15 10.31-.61 17.8-1.44 14.29-9.8 18.53-18.24 27.2-9.26 9.51-5.33 23.35-11.77 33.75-18.29 29.54-45.52 57.45-68.71 84-21.24 24.28-47.93 61.68-82.06 64.63 2.48 2 5 3.77 8.57 4.41.52 11.7-11.13 17.5-17.85 25.29-8.12 9.42-16.67 20.22-23.9 30.28-40.75 56.73-63.51 142-63.54 211.57-.05 100.44 54.46 190.54 72 287.86 3.13 17.46 11.72 51.4 4.65 67.74" style="stroke:#ffd400"/>
 <path class="a" transform="translate(-102.66 -339.11)" d="m746.55 780.89c-.41 8.43-1.12 20.48-6.57 27.47a45.62 45.62 0 0016.3-3.64c3.8-1.59 10.39-2.87 12.56-5.54" style="stroke:#ffd400"/>
 <path class="a" transform="translate(-102.66 -339.11)" d="m728.46 757.43a14.91 14.91 0 00-.06-3.27c-3.55 0-10.08 6.54-8.44 9.93" style="stroke:#ffd400"/>
 <path class="a" transform="translate(-102.66 -339.11)" d="m611.69 755.59c4.64-7.35 1.87-18.2 7.67-24.77 6.84-7.76 15.22 3.1 20 7.58 3.8 3.53 7.32 5.57 11 1 1.35 8.68-9.76 14.31-16.9 15.4a112.29 112.29 0 01-12.94 1.57c-3.91.11-9.63 1.17-8.83-.78z" style="stroke:#ffd400"/>
 <path class="a" transform="translate(-102.66 -339.11)" d="m843.37 1352.4c-28.71-1-58.56 11.39-86.92 14.18-24.37 2.4-58 21.7-77.53 18.24" style="stroke:#ffd400"/>
 <path class="a" transform="translate(-102.66 -339.11)" d="m509.79 1425.8c-21.35 2.59-41.37 8.43-61.33.72" style="stroke:#ffd400"/>
 <path class="a" transform="translate(-102.66 -339.11)" d="m256.37 1814.7c19.27 8.79 54.93 14.27 74.06 26.15 20.86 13 39.73 29.48 61.18 42.09 38.19 22.44 92.32 49.55 121.86 80.8" style="stroke:#ffd400"/>
 <path class="a" transform="translate(-102.66 -339.11)" d="m641.71 2082.4c-21.65-102.47.85-221.77-4.39-327.4-2.63-53.18-3.47-102.72 4.31-154.53s19.49-101.76 27.89-152.39c9.45-57 9.47-115 53.66-158.81" style="stroke:#ffd400"/>
 <path class="a" transform="translate(-102.66 -339.11)" d="m577.24 2295.9c-13 13.12-13.2 37-15 54.72-2.4 23.38-11.78 47.67-11.61 71.43" style="stroke:#ffd400"/>
 <path class="a" transform="translate(-102.66 -339.11)" d="m596 2302c-10.68 21.06-10.2 78.45-14.25 101" style="stroke:#ffd400"/>
 <path class="a" transform="translate(-102.66 -339.11)" d="m801.49 870.07c-11.29 6.11-30.72 14.84-42.59 20.95-13.9 7.14-28.17 13.07-41.9 20.24-22.62 11.79-55.69 22.91-77.94 3.28" style="stroke:#ffd400"/>
 <path class="a" transform="translate(-102.66 -339.11)" d="m609.1 913.73c-8 12.88-26.86 7.58-27.87 7.29" style="stroke:#ffd400"/>
 <path class="a" transform="translate(-102.66 -339.11)" d="m720.27 777.72c-4.14 4.81-10.92 3.17-15.35-5.2" style="stroke:#ffd400"/>
 <path class="a" transform="translate(-102.66 -339.11)" d="m587.25 750.21c5.11-10.48 1.64-22.73 6.46-32.85 3.73-7.81 13.87-21.59 22.43-17.36 3.8-.83-15.99 25.11-28.89 50.21z" style="stroke:#ffd400"/>
 <path class="a" transform="translate(-102.66 -339.11)" d="m644.35 741.36c-5.76 2.43-10.43 6.86-16.37 9.32s-12.47 3.5-18 4.94" style="stroke:#ffd400"/>
 <path class="a" transform="translate(-102.66 -339.11)" d="m756.21 789.8a63.43 63.43 0 01-5.76 9.4c-2.57 3.48-7.5 6.17-10.47 9.16" style="stroke:#ffd400"/>
 <path class="a" transform="translate(-102.66 -339.11)" d="m552 2403c-7.67-2.68-3.49 18.46-3.65 21" style="stroke:#ffd400"/>
 <path class="a" transform="translate(-102.66 -339.11)" d="m576.28 2422c-1-6.45-5.64-6.36-6.88 0-.53 2.7-1.82 14.8-.66 16.62" style="stroke:#ffd400"/>
 <g>
  <path class="a" transform="translate(-100,-340)" d="m630 710c40-40 40-100 20-140 0 40-50 60-70 90" style="fill:none;filter:url(#a);stroke-miterlimit:10;stroke:#ffd400"/>
  <path class="a" transform="translate(-100,-340)" d="m570 790c30 90 10 150-10 170" style="fill:none;stroke-miterlimit:10;stroke:#ffd400"/>
  <path class="a" transform="translate(-100,-340)" d="m510 1100h30c40-140 30-100 20-140-10-30-30-80-10-120 10-30 40-60 30-80-20 20-60 10-90 40-90 70-180 300 20 300" style="fill:none;stroke-miterlimit:10;stroke:#ffd400"/>
  <path class="a" transform="translate(-100,-340)" d="m270 770c30-80 60-90 130-110s130-20 160-70c20-20 30-50 30-80 30 90-10 230-100 290" style="fill:none;stroke-miterlimit:10;stroke:#ffd400"/>
  <path class="a" transform="translate(-100,-340)" d="m510 1100c-120 0-200-100-220-150-50-150-10-270 50-400 50-100 180-130 210-130-20 60-40 130 10 170" style="fill:none;stroke-miterlimit:10;stroke:#ffd400"/>
  <path class="a" d="m410 760c-110 100-310-100-320-350 0-100 40-200 90-290a340 340 0 01160-100c-30 30-30 70-20 100" style="fill:none;stroke-miterlimit:10;stroke:#ffd400"/>
  <path class="a" transform="translate(-100,-340)" d="m280 460c10-80 20-90 30-120-160 170-220 260-200 410 10 150 200 450 400 350" style="fill:none;stroke-miterlimit:10;stroke:#ffd400"/>
 </g>
</svg>
