<svg xmlns="http://www.w3.org/2000/svg" viewBox="0 0 1155.02 2096.19"><defs><style>.a{fill:none;stroke:#000;stroke-miterlimit:10;}</style></defs><title>dancing</title><path class="a" d="M574.54,685.8c12.32,1.84,27.14,5.76,38.31,12.16,10.57,6,19.53,16.08,29.64,22.6,22.93,14.78,54.21,7.27,79.47,14.74,19.63,5.81,13.9,21.26,6.74,35.5,7.86,13.49,29.9,5.4,27.5,19.33,10.25,0,12.56,6.35,16.32,21.47,2.66,10.72,10.77,10.93,19.48,18.16,6.53,5.43,15.32,12.74,15.84,21.58.53,9.14-4.15,16.53-10,23.27-25.21,29.26-68.43,59.1-68.39,100.72,0,26.41-4.35,53.5-2.66,79.68.75,11.62-.83,29.38.89,40.73,2,13.12,4.45,26,7.08,39,4.82,23.7,9.8,50.08,18.57,72.65,8.17,21,21.38,43,32.79,62.81,11.83,20.59,28.33,37.52,41.39,57.58,14.17,21.77,35.1,51.22,35.63,77.89.35,17.07,4.2,36.15,0,52.67-3.86,15.26-10.21,31.38-18.63,44.28-16.8,25.74-40.6,47.93-56.88,74.62-33.73,55.33-52.13,124.58-67.41,187.35-14,57.69-27.72,114.52-45.54,171-9.49,30.08-24.14,59.07-29.75,90.29-5.16,28.72-1.65,57.93-4.78,86.81-3.1,28.62-10.7,56.46-15.05,84.86-4,26.51-3.44,54.45-9.38,80-5.37,23.13-11.56,45.81-15.24,70-4.34,28.56-22,52.88-25.29,81.06-2.37,20.33-23.71,5.58-24.65-6.55-.69.49-1.49,1.4-2.28,1.94-20.19-7.4-17-33.14-15.26-50.35,2-19.73,2.34-39.86,3.33-59.41,1-20.62-3.41-39.54-4.42-60-1-20.17-2.22-39.88-1.14-60.52,1-18.9,2.78-46.11,14.44-61.63,4.35-52.65-21.39-107.57-30.52-161-5.54-32.39-12.24-65-17-97.47s-4.06-65.33-8.88-97.64c-3.88-26-8.91-53.55-6.59-80,2.18-24.74,6.07-49.8,8.56-74.7,5.3-52.81,7.15-107,15-159.33,2.17-14.49,2.76-29.35,5-43.88,3.92-25.77,6.41-50.44,8.64-76,2-22.47,5-49.91-6.39-70.54" transform="translate(289.4 -342.96)"/><path class="a" d="M625.22,1032.79c-76.84-22.29-105.83,61.61-130.17,116.59-29.09,65.74-49.72,134.09-49.72,206,0,36.28,3.33,72.16,3.33,108.27,0,12.65-4,28.22-5.6,41.08-.8,6.47.36,13-2.41,18.88s-7.52,6.23-6.45,13.36c.68,4.51,6.93,8.28,7.76,15,.7,5.72.94,10.84-1.59,16.64-2.4,5.5-9,9.57-11.18,14.37-3,6.59.15,10.31-.61,17.8-1.44,14.29-9.8,18.53-18.24,27.2-9.26,9.51-5.33,23.35-11.77,33.75-18.29,29.54-45.52,57.45-68.71,84-21.24,24.28-47.93,61.68-82.06,64.63,2.48,2,5,3.77,8.57,4.41.52,11.7-11.13,17.5-17.85,25.29-8.12,9.42-16.67,20.22-23.9,30.28-40.75,56.73-63.51,142-63.54,211.57-.05,100.44,54.46,190.54,72,287.86,3.13,17.46,11.72,51.4,4.65,67.74" transform="translate(289.4 -342.96)"/><path class="a" d="M746.55,780.89c-.41,8.43-1.12,20.48-6.57,27.47a45.62,45.62,0,0,0,16.3-3.64c3.8-1.59,10.39-2.87,12.56-5.54" transform="translate(289.4 -342.96)"/><path class="a" d="M728.46,757.43a14.91,14.91,0,0,0-.06-3.27c-3.55,0-10.08,6.54-8.44,9.93" transform="translate(289.4 -342.96)"/><path class="a" d="M611.69,755.59c4.64-7.35,1.87-18.2,7.67-24.77,6.84-7.76,15.22,3.1,20,7.58,3.8,3.53,7.32,5.57,11,1,1.35,8.68-9.76,14.31-16.9,15.4a112.29,112.29,0,0,1-12.94,1.57C616.61,756.48,610.89,757.54,611.69,755.59Z" transform="translate(289.4 -342.96)"/><path class="a" d="M516,1102.53c-12.4,3.17-38.9,40.58-50.43,48.21-15.36,10.17-32.5,13.85-50.66,17-42.84,7.54-86.7,2.87-126.06-16.64-44.71-22.17-62.86-65.66-72.6-111.71-12.41-58.61-24.68-106.54-58.39-157.2-26.32-39.55-49.64-80-61.48-126.45C79.9,691.21,86.94,621.31,64.77,558.68c16,11.88,50,27.78,65,41.81,21.4,20,27.25,46.44,37.86,72.43,10.08,24.67,17.6,49.74,40.93,64.55,19.25,12.24,33.7,15.91,44.87,37.33,20.87,40,14.31,90.31,39.83,128.13,12.22,18.11,31.45,35.56,53.61,38,24.23,2.62,37.52-3.75,47.36,25,10.88,31.74,10.82,70.27,50.68,79.9,24.72,6,63.4-3.27,86.67-12.4,15.54-6.09,27.71-26.76,33.53-55.26" transform="translate(289.4 -342.96)"/><path class="a" d="M544.63,892.27c-7.76-43.56-45.41-62-64.22-101.22-22.29-46.48-67-76.41-95.83-118-20.5-29.62-46.13-83.57-42.57-119.9,2.15-21.91,21.47-49.35,16.24-69.27,2.62,10-59.19,38.77-68.46,41.3-19.5,5.31-38,2.73-52.42-12.23-39.46-41-30-119.29-19-168.92-100,60.5-194.46,174.37-173.75,293.91,6.92,40,37.89,94.64,55.36,130.93" transform="translate(289.4 -342.96)"/><path class="a" d="M444.51,1160.83c-12.48,2.06-55.19,24.26-66.13,30.59-17.62,10.18-36.56,15.87-55.54,23-53.94,20.38-106.45,28.63-164,35.08-59,6.6-119.27,17.33-178.7,10.39-57.15-6.68-105.61-36.47-145.8-76.44-26.79-26.64-42.8-59.75-62.65-91.56-13.49-21.62-50-55.67-60.43-78.9,9-4.61,59.38,38.22,70.35,45.94,26.43,18.6,50.21,29.06,78.13,9.85-55.22-95.89-168-174-145.55-301.36.51,12.36,38.44,35.44,55.09,44.32,34.1,18.17,81.07,21.88,114.3-1-29.91,9.64-61.48-79.13-67-104.39,7,12.32,60,26.41,74.31,27.27,42.56,2.57,90.37-33.48,122.65-56.81-33,13.57-61.72-72-69.92-94.62-13.87-38.34-8.4-88.7,6.89-126,9,41.56,62.93,71.59,105.45,71.75" transform="translate(289.4 -342.96)"/><path class="a" d="M484.66,799.08c90.11-55.88,133-197.84,104-293.58,15.44,23.56-12.46,62.39-26.6,82.56-35.42,50.52-101.24,84.41-150.55,117.65" transform="translate(289.4 -342.96)"/><path class="a" d="M342,553.11c14.21-45.17,86.33-81.15,112.84-97.65,29.87-18.59,62.55-37.92,98.78-31.12,17,47.38,23.66,113,8.47,163.72" transform="translate(289.4 -342.96)"/><path class="a" d="M843.37,1352.36c-28.71-1-58.56,11.39-86.92,14.18-24.37,2.4-58,21.7-77.53,18.24" transform="translate(289.4 -342.96)"/><path class="a" d="M509.79,1425.75c-21.35,2.59-41.37,8.43-61.33.72" transform="translate(289.4 -342.96)"/><path class="a" d="M256.37,1814.71c19.27,8.79,54.93,14.27,74.06,26.15,20.86,13,39.73,29.48,61.18,42.09,38.19,22.44,92.32,49.55,121.86,80.8" transform="translate(289.4 -342.96)"/><path class="a" d="M641.71,2082.41c-21.65-102.47.85-221.77-4.39-327.4-2.63-53.18-3.47-102.72,4.31-154.53s19.49-101.76,27.89-152.39c9.45-57,9.47-115,53.66-158.81" transform="translate(289.4 -342.96)"/><path class="a" d="M577.24,2295.87c-13,13.12-13.2,37-15,54.72-2.4,23.38-11.78,47.67-11.61,71.43" transform="translate(289.4 -342.96)"/><path class="a" d="M596,2302c-10.68,21.06-10.2,78.45-14.25,101" transform="translate(289.4 -342.96)"/><path class="a" d="M801.49,870.07c-11.29,6.11-30.72,14.84-42.59,20.95C745,898.16,730.73,904.09,717,911.26c-22.62,11.79-55.69,22.91-77.94,3.28" transform="translate(289.4 -342.96)"/><path class="a" d="M609.1,913.73c-8,12.88-26.86,7.58-27.87,7.29" transform="translate(289.4 -342.96)"/><path class="a" d="M720.27,777.72c-4.14,4.81-10.92,3.17-15.35-5.2" transform="translate(289.4 -342.96)"/><path class="a" d="M587.25,750.21c5.11-10.48,1.64-22.73,6.46-32.85,3.73-7.81,13.87-21.59,22.43-17.36C619.94,699.17,600.15,725.11,587.25,750.21Z" transform="translate(289.4 -342.96)"/><path class="a" d="M644.35,741.36c-5.76,2.43-10.43,6.86-16.37,9.32s-12.47,3.5-18,4.94" transform="translate(289.4 -342.96)"/><path class="a" d="M756.21,789.8a63.43,63.43,0,0,1-5.76,9.4c-2.57,3.48-7.5,6.17-10.47,9.16" transform="translate(289.4 -342.96)"/><path class="a" d="M327.25,507.94c-19.58,15.59-24.77,65.5-21.11,86.67,7,40.38,22,70.93,36.89,108,22.37,55.76,18.78,108.89,15.68,166.68-1.63,30.52,27.51,64.3,33.46,91.18-18-32.78,14.43-64.45,26.76-95.69,11.25-28.47,22.1-108.87,10.74-140.07" transform="translate(289.4 -342.96)"/><path class="a" d="M562.65,958.94c-12.16-28.18-29-98.07-15.63-123.8,12.22-23.44,41.39-51.83,36.4-79.1-24.61,25.79-88.85,31-78.82,70.06" transform="translate(289.4 -342.96)"/><path class="a" d="M624.76,705.71c45.25-32,41.39-97.25,19.78-140.22.08,39.72-43.65,60.44-60.08,91.92" transform="translate(289.4 -342.96)"/><path class="a" d="M573.94,793.17c-6.05,29.59,16.39,83.59,10,117-5.47,28.75-.1,26.53-21.34,48.82" transform="translate(289.4 -342.96)"/><path class="a" d="M-140.27,1068.82C-91,1117.37-12.5,1150.17,51.19,1172c64.14,22,129.53,14.84,194.75,6.87,21.9-2.67,65.49-6.68,86.1-12.48" transform="translate(289.4 -342.96)"/><path class="a" d="M562.65,958.94c4.23,18.09,2.41,33.39-1,52.09-2.9,15.93-5.78,34.75-17.38,46.42" transform="translate(289.4 -342.96)"/><path class="a" d="M552,2403c-7.67-2.68-3.49,18.46-3.65,21" transform="translate(289.4 -342.96)"/><path class="a" d="M576.28,2422c-1-6.45-5.64-6.36-6.88,0-.53,2.7-1.82,14.8-.66,16.62" transform="translate(289.4 -342.96)"/></svg>