<?xml version="1.0" encoding="utf-8"?>
<!-- Generator: Adobe Illustrator 23.0.1, SVG Export Plug-In . SVG Version: 6.00 Build 0)  -->
<svg version="1.1" id="Layer_1" xmlns="http://www.w3.org/2000/svg" xmlns:xlink="http://www.w3.org/1999/xlink" x="0px" y="0px"
	 viewBox="0 0 1685.5 2138.4" style="enable-background:new 0 0 1685.5 2138.4;" xml:space="preserve">
<style type="text/css">
	.st0{fill:none;stroke:#D4A440;stroke-width:3;stroke-miterlimit:10;}
</style>
<title>jenner</title>
<path class="st0" d="M1340.3,780.2c-52,0-109,11-195,6c14.1,20.4-48.9,66.4-59,89c-17.1,38-16,215-284.5,199.6
	c-25.1-1.4-30.2-40.6-49-57.4c-18.8-16.8-48.7-25.9-68.8-10.7c-17.6,13.3-19.8,39.2-14.8,60.7C609,993.7,566,905.4,549.8,811.6
	c-16.2-93.8-4.9-192.7,36.2-278.5c45,12.2,96.6-6.8,123-45.2c3.4-4.9,6.5-10.3,11.1-14.1c7-5.7,16.3-7.3,25.2-9
	c34.6-6.6,68-17.9,99.5-33.7c26.1-13.1,52.4-31.3,61.8-58.9c9.4-27.3-1.7-60.3-25.6-76.5c7.8-7.9,17.6-13.6,28.4-16.3
	c15.3-3.8,31.4-1.6,46.9,0.9c71.2,11.5,149.3,35.5,217.2,11.3c31.9-11.3,66.8,3.8,96.1,20.8c82.9,48.1,155,112.8,211.7,190.1
	c20.3,27.8,39,58.1,44.3,92.1c4.3,27.6-0.6,56.1-10.8,82.1c-14.4,36.9-44.7,86.5-88.7,70.5C1412.7,742.3,1383.6,780.2,1340.3,780.2z
	"/>
<path class="st0" d="M1474.3,738.2c6,39.6,13.6,88.5,11.8,128.5c-2.8,60.1-23.1,118-58.3,166.8c-3.1,4.3-6.4,8.7-7.8,13.9
	c-1.8,6.8,0,13.9,1.3,20.8c3.7,19.8,2.8,40.3-2.5,59.7c-1.4,4.9-3,9.9-3,15c0,7.2,3.3,14,6.3,20.5c6.4,13.7,12.1,27.6,17.1,41.9
	c4.4,12.6,8.3,25.8,6.8,39s-9.8,26.5-22.6,30.1c-11.1,3.1-24.9-0.7-33,7.5c-2.5,2.6-4.2,1.3-5.2,16.3c-1.3,19.6-0.3,8.1-16,30
	c-7.1,9.9-17.7,39.7-27.1,47.4c-6.5,5.4-14.8,8.6-20.1,15.2c-5,6.2-6.5,14.3-9.2,21.8c-10.9,30.1-41.8,49.6-73.4,55.1
	c-31.6,5.6-63.8-0.9-95.2-7.6c-195-42-315.9-211.8-324.8-222.8s-15.7-24.4-15.8-38.5c-14.8,9.8-41.4,7.3-56.8-1.5
	c-29.2-16.6-44.3-49.5-57.5-80.3c-6.9-16.1-13.9-32.2-20.8-48.3"/>
<path class="st0" d="M695.3,2137.2c-11.8-114.4-12.5-202.5-15.3-317.5l-8.8-366.1c-1-41.1-2-82.3-7-123c-3.5-28.8-9-57.9-5.5-86.8
	c3.9-31.8,16-62.6,32.9-89.7c8.6-13.9-1.9-29.5-2.4-36.9c-0.5-7.3,0.6,0.2-6.6,1.8c-54.5,11.8-98.2,51.2-141.9,85.9
	c-65.1,51.7-135.8,95.8-210.8,131.6c-59.4,28.3-122,51.8-174.4,91.5C65.3,1496.6,13.7,1613,23.7,1725.9
	c2.5,28.7-27.3,377.1-21.5,412.3"/>
<path class="st0" d="M1207.6,2137.9c2.4-88.3,4.8-177.5-12.8-264c-4.8-23.8-11.2-47.3-15.5-71.2c-14.5-80.6-5.6-164.5-25.9-243.8
	c-2.3-9.1-1.7-18.2-2.5-27.6c-2-22.9-3.9-45.7-5.9-68.6"/>
<path class="st0" d="M1446.3,1244.2c80,1.2,157.9,59.9,196.7,129.9c19.7,35.5,29.5,75.7,35.5,115.8c5,33.6,7.5,67.9,3.5,101.6
	c-3.5,29.9-12,58.9-19.1,88.2c-29.7,123.1-33.5,250.9-37.2,377.5c5.5,6.9,7.9,20.4,8.8,29.2c0.5,5.6,0,11.3,1.8,16.6
	c1.4,4.1,4,7.8,5,12.1c2.2,10-8.5,15.3-1,22.2"/>
<path class="st0" d="M382.3,1691.4c-4.1,35.6-21.7,67.9-34.5,101.3c-25.9,67.5-26.4,130.2-32.7,202.2
	c64.3-172.5,128.6-344.9,192.9-517.4c14.4-38.5,28.8-77.1,45.6-114.6c32.5-72.4,92-160.7,141.6-222.6"/>
<path class="st0" d="M296.3,1836.4c-5.3,100.7-0.3,201.8,13,301.8"/>
<path class="st0" d="M1299.6,1463.4c19.5,22.1,29,51,42.7,77.1c21.1,40.5,52.8,75.6,68,118.7"/>
<path class="st0" d="M1394.4,1517.2c8.7,48.4,30.4,93.4,51.8,137.6c32.2,66.6,64.5,133.2,103,196.4"/>
<path class="st0" d="M1530.1,1947.3l6.2,42.6c7.8,54.1,8.6,94.6-6,147.2"/>
<path class="st0" d="M1362.9,1378.8c16.6,6.9,30.2,19.1,43.3,31.4c39.7,37,77.5,75.9,113.5,116.5c11.5,13,23,26.5,29.6,42.5"/>
<path class="st0" d="M184.6,1771.3h-2c14,0.9,24.8,12.2,34.1,22.7c25.6,28.9,52,63.4,77.6,92.3"/>
<path class="st0" d="M206.4,1853.2l87.5,89.9"/>
<path class="st0" d="M985.3,2137.2c19-13,22.7-46.6,27.8-62c1.9,16.9,1.2,44,19.2,62"/>
<path class="st0" d="M1445.3,1006.2"/>
<path class="st0" d="M1483.6,985.5"/>
<path class="st0" d="M1480.7,913.4c1.8,13.6,0.9,26.2-0.4,39.8"/>
<path class="st0" d="M1275.8,1087.4c-9.1-0.2-18.3-0.8-27.2,1c-19.9,4-35.4,19.3-54.1,27.2c-22.4,9.4-48.5,7.7-70.3,18.5
	c12.6,4.5,26.2,6,39.5,4.2c11.7-1.6,23-5.7,34.2-9.4c39.2-12.9,79.6-21.5,120.5-25.8c12-1.3,24.8-2.3,36-7.4
	c6.6-3,26.6-16,12.9-20.9c-8.3-2.9-35.1,8.5-44.8,9.9C1307,1086.9,1291.4,1087.8,1275.8,1087.4z"/>
<path class="st0" d="M1196.6,1153.4c16.5-2.2,33.7-3.4,48.6-10.8c13.3-6.6,24.6-18.1,39.2-20.9c6-1.1,12.2-0.7,18.4-0.7
	c10.6,0,21.1-1.2,31.4-3.7c-19.1,16.9-40.7,30.8-64,41.1c-13.2,15.4-28.3,31.8-48.4,34.6c-11.3,1.6-22.7-1.5-33.6-4.5
	c-15-4.2-49.8-7.2-59.8-18.5C1147.3,1159.4,1175.3,1155.9,1196.6,1153.4z"/>
<path class="st0" d="M1384.3,1307.2c-28,1-68.5,31.5-76,35c-17,8-30.8,12.7-67,27c-3.7,1.5-19.5,8.4-19.2,12.4
	c5.2-2.5,35.6,7.4,41.2,8.6c29.6,6.5,29.7,14.5,59,1"/>
<path class="st0" d="M1369.3,1328.2c-35.7,24.2-76.9,36.2-120,38"/>
<path class="st0" d="M1422.3,1163.2c-9.2-12.8-18.2-24.3-20-40c-2.9-24.6,7.7-63.1,21-84"/>
<path class="st0" d="M1274.3,1155.7c-40.9,19.2-86.1,27.1-131.1,22.9"/>
<path class="st0" d="M586.3,533.2c-19.5-16.6-36.3-47.4-34-72.9s13.7-49.4,27.9-70.7c19.4-29.1,44.5-54.6,74.6-72.4
	c30.1-17.8,65.3-27.5,100.2-25.3c13.1,0.8,26.4,3.4,37.6,10.3s20,18.5,20.8,31.6c1.2,19.7-69,118.7-93,140.4"/>
<path class="st0" d="M564.3,418.2c-20.4-2.1-45-6.6-62.9-16.5c-1.8-1-3.8-2.2-4.8-4c-2.6-4.7,1.9-10,6.2-13.3
	c18.2-13.8,39.3-23.1,60.2-32.3c19-8.4,45.5-18.1,66.3-17.9c-24.1-22.1-52.2-44.8-76.2-66.9c-4.7-4.3-9.5-8.7-13.2-14
	c-4.4-6.3-7.1-13.5-9.3-20.9c-4.3-14.5-6.7-30-4.2-44.9c2-11.9,7.2-23.1,13.9-33.2c15.3-22.9,39.8-39.9,66.9-44.5
	c27.1-4.5,56.6,4.2,75.5,24.3c11.5,12.3,18.8,27.9,25.2,43.4c7.2,17.3,13.6,35,17.1,53.4c4,21.5,8.7,39.8,4.3,61.2
	c4.3-12.8,4.1-21,13.4-30.8c18.8-19.5,49.7-24.2,75.4-15.8s48.3,27.9,63.1,50.5c-17.2-42.5-40.5-84.6-75.3-114.5
	c-15.7-13.5-31.6-27.2-50.4-35.7c-18.8-8.5-46.5-11.3-65.3-2.8c24,7,83.3,49,98.3,73.7c4.5,7.4,8.4,16,6.7,24.5"/>
<path class="st0" d="M548.1,266.2c-23.3,40.1-50.6,79.7-51.9,126"/>
<path class="st0" d="M1169.3,293.2c24.6-18.9,47-51.8,52.1-82.5c5.1-30.6-4.7-64.2-28-84.8c-9-8-20.2-14.1-32.3-15.4
	c-16-1.7-31.6,5.2-45.8,12.8c-14,7.5-28.6,17-33.4,32.2c12.3,7.5,23.7,16.4,34.1,26.5c13.5,13.2,25.8,31.4,21.1,49.7
	c-2.9,11.3-12,20.2-22.3,25.6s-21.9,7.8-33.3,10.2c-27.9,5.8-60.2,14-88.2,19.8"/>
<path class="st0" d="M933.3,277.2c17.7-39.3,51.2-76.5,89.9-95.3c-27.6-24.7-66.7-37.4-102.9-29.3s-67.3,38.6-72.4,75.3"/>
<path class="st0" d="M1175.3,114.2c-0.4-28-21.1-57.2-44.9-72c-23.8-14.8-52-20.8-79.7-25.1c-20.8-3.3-44.7-4.8-60,9.6
	c0.3,45.4,2.8,90.1,2.7,135.5"/>
<path class="st0" d="M878.3,174.2c-23.8-10.1-42.9-39.6-47.1-65.1c-4-24.4-0.8-51.9,16.5-69.5c9.5-9.7,22.3-15.5,35.2-19.3
	c36.2-10.7,73.6-9.7,107.4,7"/>
<path class="st0" d="M1082.3,155.2c-10.3-0.9-50.5,16.8-59,27"/>
<path class="st0" d="M704.3,1047.9c-4.3,14.2-8.7,27.3-11.2,41.8c-3.1-12.3-4.4-24.9-4-37.5c0.2-6.4,1.1-13.4,5.6-18
	c6-6.1,16-5.8,24.2-3.2c12.5,3.9,23.4,11.8,33.4,20.2c13.8,11.7,26.3,24.8,37.3,39.1"/>
<path class="st0" d="M748.5,1075.8c-5.8-0.7-11.6,0.9-16.2,4.4c-4.5,3.6-8,8.3-10.2,13.6c-1.5,3-2.2,6.3-2,9.7
	c0.5,4.4,3.2,8.2,6.1,11.5c5.5,6.2,12.1,11.5,19.4,15.5c6.2,3.4,14,5.9,20.4,2.7"/>
<path class="st0" d="M796.4,1103.3c-6.4,10.4-5.5,23.8-1.5,35.3c2.5,7.1,6.8,14.4,14,16.7"/>
<path class="st0" d="M1420.3,747.2c4-53-201.1-280.1-270.2-321.4c-68.7-41-143.4-71.1-221.4-89.1"/>
<path class="st0" d="M1401.5,710.3c56.8-44.7,88.3-119.7,80.5-191.5c-1.2-10.8-21-40.3-26.8-49.6"/>
<path class="st0" d="M1303.3,571.2c29.7-21.8,51.8-65.3,55.3-102s-1-72-15-106c30.7,41.8,56.5,88.7,64.4,140s-4.5,107.5-41,144.2"/>
<path class="st0" d="M1245.3,508.2c24.5-24.5,49.7-57,56-91.1c1.8-9.3,2.6-18.7,2.4-28.2c-0.7-28.6-29.5-64.2-49.4-84.7"/>
<path class="st0" d="M1335.3,609.2c-72.4-38.5-169-69.7-248.2-91s-159.4-47.1-223.9-97.7"/>
<path class="st0" d="M1303.3,781.2c-188.2-27.4-410.2-162.1-505-326.9"/>
<path class="st0" d="M709.3,488.2c90.3,139,275.3,257.4,436,298"/>
<path class="st0" d="M668.3,523.2c82.4,120.5,282,300.3,418.8,351.5"/>
<path class="st0" d="M756.1,1022.4c-31.9-77.4-63.8-155.1-85-236.1s-31.2-165.9-18.7-248.6c-55.6,150.7-66.8,341.7,31.8,468.5"/>
<path class="st0" d="M516.3,323.2c-51.5,18-88.5,70.8-89.4,125.4C426,503.1,449,555.2,476,602.6c-10.1-35.4-19.7-71.6-18.6-108.4
	s10.3-72.8,38.9-96c-19.4,16.4-11.4,58-12.4,83.4c-0.9,25.4,6.5,50.5,17.2,73.6c-28.5-38.7-43.9-79-29.9-125"/>
<path class="st0" d="M1222.3,182.2c26.8,28.1,51.2,77,63.1,114c-11.7-17-40.5-70.1-75.1-54"/>
<path class="st0" d="M829.3,86.2c-37-29-49-58-61.2-75.4c23.3,61.1,35.6,98.7,84.2,142.4"/>
<path class="st0" d="M1298.1,1233.5c-4.9,5.6-10,11.4-12.6,18.3s-2.4,15.6,2.6,21.1c2.9,3.2,6.9,5.1,11.1,6.3
	c31.3,9.5,66.4-12.8,96.9-1"/>
<path class="st0" d="M1012.5,1430.6c-11.1,10.4-21.1,21.8-30,34.1c-5.4,7.5-10.5,16-10.1,25.2c0.4,9.2,9,18.5,17.9,16.2"/>
<path class="st0" d="M1050.6,1451.5c-11,15.9-24.7,29.6-40.6,40.6"/>
<path class="st0" d="M1480.3,953.2c-4,16.2-25.1,39.5-35,53"/>
<path class="st0" d="M294.3,1927.2c-5.9-7.8-15.9-23.6-23.3-29.9"/>
<path class="st0" d="M270.3,1828.7c5.1,8.4,19.3,29.5,25,37.5"/>
<path class="st0" d="M750.5,1182.9l-92.9-35.6l86.1,171.4"/>
<path class="st0" d="M788.2,1330.7l84.1-101l-98.1-37.6"/>
<path class="st0" d="M768.4,1183.5c0.4-0.8,0.8-1.6,1.2-2.4c1.6-3.1,4.4-6.2,8.7-4.4"/>
<path class="st0" d="M762.9,1205.8c0.2-2.1,0.4-4.1,0.7-6"/>
<path class="st0" d="M729.3,1204.1c2-3,3.7-2.1,8,0.7c4.1,2.6,7.8,5.8,11,9.4c3.9,4.3,6.3,9.6,9.1,11.4c3.3,2.2,3.4-2.4,4.8-4.9
	s0.7-3.7,0.6-7c0-0.7,0-1.3,0-2l0,0"/>
<path class="st0" d="M760.7,1265c-1.5-1-2.8-2.2-4-3.6c-2.9-3.6-4.8-7.9-5.7-12.5c-1.1-5.7-0.8-11.1-2.7-16.9
	c-1.6-4.2-3.6-8.3-6.1-12.1c-1.9-3.5-4.2-6.8-6.9-9.8c-1.9-2.1-4-4.1-6.2-5.9"/>
<path class="st0" d="M756.7,1261.2v0.1c1.1,5.7,0.2,23.8-3.6,28.4"/>
<path class="st0" d="M783.6,1258.4c-8.1,19.6-21.7,24.9-30.3,31.5c-2.1,1.5-3.9,3.3-5.4,5.4c-16.1,23.7,13.4,65.3,23.1,74.2"/>
<path class="st0" d="M770.9,1369.1l-0.4-0.7c-6.4-11.8-16.1-32.4-15.1-42.7c1.4-13,5.4-14.6,13-23.3c5.9-6.8,9.2-15.6,11.5-25.1
	c1.5-6.2,2.5-12.6,3.5-19"/>
<path class="st0" d="M780,1277.4L780,1277.4c0.7,6.9,1,13.7,0.9,20.6c-0.4,18.8-4.8,24.6-8.1,30c-7.2,12-8.1,23.2-2.3,40.4
	c0.1,0.4,0.2,0.7,0.4,1.1"/>
<path class="st0" d="M770.9,1369.1c-2.4-9.3,15.3-19.7,17.1-35.3c1.9-16.4-6.9-30.9-6.8-35.7"/>
<path class="st0" d="M765.8,1252.4c0.2-10.9,2.2-15.5,10.2-20.5c-1.2-4.6-0.9-9,1-12.1c-2.9-1.1-5.4-2.9-7.4-5.3
	c-3-0.1-4.4-0.6-7-2.8c-0.2-0.2-0.4-0.3-0.6-0.5c-4.1,0.3-9.6-3.5-11.6-8c5.1,1.1,7.2,0.7,12.4,2.6c4.7,1.9,9.3,4.1,13.7,6.7
	l1.1,0.6c1.9,1,3.5,2.3,4.9,4c0.1,0.2,0.3,0.4,0.4,0.6c0.8,1.4,1.2,3,1.2,4.6c0.7,15.2,5.9,20.6-0.6,36"/>
<path class="st0" d="M782.9,1217.9l-0.3-0.7c-1.8-4.3-3.7-9.6-6.5-13.7c-0.4-0.6-0.8-1.1-1.2-1.6c-1.5-1.8-3.1-3.5-4.9-5.2l-4.7-4.7
	l-1.9-1.9l-4.5-4.5c-3.4-3.3-6.1-7.1-9.2-10.6c-1,1.8-0.5,4.4,0.4,6.9c1.8,4.8,5.1,9.4,9,13.5c1.5,1.6,3,3.1,4.6,4.6
	c2.5,2.3,5.1,4.5,7.7,6.8c2,1.7,4.2,3.7,5.3,5.9l0,0"/>
<path class="st0" d="M778.3,1176.7c-2.2,6-3.7,12.3-4.4,18.6"/>
<path class="st0" d="M776,1203.7v-0.2c0.2-2.1-1-5.5-2.2-8.2c-0.2-0.5-0.4-1-0.7-1.4c-1.7-3.4-3.3-6.8-4.9-10.2
	c-0.8-1.8-1.7-3.6-2.5-5.5c-1.3-3-2.6-6-2.6-8.8c0-0.4,0-0.9-0.2-1.3c-0.5-1.1-1.8-1.8-3-1.6c-0.9,0.4-1.5,1.2-1.6,2.2
	c-1.4,6.1,1.7,14,4.8,21.4c0,0,0,0,0,0.1"/>
</svg>
