<svg id="Layer_2" data-name="Layer 2" xmlns="http://www.w3.org/2000/svg" viewBox="0 0 1781.35 1991.77"><defs><style>.cls-1{fill:none;stroke:#000;stroke-miterlimit:10;}</style></defs><title>kiss</title><path class="cls-1" d="M297.06,845c-7.18-.09-13.87,3.49-19.83,7.49a123.36,123.36,0,0,0-38.24,164c-10.58-29.89-15.07-62.4-.44-90.53s48.18-51.44,78.72-59.92C312.44,857,309.72,845,297.06,845Z" transform="translate(-12.4 -444.73)"/><path class="cls-1" d="M377.09,766.79c3.94-10.62,14-17.63,24.07-22.84,21.46-11.12,45.7-17.21,69.85-16.18s48.14,9.38,66.9,24.62a98,98,0,0,0-132.59,23.15c-4.75,6.25-9.17,17.69-19,15.81C376.22,789.42,374.11,774.8,377.09,766.79Z" transform="translate(-12.4 -444.73)"/><path class="cls-1" d="M434,840.6c-12.75-13.24-12.34-35.78-1.83-50.87s29-23.2,47.27-24.85,36.65,2.39,54.32,7.47" transform="translate(-12.4 -444.73)"/><path class="cls-1" d="M352.4,901.58A73,73,0,0,0,266,962.84c-2.64,18.43,1.86,37.18,8.32,54.65" transform="translate(-12.4 -444.73)"/><path class="cls-1" d="M438.68,845.72c7.35-17.9,24.41-29.79,41.5-38.87s35.46-16.63,49.36-30.09A46.58,46.58,0,0,1,507,805.14c-11.32,6.41-23.8,10.48-35.33,16.48S443.64,833.7,438.68,845.72Z" transform="translate(-12.4 -444.73)"/><path class="cls-1" d="M352.49,917.2c-9.77,11.15-23.63,17.63-36.39,25.17s-25.47,17.34-30,31.46c-3.81,11.91-1.55,26.19-9.48,35.86,8.71-2.23,16.56-11.11,20.16-19.35s5.59-17.2,10.14-25C318.38,945.86,341.76,937.12,352.49,917.2Z" transform="translate(-12.4 -444.73)"/><path class="cls-1" d="M420.89,910.9c-5,1.68-8.47,6.47-9.76,11.57s-.68,10.49.41,15.64c.45,2.13,1.1,4.42,2.87,5.7,2.69,2,6.78.39,8.58-2.4s1.9-6.34,1.72-9.66-.54-6.75.52-9.91,7.37-5.77,6.59-8.55C430.88,910,423.23,910.11,420.89,910.9Z" transform="translate(-12.4 -444.73)"/><path class="cls-1" d="M471.38,896.28c-4.6,1.47-9.42,3-14.18,2.11s-9.31-4.88-9-9.7c.38-5.53,7-8.85,12.45-7.77s9.72,5.16,13.51,9.2a10.13,10.13,0,0,1,2.49,3.61,3.57,3.57,0,0,1-1,4c-1.21.84-3.29.14-3.39-1.33" transform="translate(-12.4 -444.73)"/><path class="cls-1" d="M395.94,894.68c-6.72,5.62-6.35,15.88-5.4,24.58q1.77,16.18,3.53,32.36c.7,6.41,1.77,13.53,6.8,17.57,5.29,4.25,13.33,3.36,19.07-.26s9.71-9.4,13.51-15" transform="translate(-12.4 -444.73)"/><path class="cls-1" d="M485.73,907.82a30,30,0,0,0,9-3c2.73-1.61,5-4.32,5.24-7.47.27-3.45-1.85-6.59-4.05-9.25a76.62,76.62,0,0,0-58.27-27.37" transform="translate(-12.4 -444.73)"/><path class="cls-1" d="M583.94,960.05c-5.19,5.49-12.35,9.44-18.75,14.57-5.37,4.3-9.68,9.74-14.17,15a260.07,260.07,0,0,1-46.3,42.31c-18.58,13.25-43.45,23.93-54.5,43.9a157.71,157.71,0,0,1-1.57-103.59c2-6,4.46-12,8.48-16.93s9.83-8.66,16.17-8.93c15.12-14,39.54-21.59,60-19.28,9.77,1.1,62.47,15.38,54.64,27.67-3.92,6.18-15.43,3.63-21.76,4.88-11.59,2.3-22.57,7.31-32.49,13.64-14.44,9.21-26.86,21.19-39.16,33.1-14.25,13.8-30.65,32.26-31.27,53.37,3.89-28.14,3.25-58.86,23.07-81.42,15.88-18.09,43.4-26.75,65.26-16.67" transform="translate(-12.4 -444.73)"/><path class="cls-1" d="M1395.79,1688.2c4.31-78.27-26.63-168.57-91.31-212.84-30.12-20.62-65.79-31.19-100.81-41.45l-180.93-53c-36.66-10.75-73.79-21.7-106.49-41.45s-55.85-50.1-68-86.31c-14.57-43.27-38.4-82.7-59.49-123.2-21.75-41.76-36.62-82.5-42.56-129.11-.68-5.41-8.7-25.92-5.63-29.77,9.22,2.86,19.63-3.45,23.3-12.39s1.55-19.44-3.39-27.74S748,916.17,740.39,910.23c-14.5-11.31-32.93-21.07-40.38-38.78-4.4-10.45-8.13-19.91-18.66-26.28-7.3-4.41-11.82-1.91-19.17-1.37-4.31.31-3.35.73-7.07-2.79-3.1-2.94-5.86-6.36-8.81-9.46Q629.37,813.74,611,797.34A657.91,657.91,0,0,0,532.33,737c-40-26.21-85.55-45.73-133.3-48.88-59.31-3.92-119.88,18.85-161.93,60.85-55.29,55.24-67.56,142.15-40.27,214.36,19.9,52.64,52.92,99.12,85.17,144.76l34,48.13c7.17,10.16,16.66,17.11,23,27.81a62.2,62.2,0,0,0-28.85-9.9c-3.5-.29-7.64,0-9.56,3-2.2,3.37-.07,7.83,2.31,11.07,12.56,17.14,31.82,28.2,45.48,44.47,7.11,8.47,12.61,18.26,20.2,26.31s18.15,14.44,29.14,13.23" transform="translate(-12.4 -444.73)"/><path class="cls-1" d="M782.69,1560.73a2432.69,2432.69,0,0,0-23.11-245.79" transform="translate(-12.4 -444.73)"/><path class="cls-1" d="M1349,2214.78c-12.19-22.83-3.72-51.57,10.62-73.12s34.08-39.24,47.29-61.5c15.1-25.42,17.75-56,16.93-85-.21-7.69-.74-15.35-1.32-23-.56-7.41,1.7-13.15,2.08-20.49.82-15.6-4.6-30.86-9.78-45.32-4.11-11.45-8.27-23.18-9.5-35.37-.8-8,1.5-20.35-10.25-19.45-17.95,1.37-29.5,27.1-30.74,42.15-1.72,20.85,6.47,41.1,14.51,60.42q-6.67,19.1-13.36,38.18c-1.84,5.24-3.89,10.8-8.33,14.14-5.44,4.09-12.92,3.76-19.69,3.06-11.93-1.23-24.5-3.32-33.6-11.13-7.4-6.34-11.51-15.64-14.82-24.8-29.78-82.36-13.64-175-37.43-259.24-3.5-12.41-10.63-26.79-23.51-27.42-8.43-.4-16,5.88-19.78,13.45s-4.38,16.24-4.89,24.67q-5,81-1.81,162.25c.28,7.28.55,14.88-2.52,21.48s-12.08,12.83-19,10.55c-6.28-44.84-14.86-89.36-21.13-134.26q-3.9-27.88-7.09-55.87c-2-17.26,1.11-42.81-14.5-54.59-18.56-14-32.28,6.31-36.73,22.68-9.9,36.49-10.21,75-6.37,112.6s11.72,74.68,18,112c.7,4.15-.19,10.22-4.39,10-2.55-.13-4.1-2.79-5.17-5.1-9.4-20.22-25.87-39.77-28.55-61.89s-16.22-46.48-17-68.81a371,371,0,0,0-4.49-46c-1.79-11.16-5.12-23.67-15.12-29-4.54-2.4-9.8-2.88-14.8-4-3.52-.82-7-2-10.62-2.14s-7.52,1-9.63,3.95c-1.9,2.65-2,6.14-2,9.4,0,10.7-1.46,27.45-1.06,38.14A544.1,544.1,0,0,0,1050.76,1977c-18.52-15.39-37-30.85-54.15-47.82-13.24-13.13-30.68-25.42-38.92-42.29-4.09-8.4-7.14-17.31-11.73-25.44s-11.06-15.67-19.75-19.11c-9.69-3.83-34.74-.23-30.66,15.05,1.09,4.1,4,7.44,6.49,10.83,10.21,13.65,11.2,29.86,19.19,43.75,8.17,14.21,21.33,26.9,32.44,38.81,23.78,25.49,49.15,49.8,68,79.37l115.19,180.65c18.8,29.48,37.69,59.14,51.36,91.32,8.54,20.12,15.12,41.35,27.53,59.34,19.66,28.52,53.09,46.25,87.55,49.79s69.6-6.35,99.08-24.55c28.21-17.42,50.21-50.48,59.92-82.19s4-69.9-21.11-91.61c-21.83-18.91-52.8-21.94-81.61-24.1" transform="translate(-12.4 -444.73)"/><path class="cls-1" d="M471.76,2436c-1.71-89.28,6.81-189.4,16.67-278.15,6.19-55.75,12.58-112.29,33.42-164.37,4-9.9,13.17-18.63,19.36-27.33q10.51-14.78,20.15-30.16a616.13,616.13,0,0,0,34.78-63.61c15.85-33.54,33.21-66.72,43.69-102.45,2.21-7.55,3-16.43,6.49-23.37,4.07-8,11.06-13.46,16-20.58,5.75-8.2,8.58-18,15.16-25.77,6.06-7.17,12.06-13.09,17.15-21.25,14.06-22.51,24.12-47,35.91-70.74,3.76-7.55,7.48-15.39,8.06-23.81s-2.67-17.63-10-21.8c-7.5-4.26-17.31-2.15-24.33,2.86s-11.89,12.42-16.66,19.61q-20.21,30.39-42.2,59.52-10.68,14.14-21.77,28c-4.06,5.06-15.24,25.63-21.74,17.43-7.71-9.75-15.11-14-10-26.2,4.71-11.21,11.31-21.54,15.9-32.83s11.53-17.72,18.59-27.42c23.74-32.62,57.09-63.27,68.83-101.86,2.29-7.51-2.57-18.86-9.48-22.57-7.56-4.07-16.72.86-23.45,6.18-34.33,27.09-56.94,68-94.54,90.32,4.26-8.92,7.07-18,10.19-27.29,2.92-8.73,7.84-15.06,13.09-22.85,11.91-17.66,23.2-35.92,31-55.82,7.31-18.66,23-34.17,29.56-53.11,2.11-6.14,3.87-12.93,1.57-19-2.9-7.66-11.75-11.8-19.93-11.42-18.25.86-32.48,19.35-43.23,32.26-13,15.62-24,32.81-34.85,49.93,4.26-8.76,7.42-20,11.67-28.74,4.58-9.42,9.25-19.28,9.06-29.75s-6.92-21.61-17.28-23.1c-10-1.43-18.9,6.17-25.67,13.68-21.55,23.9-37.44,52.26-53.14,80.35-15.83,28.32-24.6,58.35-38.16,87.55q-12.22,26.3-24.29,52.67c-3.72,8.14-8.16,16.28-11.48,24.53-3.54,8.78-5.31,18.75-7.87,27.88-.4-4.43-2.61-11.06-5.63-14.33,1.25-9-1.6-18.78-5.86-26.78s-10.45-14.83-17.27-20.8c-2.8-2.45-5.78-4.81-9.28-6.07s-7.63-1.26-10.72.81c-1.41-.25-4.16-.23-4.89,1a9.7,9.7,0,0,0-1,4.13,60.93,60.93,0,0,0,3.52,25.91c1.22,3.34,2.77,6.84,2,10.31-5.92,27.33-.29,56.45-.68,84.4-.24,18,3.51,35.23,5.36,53.18A479.49,479.49,0,0,1,356,1841.1,480.55,480.55,0,0,1,341.46,1952c-14.09,55.72-21.85,113.22-36.53,169.08a1636,1636,0,0,1-54.56,169.44c-20.54,53.58-66.46,100.5-102.24,145.36" transform="translate(-12.4 -444.73)"/><path class="cls-1" d="M788.72,1129.92c-21.87-50.47-1-135.4-23.41-185.64" transform="translate(-12.4 -444.73)"/><path class="cls-1" d="M751.32,919.6c-50.34-66-125.29-145.28-193-193.33-19.83-14.08-40.45-27.36-63-36.41S448,676.14,423.91,679.77c-.05-19.27-19.35-37.12-38.12-41.5s-38.37,0-57,4.79c-40,10.35-79.32,23-118.63,35.65-26.53,8.53-53.88,17.52-74.77,35.95-31.33,27.65-42.45,71.06-52,111.75-8.66,37.07-13.44,70.27-7,107.79C79.57,953,85,971.48,85.05,990.5c0,26.7-10.65,53-7.77,79.51,2,18.57,10.06,35.56,14.49,53.31,5.49,21.94,5.85,46.75,6.18,69.24a468.38,468.38,0,0,1-19.17,139.91c-7.92,26.7-18.32,53.15-19.6,81-1.51,32.63,9.66,64.41,21.83,94.73,6.67,16.63,13.85,34.11,11.51,51.89-2.15,16.32-12,30.43-21.36,44s-18.76,28.15-19.74,44.59,9.84,34.76,26.27,35.94c13.89,14.61,11.59,41.28,5.09,60.36s-19.44,35.15-31.7,51.15-24.36,33-28.69,52.66c-6.6,30.06,5.91,60.73,19.16,88.5s27.89,56.81,25.72,87.51c-1.88,26.62,11,53,19,78.48,9.78,31.55,19.66,63.87,18.27,96.88s-16.28,67.4-45.26,83.26c-20.5,11.22-26.6,16.7-46.15,29.51,23.62,39.74,69.28,65.37,115.51,64.84s91.29-27.18,114-67.45" transform="translate(-12.4 -444.73)"/><path class="cls-1" d="M862.07,786.45C835.61,863.07,797.52,948.06,777.2,1046" transform="translate(-12.4 -444.73)"/><path class="cls-1" d="M1236.31,1143.9c5.3-5.11,10.26-10.55,15-15.63,42.4-45.58,108.82-63,159.48-98.13,77.11-53.55,147.9-101.24,181.65-188.84,18.84-48.92,25.06-103.65,11.27-154.23-13.88-50.89-46.92-94.64-84.72-131.44-46.12-44.89-101.29-81.84-163.18-99.51S1224.9,441.37,1168,471.48c-33.84,17.91-62.56,44.69-97.23,60.93S944.6,614.56,924,655.82l-32.73,65.46c-8,15.9-27.83,41.07-29.29,58.67-2.76,33.1,50.22,86.36,69.15,111.26,13.64,17.95,28.09,36.57,48.51,46.15,28.55,13.41,61.93,6.31,93.46,7.12a182.8,182.8,0,0,1,107.31,38.66c30.2,23.73,53.21,59.56,52.54,98s-30.38,76.85-68.71,79.07c17.57-1,26.58,9.32,44.78,2.49C1219.21,1158.82,1228.17,1151.74,1236.31,1143.9Z" transform="translate(-12.4 -444.73)"/><path class="cls-1" d="M1356.89,1061c13.88,14.14,22.53,8.62,39,9,10.47.25,22.18-2.7,21.1,12.56-.68,9.55-14.22,21.25-20.58,27.59-18.81,18.78-41.84,31.39-66.42,41-10,3.91-22,5.84-31.36,11.21-10.79,6.21-16.79,16.76-29.63,20-19,4.86-39.21-3.6-41-24.28.85,9.95-49,33.5-57.22,37.79-21.29,11.18-44.46,16.62-67.78,23.32C1020.36,1243,934.57,1267,849.5,1254.33" transform="translate(-12.4 -444.73)"/><path class="cls-1" d="M804.89,943.91c-12.59,2.65-27-2.28-39.58.37" transform="translate(-12.4 -444.73)"/><path class="cls-1" d="M1628,1728.39a537.1,537.1,0,0,0-232.24-40.19c-89.37-10-165.49-18.82-255-10.63" transform="translate(-12.4 -444.73)"/><path class="cls-1" d="M1411.86,1093.86c71.88,32.09,127,72.89,198.82,105,49.65,22.16,101.28,45.82,135.1,88.4,49.91,62.84,49.31,150.63,46.36,230.83q-6.67,181.77-13.37,363.55c-1.74,47.34-4.23,97.21-29.69,137.16-32.9,51.64-98.36,74.91-159.56,73.38S1478.16,2063,1421,2040.94" transform="translate(-12.4 -444.73)"/><path class="cls-1" d="M1394.56,1306c-31.88,53.08-56.24,158.93-40.5,220.9" transform="translate(-12.4 -444.73)"/><path class="cls-1" d="M1236.5,1176c-25.79,22.12-54.47,45.47-80.27,67.59-39.7,34.06-80.37,69.31-104.46,115.75" transform="translate(-12.4 -444.73)"/><path class="cls-1" d="M1113.44,1674.81c-83.83-11.18-172.57-30.91-253.44-55.66-40.83-12.49-104.38-39.77-125.7-79.5-9.34-17.39-8.91-37.49-16.54-55.06-8.58-19.74-19.72-38.68-31.32-56.77-17.25-26.88-38.21-55-65.42-72.62-27.68-17.91-58.31-24.48-83.5-48.14-18.62-17.49-38.56-35.4-62-45.62-11.75-5.13-24.15-12.21-34-20.43-8.39-7-17.94-6.27-27.07-.26-3.93,2.59-19,31.31-12.07,46,9.68,20.62,31.23,41.62,48.22,56.61,23,20.24,51.76,36.14,79.48,48.77" transform="translate(-12.4 -444.73)"/><path class="cls-1" d="M428.4,1322.11c-27.75,19.92-25.56,58.73-18.68,80.1-6.15,2.56-9.87,4.39-12.67,10.42-6.27,13.49-4.07,23.14-4.66,34.86-18.3,7.55-29.47,23.72-29.72,43.52-10.51,4.85-14.08,15.49-16.26,26.85a161.61,161.61,0,0,0,7.31,86.75" transform="translate(-12.4 -444.73)"/><path class="cls-1" d="M638.25,1783.15l305.11,158.38" transform="translate(-12.4 -444.73)"/><path class="cls-1" d="M1010.29,2018.1c-23.36,35.92-48.11,68.94-69.21,106.12-17.42,30.72-35.35,62.08-60.46,87.29-74.27,74.56-162.17-22.67-214.18-78.15-41.73-44.5-83.19-91.53-137.56-119.21" transform="translate(-12.4 -444.73)"/><path class="cls-1" d="M1194,2433.67c2.78-28,5.56-68.93,8.34-96.94-14.55-1.54-27.81,14.24-39.65,22.86-43.58,31.73-112.29,61.92-164.22,76.41" transform="translate(-12.4 -444.73)"/><path class="cls-1" d="M625.44,2436c-51.15-4.46-145.18-24-153.68-93" transform="translate(-12.4 -444.73)"/><path class="cls-1" d="M148.13,2376c-5.21,18.15-21.28,41-20.69,59.89" transform="translate(-12.4 -444.73)"/><path class="cls-1" d="M861.79,816.19c2.57,8.16,9.47,17.63,11.72,25.41,4,13.69,6.07,27.85,8.65,41.84,4.28,23.17,10.38,47.19,26.23,64.62-15.57-8.24-25.08-25.24-32.43-41.25s-11.1-33.39-14.81-50.61c-1.48-6.89-2.33-13.4-4.22-20.26a30.11,30.11,0,0,1,3.93-24.41A19.93,19.93,0,0,0,861.79,816.19Z" transform="translate(-12.4 -444.73)"/><path class="cls-1" d="M949.3,1006.13c9.35,2.24,18,6.83,26.15,11.88,24.63,15.22,46.2,34.89,70,51.45,31,21.6,68,33,104.56,41.29-38.84,3-80.4-9.53-114.19-28.93S975.15,1035.27,949.3,1006.13Z" transform="translate(-12.4 -444.73)"/><path class="cls-1" d="M861.1,865l-.4,16.17c-.21,8.26-.2,17.21,4.76,23.82,2.51,3.35,6.08,5.75,8.91,8.83,4.13,4.5,6.53,10.28,8.86,15.93" transform="translate(-12.4 -444.73)"/><path class="cls-1" d="M985.68,1046l9.58,25.81c1.82,4.91,3.69,9.9,6.9,14,9.18,11.86,26,13.44,40.78,16.15a162.32,162.32,0,0,1,42,13.89" transform="translate(-12.4 -444.73)"/><path class="cls-1" d="M897.23,1095.33c4.88,2.26,9.63,5.23,12.65,9.68s3.93,10.65,1.07,15.21c-4.45,7.1-14.68,6.88-23,5.81l-66.33-8.53c-4.51-.58-9.09-1.18-13.24-3-9.51-4.26-15.15-14.63-16.5-25s.91-20.78,3.35-30.91c2.82-11.75,6.38-24.23,15.65-32,4.74-4,10.59-6.34,15.75-9.76s9.88-8.48,10.24-14.65" transform="translate(-12.4 -444.73)"/><path class="cls-1" d="M813.34,1176c7.42,8.6,25.33,21.28,36,25.14,6.9,2.49,14.08,4.87,21.4,4.41,13.12-.83,26.91-9.47,39.82-7-12.23-10.57-29.51-12.34-44.53-18.32-8.75-3.48-16.81-8.45-24.82-13.39l-23.13-14.26c-3.36-2.07-6.78-4.19-9.39-7.15s-4.23-6.53-5.86-10.07L792,1111.67c.44,9.09.47,23.33,3.86,31.78" transform="translate(-12.4 -444.73)"/><path class="cls-1" d="M808.71,2124.5c4.85,36.69,7.11,75.57-8.38,109.18" transform="translate(-12.4 -444.73)"/><path class="cls-1" d="M837.11,2140.57a167.09,167.09,0,0,0,19.63,89.2" transform="translate(-12.4 -444.73)"/><path class="cls-1" d="M538.69,1646.66a325.71,325.71,0,0,0,12-39.5c1.89-8,11-27.2,17.1-31.54" transform="translate(-12.4 -444.73)"/><path class="cls-1" d="M474.18,1633.23c14.25-43.48,25.56-54.32,36.32-88.38,1.71-5.41,1.22-11.34,2.91-16.75a65.43,65.43,0,0,1,5.19-11.52c9.72-17.92,22.63-33.43,36.61-48.26" transform="translate(-12.4 -444.73)"/><path class="cls-1" d="M398.1,1669.24c-.22,31.77-14.14,50.78-25.68,80.39" transform="translate(-12.4 -444.73)"/><path class="cls-1" d="M910.58,1198.53c-16-3.2-34.42-7.4-50-12.22-12.08-3.73-24.11-8-35-14.49s-26.16-21.72-33.59-60.15" transform="translate(-12.4 -444.73)"/><path class="cls-1" d="M437.14,1238.07c-11.92,4-15.18,10.33-20.28,17.49-3.66,5.13-7.06,11.17-6,17.39s6.22,10.9,11.37,14.58c6.25,4.46,14.22,8.45,21.35,5.57,6.9-2.8,23.3-18.46,26.55-20.64s3.06-9,1.73-12.71" transform="translate(-12.4 -444.73)"/><path class="cls-1" d="M552.36,1387c-5,1.47-6.88,5.19-10.45,9-6.33,6.7-13.68,21.61-7.82,28.72s17.53,9.79,24.11,3.22a52.64,52.64,0,0,0,14.42-27.18" transform="translate(-12.4 -444.73)"/><path class="cls-1" d="M654.1,1401c-3.8,9.67-13.61,20.19-22.75,25.15-7.33,4-15.44,1.66-21.55-3.75a9.28,9.28,0,0,1-2.63-10c3.76-10.78,14.56-17.72,22.62-25.86" transform="translate(-12.4 -444.73)"/><path class="cls-1" d="M677.28,1477.81c-11.56,7.32-38.18,38.11-11.5,41.57,6.26.81,12.65-1.7,17.49-5.75a51.79,51.79,0,0,0,12.57-15.92" transform="translate(-12.4 -444.73)"/><path class="cls-1" d="M715.31,1560.73c-9.91,8.32-14.32,20.72-16.91,26.83a6.54,6.54,0,0,0,.39,5.93c4.29,7.07,14,12.48,19.47,7,7.06-7,14.52-20.87,17.47-30.4" transform="translate(-12.4 -444.73)"/><path class="cls-1" d="M906,1842.63c8.68,4.5,12.86,20.75,16.25,29.54,1.64,4.25,3.39,7.25.59,11.28-2.22,3.18-7.63,3.21-11.63,3" transform="translate(-12.4 -444.73)"/><path class="cls-1" d="M1000.61,1728.23c1.2,9.58,3.1,21.75,4.3,31.33,3.28,3.81,9,4.74,13.88,3.6s9.19-.86,13.37-3.66c4.22-13.4,1.06-27.79-3.11-41.2" transform="translate(-12.4 -444.73)"/><path class="cls-1" d="M1136.77,1674.81c-1.13,4.17.07,8.56.62,12.85s.17,9.23-3.13,12c-2.18,1.83-5.18,2.3-8,2.48a55.37,55.37,0,0,1-11.29-.44,13,13,0,0,1-5.32-1.65,9.9,9.9,0,0,1-4-7.09,29.11,29.11,0,0,1,.49-8.37" transform="translate(-12.4 -444.73)"/><path class="cls-1" d="M1238.2,1690.73c3,10.39,3.07,24.73-4.65,32.3-3.57,3.5-8.42,6.18-13.38,5.55-5.34-.69-9.64-5.2-11.28-10.33a35.43,35.43,0,0,1-.54-17.91" transform="translate(-12.4 -444.73)"/><path class="cls-1" d="M1411.86,1898.23c-3.61,2.18-8.44,1.43-11.94-.91s-5.9-6-7.82-9.76a64.29,64.29,0,0,1-6.88-33.42" transform="translate(-12.4 -444.73)"/><path class="cls-1" d="M311.34,1194.09c-1.77-2.3-3.58-4.7-4.15-7.54s.54-6.24,3.22-7.34c1.76-.73,3.77-.33,5.61.18,8.22,2.25,19.5,7.18,24.67,14.36,4.84,6.72,4,15.58,11.69,21.08,4.49,3.2,10.13,4.17,15.35,5.93s10.61,4.91,12.21,10.19c-1,.44-8.32.8-8.74-.16l-9.76,7.38" transform="translate(-12.4 -444.73)"/><path class="cls-1" d="M675.22,856.26c3.87-.33,7.17,2.94,8.8,6.45s2.22,7.46,4,10.92c6,11.8,23.71,14.67,28,27.17,1.22,3.52,1.15,7.33,1.64,11s1.71,7.58,4.72,9.78,8.12,1.61,9.49-1.85" transform="translate(-12.4 -444.73)"/><path class="cls-1" d="M349.55,1606.05a53.25,53.25,0,0,1,.5,39.8" transform="translate(-12.4 -444.73)"/><path class="cls-1" d="M1416,2060.46c22.55,45.4,29.22,101.93,25.2,152.47" transform="translate(-12.4 -444.73)"/></svg>