<svg xmlns="http://www.w3.org/2000/svg" viewBox="0 0 358.67 431.03"><defs><style>.a{fill:none;stroke:#d4a440;stroke-miterlimit:10;stroke-width:0.5px;}</style></defs><title>lima</title><path class="a" d="M157.93,1a48.65,48.65,0,0,1-4.86,20.86c-1,2.07-2.07,5.63-1.21,8.1s4.63,3.1,4.85,4.45" transform="translate(-0.05 -0.09)"/><path class="a" d="M180.18,12.18c.28,4,4.18,6.54,4.77,9.8.64,3.52-3.76,6-6,8" transform="translate(-0.05 -0.09)"/><path class="a" d="M175.93,29c-6.61-1.93-9.12-2.1-5.83,2.21" transform="translate(-0.05 -0.09)"/><path class="a" d="M161.93,31.61c-1.15-2.19-3.12-4.66-6.15,0" transform="translate(-0.05 -0.09)"/><path class="a" d="M269,1c-3.39,1.75-4.08,13.31-7.95,16.46-2,1.62-5.47,3.72-8.21,3.19-4.23-.81-2.73-3.87-2.22-7,.55-3.42.25-9.41,3.44-11.85" transform="translate(-0.05 -0.09)"/><path class="a" d="M122.49,1c-.29,6.94,1.65,20.83,3.6,27.5,3.65,12.56,7.56,25.24,14.56,36.32S158.17,85.4,171,88.43c11.67,2.75,24.14-.09,34.75-5.63S225.39,69.2,234,60.94c3.15-3,6.31-6.13,8.53-9.88,2.7-4.55,3.88-9.81,4.85-15,1.19-6.34,2.13-12.74,2.8-19.15" transform="translate(-0.05 -0.09)"/><path class="a" d="M156.22,82.26c-2.92,16.94,6.78,33.31,9.27,50.31,1.32,9.07.58,18.29-.16,27.42-.53,6.48.34,13.92-4.05,18.71" transform="translate(-0.05 -0.09)"/><path class="a" d="M246.8,142.28q-23.9,4.16-47.32,10.56c-4.75,1.3-9.53,2.69-13.84,5.09a61.18,61.18,0,0,0-10.83,8.24q-6.88,6.14-13.53,12.53" transform="translate(-0.05 -0.09)"/><path class="a" d="M193.71,116.65a115,115,0,0,1-8.5,34.53c-2.4,5.73-12.27,17.07-17.05,21" transform="translate(-0.05 -0.09)"/><path class="a" d="M252.8,20.68c-.61,10.77-1.37,26.37-2,37.14a91.23,91.23,0,0,0,0,15.68,45.52,45.52,0,0,0,5.38,16.68c5.29,9.52,13.85,16.8,22.87,22.87s18.69,11.14,27.49,17.54c28.26,20.57,45.94,55.1,46.15,90.17,0,3.23,1.12,11.28,1.5,15.21.76,7.84,1.86,15.77,2.28,23.65.84,15.47,2,30.81,2,46.39,0,26.22-5.58,50.86-7,76.81-.92,16.75-5.32,31.87-8.18,48.21" transform="translate(-0.05 -0.09)"/><path class="a" d="M144.2,228.83c-39.77,21.75-53.57,31.33-57.57,62.66" transform="translate(-0.05 -0.09)"/><path class="a" d="M334.8,160.49C307.93,132.76,279,138,259.93,149c-10.44,6-19,14.72-27.58,23.2-9.66,9.57-19.49,19-30,27.65-38.45,31.72-85.7,51.86-115.74,91.64" transform="translate(-0.05 -0.09)"/><path class="a" d="M86.71,291.86c-5.3-3.18-28-28.55-9.94-48.88C87.54,230.89,97.84,226.82,106,220.7c8.66-6.49,16.18-14.28,24.52-21.18,25.14-20.82,31.06-44.57,31.94-62,.62-12.18-6.66-27.77-6.66-45.31" transform="translate(-0.05 -0.09)"/><path class="a" d="M71.53.19C61.93,23,55.17,50,53.44,90c-.38,8.79-20.83,59-12.53,88.87a60.06,60.06,0,0,1,2,10.88c.62,7.51-2.86,14.66-6.24,21.34-4.14,8.19-8.3,16.41-13.63,23.84-3.27,4.57-7,8.83-9.89,13.64-6.9,11.41-8.91,25.35-8.06,38.73S9.47,313.67,13,326.6c5.32,19.57,8.54,41-12.87,46.85" transform="translate(-0.05 -0.09)"/><path class="a" d="M286.93,1c8,6.52,0,58,10.91,88.65,6.69,18.8,27.58,53,37,70.81" transform="translate(-0.05 -0.09)"/><path class="a" d="M148.38,50l5.73-5.3c2.36-2.19,5.39-4.55,8.47-3.61,1.26.38,2.34,1.29,3.64,1.5,2,.33,3.83-1,5.68-1.9,4.29-2,9.33-1.08,13.84.3s9,3.25,13.73,3.16" transform="translate(-0.05 -0.09)"/><path class="a" d="M199.14,44.24l-6.33,5c-4.17,3.25-8.38,6.54-13.15,8.8a36,36,0,0,1-10.9,3.16c-3.75.46-7.77.28-11-1.67-3.94-2.36-6-6.82-9.33-10" transform="translate(-0.05 -0.09)"/><path class="a" d="M150.2,50.23c1.63.11,2.92,1,4.71.92s3.24-.84,4.84-1.13a40.55,40.55,0,0,1,9.14-.53c6.14.19,12.76-3.06,19.06-3.69,3.4-.34,7.28-1.37,10.59-.87" transform="translate(-0.05 -0.09)"/><path class="a" d="M258.93,279.48c-3.05,8.09,6.6,54.93,7.09,63.81.57,10.24,4.6,23.34-.45,32.75C256,394,256,412,249.79,431" transform="translate(-0.05 -0.09)"/><path class="a" d="M334.8,160.49" transform="translate(-0.05 -0.09)"/><path class="a" d="M299.7,140.81" transform="translate(-0.05 -0.09)"/><path class="a" d="M.13,373.45c6.34,0,10.51-3.62,14.58-5.48A58.81,58.81,0,0,0,31,357.67c9.88-9,12.71-20.52,16.73-32.9,6.7-20.63,9.15-41.9,14.53-62.27,2.36-8.93,10.86-18,18.13-23.36" transform="translate(-0.05 -0.09)"/><path class="a" d="M47.76,324.77c-4.24,8.5.47,25.88,3.52,34.07,4.18,11.2,6.46,24.26,7.2,36.19a146.77,146.77,0,0,1,0,16.78c-.29,5.79.14,13.78-2,19.22" transform="translate(-0.05 -0.09)"/><path class="a" d="M222.45,326.61c-10.54,16.09-16.39,22.52-36.19,27.15" transform="translate(-0.05 -0.09)"/><path class="a" d="M166,257.23l-17.7-1.62-3.24,44.51" transform="translate(-0.05 -0.09)"/><line class="a" x1="168.2" y1="257.34" x2="167.72" y2="257.3"/><path class="a" d="M154.28,299.31l34.94-40-18.68-1.71" transform="translate(-0.05 -0.09)"/><path class="a" d="M170.3,255.59c.21-.29.42-.59.63-.87.84-1.14,1.94-2.36,2.77-2.28" transform="translate(-0.05 -0.09)"/><path class="a" d="M165.79,263.09c.32-.65.67-1.3,1-1.95" transform="translate(-0.05 -0.09)"/><path class="a" d="M157.79,266c.9-1.12,1.2-1,1.86-.6a3.41,3.41,0,0,1,1.37,1.8c.34.93.17,2.34.59,2.63s1.18-1.1,1.87-2a8.05,8.05,0,0,0,1.14-2.22c.09-.21.18-.41.28-.62" transform="translate(-0.05 -0.09)"/><path class="a" d="M156.86,281.69a1.18,1.18,0,0,1-.47-.72,6.45,6.45,0,0,1,.39-3.31c.55-1.66,1.38-3.37,1.74-5a14,14,0,0,0,.24-3.16,6.49,6.49,0,0,0-.29-2.36,4.32,4.32,0,0,0-.68-1.2" transform="translate(-0.05 -0.09)"/><path class="a" d="M156.4,280.93h0c-.53,1.67-3.33,7.38-4.91,9.19" transform="translate(-0.05 -0.09)"/><path class="a" d="M163.39,277.31c-4.76,6.92-8.83,9.94-11.9,12.89a25.65,25.65,0,0,0-2.08,2.22c-7.32,9-6,18.93-4.89,20.72" transform="translate(-0.05 -0.09)"/><path class="a" d="M144.58,313v-.17c.1-3,.65-8.43,2.37-11.74,2.17-4.17,3.4-5.08,6.48-8.56a60.36,60.36,0,0,0,6.39-9c1.23-2.06,2.4-4.16,3.56-6.26" transform="translate(-0.05 -0.09)"/><path class="a" d="M159.83,283.57h0c-.83,2.11-1.74,4.22-2.71,6.32A44.44,44.44,0,0,1,150.93,300c-3.48,4.47-5.29,8.05-6.3,12.81a.45.45,0,0,1-.07.29" transform="translate(-0.05 -0.09)"/><path class="a" d="M144.58,313c.72-2.64,6.53-7.66,9.19-12.71,2.79-5.28,2.7-8.92,3.41-10.4" transform="translate(-0.05 -0.09)"/><path class="a" d="M159.93,277.25a19.21,19.21,0,0,1,5.41-7.41,11.38,11.38,0,0,1,2-3.88,1.17,1.17,0,0,1-1.07-.89c-.72.28-1,.28-1.32-.14l-.08-.09c-1,.5-1.84-.11-1.71-1.3a10.09,10.09,0,0,1,2.67-.45,7.8,7.8,0,0,1,2.41.67l.19.09a.93.93,0,0,1,.62.75v.15a3.49,3.49,0,0,1-.35,1.31c-2,4.64-1.47,5.8-5.27,11.26" transform="translate(-0.05 -0.09)"/><path class="a" d="M169,264.79v-.19a16.71,16.71,0,0,0,.35-3.6.68.68,0,0,0-.07-.37,4.53,4.53,0,0,0-.45-1.12l-.69-1.37-.47-.95a19.75,19.75,0,0,1-.75-2.37,5.35,5.35,0,0,0-.88,2.1,5.8,5.8,0,0,0,.29,3.27,5.64,5.64,0,0,0,.48.95,14.92,14.92,0,0,0,.94,1.31,1.75,1.75,0,0,1,.44,1.31h0" transform="translate(-0.05 -0.09)"/><path class="a" d="M173.7,252.44a69.05,69.05,0,0,0-3.72,6.25" transform="translate(-0.05 -0.09)"/><path class="a" d="M169.31,261.08V261a7.39,7.39,0,0,0,.62-2.31v-.38c.07-.89.15-1.79.26-2.71a11.77,11.77,0,0,1,.17-1.41,8,8,0,0,1,.61-2.46,1.49,1.49,0,0,0,.15-.4c.06-.31-.23-.38-.5-.19a2.66,2.66,0,0,0-.69.84,16,16,0,0,0-1.86,6.15h0" transform="translate(-0.05 -0.09)"/></svg>