<svg xmlns="http://www.w3.org/2000/svg" viewBox="0 0 2272.86 2611.97"><defs><style>.a{fill:none;stroke:#000;stroke-miterlimit:10;}</style></defs><title>lisa</title><path class="a" d="M471.21,345.85c.41,26.34,20.86,74.82,29.52,103.62,9.74,32.38,25.45,60.41,37.52,91.83,24.21,63,18.42,129.9,8,195.52-5.23,32.83-14.65,62.91-25.23,94.8-9,27-14.71,59.61-38.41,78.45-22.65,18-57.64,14.92-84.09,8-29.08-7.6-59.45-14.26-89.31-23.27-56.85-17.14-148-6.57-185.53-63.09" transform="translate(757.09 175.76)"/><path class="a" d="M446.15,606.68c-16.1,48.28-17,73.51-75.79,79.25" transform="translate(757.09 175.76)"/><path class="a" d="M398,784.22c23.16-6.67,14.52,64.15,10,77.13-12.78,36.56-50.72,26.1-74.71,9.33-16.39-11.46-21.19-18.63-26.12-37.09" transform="translate(757.09 175.76)"/><path class="a" d="M358.07,897.18c11.08,2.35,22.31,6.3,33.59,7.1,19.52,1.37,40-5.74,53.49-20.36,12.1-13.1,25.28-35.91,19-54.81-7.06,2.31-15.9,8.55-22.1,13.26a147.84,147.84,0,0,0-28.26,28.76c-7.44,10-19.68,9.6-32.22,18.17C375.4,893.52,368.88,892.17,358.07,897.18Z" transform="translate(757.09 175.76)"/><path class="a" d="M365.08,690.54c-1.77,7.58-4.88,12.73-4.23,20.84C379.44,718,403.68,707,418,697.17c17.4-12,34.09-26.52,43.54-45.31,4.57-9.07,12-21.53,11.54-32-5.66,6.39-25.17,8.17-32.5,4.26" transform="translate(757.09 175.76)"/><path class="a" d="M446.47,225.31c2.32-15,19.74-30,35.36-23.65,17.08,6.94,25.65,29.24,26.53,46.09,1.21,23.19.55,43.17,7.95,65.41,6.84,20.55,10.2,39.24,5.31,60.3-3.53,15.18-12.35,56.22-41.13,15.86" transform="translate(757.09 175.76)"/><path class="a" d="M130.14,337.91c-55,42.38-112.62,66.28-182.52,63.67-61.21-2.29-65.8,71.56-77.82,123.18-16,68.6-28.64,90-20,161.17,19.66,161.75-46.3,112.36,16,121.89,108.93,16.67,309.52,27.72,404.41-35.53C326,735.07,380,683.06,413.75,623.79c24.8-43.54,42.72-59.64,59.31-134.37,11.83-53.29,50.88-7.6-170.3-91.38-23.68-9-47.27-17.92-68-32.6-20.32-14.41-40.34-39.87-66.44-41.67C154.29,322.8,142.78,328,130.14,337.91Z" transform="translate(757.09 175.76)"/><path class="a" d="M438.39,200.21c0,14.57,10.67,31.68,14.27,50,4.13,21,12.57,43.49,16.19,65.09,10.85,64.9-17.24,82-35.92,121.68" transform="translate(757.09 175.76)"/><path class="a" d="M-327.62,453.31c-30.64,22.43-56.41,111.46-67.45,147.25-13.67,44.32-19.19,86.21-28,130.09-9.58,47.58-18.9,89.14-9.45,138.63,9.59,50.15,20.9,99.78,30.16,150.24,9.89,53.85,26,101.08,44.89,153.79,16,44.65,44.33,91.72,50,138.06,2.5,20.36-5,36.49-.3,52,1.3,4.33,15.26,9.23,16.9,18,1.42,7.69-6,14.43-8.81,21.68-6,15.19-25.5,35.61-13.22,52.72,9.48,13.22,42.61.9,56.67,14,29.8,27.68,72.66,133.55,179.44,87-42.9-32.28-100.35-72-103.7-132.67-2.44-44.24,39.84-103.21,79.11-118.8,29.79-11.83,64.57-12.17,93.09-25.68-37.21-22.18-72-59.09-86.22-100.49-8-23.15-2.75-48.14-7.8-70-5.54-23.94-26.71-44.13-39.17-65" transform="translate(757.09 175.76)"/><path class="a" d="M216,1050.65c25.51-16.4,46.81-53.51,59.33-71.66,15.37-22.28,46.4-54.72,41.18-80.82" transform="translate(757.09 175.76)"/><path class="a" d="M115.11,817.23c33.75,39.24,25.32,166.48,46,219,6,15.32,12.17,31.93,22.27,32" transform="translate(757.09 175.76)"/><path class="a" d="M523.94,357.63C558.85,359.89,622.51,491,635.75,526.9c19.41,52.71,34,109.19,32.79,165.68-27.93,1.54-55.44-20.62-83.07-16.31,18.5,27.87-23.47,77-46.22,94.39" transform="translate(757.09 175.76)"/><path class="a" d="M165.3,1237.31c-18.31,17.23-62.62,30.15-91.55,36.41-17.46,3.77-42.45,5.86-82.08,5.86" transform="translate(757.09 175.76)"/><path class="a" d="M366.2,1517.79c-49.22-39.32-157-54.14-214.44-36,30.27-12.1,56.56-27.82,85-45.1s74.12-29.91,101.56-49.48" transform="translate(757.09 175.76)"/><path class="a" d="M339.75,1176c.76-.29,1.52-.57,2.27-.83,21.24-7.48,44.1-10.4,66.57-12.72,21-2.17,41.08-3.56,55.17-21.25,15.52-19.49-11.91-36.36-29.29-41.15-23.72-6.53-51.34-5.94-75.59-1-22.47,4.59-43.54,8.35-67.05,8.35-22.52,0-43.61-7.09-65.51-5-38.37,3.59-71.68,60.1-30.12,80.59,4.35,2.15,9.26,5.82,14.27,4.76,24.5.17,47.33,12.68,71.85,10.59,25.75-2.21,46-21.79,70.86-26.48,27.41-5.17,55.65-4.16,83.4-4.19,16.41,0,24.78,2.94,37,12.7,8.36,6.69,23.35,19.21,19.84,31.44-3,10.65-23.3,14.76-32.51,18.2-14.86,5.54-29.17,8.38-44.38,11.39-29.17,5.76-57.91,17.48-87.17,24.43-14.82,3.53-32.45,3.29-48.07,3.27-13.77,0-32.43-4.76-45.44,0" transform="translate(757.09 175.76)"/><path class="a" d="M178.77,1164.75c.9,8.38-4.47,24.64-6,32.76-1.74,9.19-4.19,18.23-5.93,27.43-3.33,17.73-2.31,29.43,12.64,41.55,12.18,9.88,30.76,20.64,37,35.45,5.9,14,6.51,32.76,22.12,39.67,8.49,3.77,19.65,4.45,28.69,2.35,7.85-1.82,49.46-14.23,58.24-15.19,8.57-.94,17.12-3,25.72-3.41,17.53-.86,35.93,2.74,50.25-7.33,32.77-23,65.69-24.56,82.54-56.81,5.3-10.14,18-33.06,7.78-42.19" transform="translate(757.09 175.76)"/><path class="a" d="M434.28,1361.67c-4.16,3.43-13,5.56-18.4,7.56-8,3-15.71,7.21-24.06,9.32-15,3.78-30.47,5.64-45.69,7.77-12.08,1.69-25.85,2.54-38.18,1.32-10.18-1-20.53-9.17-29.36-13.81-13.57-7.14-23.12-21.31-23.37-28.66" transform="translate(757.09 175.76)"/><path class="a" d="M340.06,1090.3c6.87,0,17.52-8.07,23.22-12.24,7.27-5.33,15.6-9.39,22.78-14.86,7.42-5.65,13.64-12.31,21.7-17.38s16.8-12.21,25.72-16.11c14.26-6.23,30.33,7.82,41,15.79a24.48,24.48,0,0,1,10,18.87c.41,7.81-3.07,12.05-4.2,19.24s-2.08,15-2.77,21.72c-.73,7.2-8.62,19.48-9.36,19.07" transform="translate(757.09 175.76)"/><path class="a" d="M398.16,1063.84c-3.56,8.24-5.28,22.62,0,31.37" transform="translate(757.09 175.76)"/><path class="a" d="M423.43,1097.52c-.34-4.15,7.25-16.21,10.54-17.9,5.16-2.64,10.83-1.92,15.52.6a38.83,38.83,0,0,1,19.79,25.22c1.63,6.32-1,13.44-1.08,19" transform="translate(757.09 175.76)"/><path class="a" d="M449.58,1106.28c-4.09-1.68-19.85,7.14-23,10.22-4.38,4.29-6.63,7.41-5.65,13.69,1.8,11.66,9.81,23.59,29,22.74" transform="translate(757.09 175.76)"/><path class="a" d="M365.5,1097.8c-17.44-5-31.65-9.68-42.85-12-16.67-3.52-33.06-9.37-49.29-14.54-22.68-7.21-45.5-17.68-67.94-23.67-6.65-1.77-11.24-2.66-15.13,3.68a60.19,60.19,0,0,0-6.88,17c-2.33,12,23.64,17.2,32,20,14.38,4.82,36.56,13.53,50.89,17.89" transform="translate(757.09 175.76)"/><path class="a" d="M512.36,1150.84c-7.34-1.77-14.52-6.46-21.7-9.31s-14.32-8.54-21.68-10" transform="translate(757.09 175.76)"/><path class="a" d="M460.41,1171.8c8.79,5.91,28.7,8.82,37.88,13-3-3.93,1.66-14.61,2.86-19,1.66-6.06,4.43-14.62,11.79-14.42" transform="translate(757.09 175.76)"/><path class="a" d="M569.8,1195.39c-22.22-5.37-49.65-3.6-71.51-10.55" transform="translate(757.09 175.76)"/><path class="a" d="M512.94,1151.43c5.31.43,55.74,32.74,59.79,31.65.13,3.87-.85,9.21-2.93,12.31,5.24-.7,27.88,2.24,31.65,7-.2,0-9.05-9.23-15.19-12.55-4.58-2.47-10.72-2.23-13.53-6.79" transform="translate(757.09 175.76)"/><path class="a" d="M226.24,1042.79c11-10.4,20.45-91.73,26.85-109.58-4.49,15.4-12.2,66.73,3.9,73.18" transform="translate(757.09 175.76)"/><path class="a" d="M623.65,1126.88C545.24,1092,606.7,995,623.91,960.52c3.59-7.19,8-13.5,11.92-20.5" transform="translate(757.09 175.76)"/><path class="a" d="M599.64,1162.62c-50.87-41.9-82.61-74.17-73.11-102.74,10.18-30.59,34.82-58.93,54.84-83.65C591,964.34,600,950.11,611.3,939.51c11.06-10.39,21.25,2.27,28.89-10.24,13.75-22.53,25.11-27.26,39.91-28.75C698,898.72,703.68,908,718.36,914c13.24,5.42,64.64,11.16,47.21,34.53s-39.77,41.7-57.25,65.08c-7.57,10.13-23.52,30.65-34,37.58" transform="translate(757.09 175.76)"/><path class="a" d="M705.3,935.93c-15.55,14.12-27.71,42.26-34.21,62-5.51,16.72-8.76,49.55-22.19,72.28" transform="translate(757.09 175.76)"/><path class="a" d="M674.36,1051.22c-5.53,9.67-10.45,28-10.45,39.19,0,12.16-1.86,22.08-4.39,33.6-1.28,5.86-1.31,12.3-3.09,17.8-3.51-11.37-5.51-23.88-7.31-35.85-1.71-11.41-3.76-24.45-.22-35.77C650.47,1065.17,660.59,1051.48,674.36,1051.22Z" transform="translate(757.09 175.76)"/><path class="a" d="M647.79,1096.52a244,244,0,0,0-20.72,25.62c-6,8.68-12.56,16.14-18.68,24.75-11.27,15.86-14.71,24.94,1.89,39.95,9.46,8.55,20.65,13.08,27.25,22.24-.29.49-.7.91-1,1.4" transform="translate(757.09 175.76)"/><path class="a" d="M637.78,1209.23c-4.51,4.94-7.47,9.35-13.65,12.93-7.79,4.5-16.51,7.66-24.92,11q-23.13,9.32-46.65,17.71c-14.33,5.09-29.07,9.95-42.92,14.92-13.36,4.8-24.15,15.48-26.76,29.57a59.78,59.78,0,0,0,.31,22.39c1.33,5.87,4.81,17.72,9.64,21.46" transform="translate(757.09 175.76)"/><path class="a" d="M599.64,1162.62c-3.94,6.91-19.18,20.48-26.93,22.22" transform="translate(757.09 175.76)"/><path class="a" d="M565.66,1194.48c10.35,19.32,32.93,32.73,54.08,27.82" transform="translate(757.09 175.76)"/><path class="a" d="M568,1198.35c-15.66-.13-28,20.32-31.57,30.17-3.16,8.82-15,22.7-13.77,32.76" transform="translate(757.09 175.76)"/><path class="a" d="M532.75,1235.57c-12.52-11.09-30.94-1.83-39.92,8.5" transform="translate(757.09 175.76)"/><path class="a" d="M522.61,1230.54c-7.89,5.5-7.09,23.31.08,27.84" transform="translate(757.09 175.76)"/><path class="a" d="M483.19,1317.79c-8.14,20.53-31.24,37.06-44.48,45.11" transform="translate(757.09 175.76)"/><path class="a" d="M438.71,1362.9c8.67,6.73,10.15,11.29,10,22.39-.22,12.46,7.8,15.91,15.59,24.14,14.29,15.1,30.37,79.93,32.32,91.57" transform="translate(757.09 175.76)"/><path class="a" d="M438.71,1362.9c-13.8,13.14-.25,45.49,5.58,57.54,8.82,18.21,19.5,35.68,29.57,52.9,4.7,8,17.85,29,25.29,34.39" transform="translate(757.09 175.76)"/><path class="a" d="M433,1384.83c-7.08,8.84-15.84,24.15-20.25,34.66-5.23,12.43-.75,21.62,4.82,33,13,26.57,36.88,40.6,61.39,56.28,8.93,5.71,25.43,22.82,36.22,22.6-4.89-9.88-16.21-19.58-18.6-30.36" transform="translate(757.09 175.76)"/><path class="a" d="M492.83,1339.25c5.89,5.38,12.92,9.63,17.25,16.32a74.18,74.18,0,0,1,10,24.26c3.25,13.66,16.54,35,33.12,32.85,7-.89,18.85-7.53,19.9-15.57" transform="translate(757.09 175.76)"/><path class="a" d="M674.49,1298.2c9-3.81,11.81,11.65,13.07,17.1a98.34,98.34,0,0,0,9.48,25.82c9.37,17.3,26.05,29.27,42.12,39.66,6.15,4,20.36,12.09,25.54,12" transform="translate(757.09 175.76)"/><path class="a" d="M686.5,1310.74c-2.87,2.13-12,8.15-21.65,4.89-4.57-1.54-7.56-8.45-10.28-2.52-5,10.86,4.67,30.12,8.7,39.57,6.83,16,18,32.73,30.82,44.43a99.52,99.52,0,0,0,16.48,12.3c2.43,1.41,13.12,7.65,15.55,7,4.82-1.19,3.71-12.34,5-16.24,1.55-4.81,10.64-12.64,15.25-15.12" transform="translate(757.09 175.76)"/><path class="a" d="M715.55,1197.41c-9.61-1.67-19.09,12.46-16.49,21.78s17.94,14.93,25,20.5c18.29,14.51,38.33,25.14,57.86,37.9,4.68,3.06,31.17,16.64,29.29,21.85" transform="translate(757.09 175.76)"/><path class="a" d="M803.55,1265.31c-4.72-4.17-8.69-14.46-14.59-18.75-10.22-7.43-68.72-51.09-74.66-48.52" transform="translate(757.09 175.76)"/><path class="a" d="M822,917.05c-36.72,26.39-31.32,98.6-34.76,125.44-6.1,47.63-6.24,101.88,3.78,148.67,21.06,98.25,29.11,199.62,71.43,293.58,17,37.79,80.91,167.21,155.07,142.94" transform="translate(757.09 175.76)"/><path class="a" d="M1097.07,1019.53c-6.76-22.44-21.51-46.55-33.71-66.41-14.93-24.32-33.42-44.73-59-57.69-39.62-20-100.43-17.23-140.61.38-19.64,8.61-26,8.66-41.73,21.24" transform="translate(757.09 175.76)"/><path class="a" d="M962.23,1620.93c-7.37,4.16-20.18,9.17-29.59,15.17-7.23,4.61-32.09,8-32.44,11.8" transform="translate(757.09 175.76)"/><path class="a" d="M943.35,1650.6c-12.33,5.43-19.68-11.7-33.42-7.26" transform="translate(757.09 175.76)"/><path class="a" d="M943.35,1652c17.68,15.38,45.88,25.17,66.07,9.44" transform="translate(757.09 175.76)"/><path class="a" d="M1035,1670.83c-20,18.4-52,8.89-71.46,24.27" transform="translate(757.09 175.76)"/><path class="a" d="M1052.51,1675.2c-44,24.66-125.76,66.14-174.25,35.1-11.67-7.46-25.23-25.24-40.09-13.85" transform="translate(757.09 175.76)"/><path class="a" d="M931.21,1721.66c-38.47,34.2-41,49.3-45.91,76.19-5.17,28.11,1.67,56.55,7.86,83.27,3.82,16.43,13.23,37.28,20.52,52.65" transform="translate(757.09 175.76)"/><path class="a" d="M410.43,1431c4.68,3.83-44.24,49.86-44.23,86.77,0,29.19,23.36,59.06,42.79,80.55,63.83,70.59,161.13,128.56,259.28,125.08,55.58-2,100.37-14.15,138.89-58" transform="translate(757.09 175.76)"/><path class="a" d="M497.85,1672.8c-21,47-41.76,97.34-71,141-30,45-59.78,90.67-90.31,134.78-10.77,15.55-24.93,42.34-41.84,58" transform="translate(757.09 175.76)"/><path class="a" d="M913.68,1933.77c-44.16,66-351.18,161-578.45,321.95" transform="translate(757.09 175.76)"/><path class="a" d="M-76.83,1556.73c-26.95,43.92-113.82,141.59-167.68,166.47C-367.18,1779.87-429,1898.86-526.1,1992.85c-103.36,100.07-139.75,255.32-230.6,366.86" transform="translate(757.09 175.76)"/><path class="a" d="M439.8,1629c-26.34,16.68-70.42,50.89-94.93,70.22-35,27.6-128.25,80.13-166,166.6C145.29,1942.6,58.22,2406.68,49.14,2436" transform="translate(757.09 175.76)"/><path class="a" d="M431.26,1621.15c-33.94,6.82-95.38,42-123,61.13-42.22,29.2-83.57,63.06-111.94,105.9C135.23,1880.36,73,2382.74,49.14,2436" transform="translate(757.09 175.76)"/><path class="a" d="M1051.23,1627.68c-20.78-24,1.75-92.23,17.53-113.27,31.88-42.52,85.09-49.66,132.14-28.39,50.71,22.92,80.64,76.89,58,131.23-19.93,47.81-70.68,73.29-120.38,77.54-27.41,2.35-62.29-6.42-86-19.59-31.94-17.74-32.21-16.47-35-47.52" transform="translate(757.09 175.76)"/><path class="a" d="M1231.92,1572.39c5.93-10.46-17.9-27.68-24.94-34.28-17.34-16.29-32.59-24.84-57.25-25.08-20.49-.2-58.26,7.14-55.38,34.79,2.68,25.71,41.51,48,63.56,54.28,20.25,5.76,63.47,9.56,77.88-9.55C1235.87,1589.85,1234.62,1592.43,1231.92,1572.39Z" transform="translate(757.09 175.76)"/><path class="a" d="M1212.84,1544.55c-3,22.72-12.7,37.11,10.5,57.22" transform="translate(757.09 175.76)"/><path class="a" d="M1180.68,1519.36c-14,18.94-9.48,70.39,4.54,87.42" transform="translate(757.09 175.76)"/><path class="a" d="M1209.78,1473.1c-3.75-16.68,54.27-40.06,65-42.29,30.9-6.42,67.35-7.91,95,9.47,57.74,36.24,17.66,110.1-18.27,144.55-11.36,10.89-68.53,33-83.57,14.53" transform="translate(757.09 175.76)"/><path class="a" d="M1271.32,1533.49c39.22,11.06,72.24,8.5,85.33-23.13,16.71-40.38-29-54.92-60.34-46.82-17.74,4.59-37.42,21.78-50.69,32.73" transform="translate(757.09 175.76)"/><path class="a" d="M1261.58,1676.22c-4.73-19.18,4.47-73.19,10.1-91.56,7.44-24.27,5.37-43.91-7.44-65.87-21.74-37.28-79.39-64.77-122.5-55-21.12,4.82-35.61,7.25-47.28,26.34" transform="translate(757.09 175.76)"/><path class="a" d="M1098.42,1691.77c-26.4,1.15-61.23,47.39-36.51,77.83,29.95,36.87,123.88-11.72,133.31-57.87" transform="translate(757.09 175.76)"/><path class="a" d="M1125,1695.18c-15-1.48-57.2,58-34.74,71.11,16.13,9.42,52.14-11.36,64.72-20,15.54-10.62,31.71-17.54,40.24-34.61" transform="translate(757.09 175.76)"/><path class="a" d="M1072.59,1684.33c-27.55,9.6-71.2,49.2-84.77,75.49-12.27,23.77-18.36,61,13.5,69.48,33.22,8.89,71.65-8.21,101.48-21,28-12,69.86-35.69,77.57-69" transform="translate(757.09 175.76)"/><path class="a" d="M1080.89,1687.18c-16.56,10.88-83.79,99.3-53.28,117.66,14,8.42,42.25-2.48,56-7.77,18.65-7.19,29.69-7,41.41-19.74" transform="translate(757.09 175.76)"/><path class="a" d="M987.14,1706.76c-32,10.77-37.11,39.86-56.61,67.34-13.65,19.22-32.29,52.05-33,76.07" transform="translate(757.09 175.76)"/><path class="a" d="M897.5,1850.17c5.49-26.77,34.18-56.43,51.92-76.86,16.67-19.21,34-37.57,60-42.3" transform="translate(757.09 175.76)"/><path class="a" d="M923.3,1804.36c51.58,29,117.27,62.16,175.81,31.48,44.7-23.43,111.09-56.17,140.35-97.59,7.5-10.6,15.08-22,19.59-34.39,3-8.16-1.08-21,2.53-27.64" transform="translate(757.09 175.76)"/><path class="a" d="M1261.58,1676.22c1.13-2.7,4.08,1.76,9.44,2.39a89.13,89.13,0,0,0,13.49.31c13-.47,23.62-3.93,35.39-9.44,28.85-13.49,52.87-35.31,74.84-58.25,64.79-67.64,123.82-171.15,120.38-267.82-1-28.88-5.59-58.16-16.22-85.21-8.7-22.14-52.9-114-68.77-131.88" transform="translate(757.09 175.76)"/><path class="a" d="M1016.69,902.62c34.2-37,78-23,99.57-17.94,43.19,10.08,90.75,26.12,127.68,51.21,33.56,22.8,62.53,54.84,90.43,84,32.49,33.88,71.22,66.05,95.76,106.48" transform="translate(757.09 175.76)"/><path class="a" d="M1097.07,1019.53c3.56,21.34,12,43.23,16.55,65,9.31,45,10.49,90,6.21,135.74-7.61,81.1-24.13,159.28-62.2,231.79-9.07,17.28-49.23,64.34-57.65,75.81" transform="translate(757.09 175.76)"/><path class="a" d="M1000,1527.89c-21,16.64,4.77,83,17.53,99.79" transform="translate(757.09 175.76)"/><path class="a" d="M531,1095.21c-13.78,5.91-39.39,5-53.93,12.57" transform="translate(757.09 175.76)"/><path class="a" d="M887.52,1855.45c9.18,20.06,62.66,84.84,90.38,99.33-49.19,142.78-144.62,256.68-272.27,329.64-34.57,19.76-74.27,36-110.8,52.4a1144.67,1144.67,0,0,1-408.1,98.77" transform="translate(757.09 175.76)"/><path class="a" d="M958.86,2003.45c28,32,47,122.15,60.46,163.88,14.43,44.74,30.19,89.35,44.68,134.06,25.08,77.36,36.64,52.75,25.33,134.2" transform="translate(757.09 175.76)"/><path class="a" d="M294.75,2006.59c-83.46,62.77-135.65,188.23-156.26,286.86" transform="translate(757.09 175.76)"/><path class="a" d="M335.23,2255.72c-62.7,45.08-159.42,101.62-200.71,168.81" transform="translate(757.09 175.76)"/><path class="a" d="M138.49,2293.45c-9,56.11-7,73.35-4,131.08" transform="translate(757.09 175.76)"/><path class="a" d="M1425.48,923c-120.6-71.36-237.4-172.55-341.64-268C958.32,540.17,858.39,376,706.5,294.45c-52.07-28-140.78-59.37-198.59-38.74" transform="translate(757.09 175.76)"/><path class="a" d="M1436.14,1134.45c25.78-51.29,16.89-118.59-24.56-153.85-33.86-28.79-113.16-64.65-152.93-33.72" transform="translate(757.09 175.76)"/><path class="a" d="M1425.48,923c-2.44-7.85-7.23-11.66,5.08-19.26,50.09,27.79,67.59,78.73,62.41,132.46-3.84,39.83-6.33,106.28-34.81,136.86" transform="translate(757.09 175.76)"/><path class="a" d="M-180.11,638.05c-19.32,33.32-73.64,122.64-49,156.38,18.49,25.29,43.47-1.33,72.9,6.2" transform="translate(757.09 175.76)"/><path class="a" d="M151.76,1481.84c-45.78,14.9-76.07,23.68-123.67,34-20.2,4.38-39,11.07-58.64,16.94-14.06,4.21-36.67,15.27-46.28,23.93" transform="translate(757.09 175.76)"/><path class="a" d="M738.29,979.71c16.19-12.66,32.23-15.91,50.32-26.28,3-1.74,7.15-4.09,10.72-3.85" transform="translate(757.09 175.76)"/><path class="a" d="M843.67,902.46c-4-1.45-9.89,0-14,.41a138.87,138.87,0,0,0-16.93,2.76,92.72,92.72,0,0,0-37.32,17.27c-3,2.31-7.23,6.51-8.12,10.44" transform="translate(757.09 175.76)"/><path class="a" d="M-150.2,651.79c-62.23-19.3-129.8-103.33-159.39-157.88-27.88-51.43-36.49-105.78-39.29-162.83-1.16-23.68,0-82,51.8-138.08" transform="translate(757.09 175.76)"/><path class="a" d="M438.39,200.21c-12-18.05-14.81-47.1-22.15-68.87C401.37,87.22,380.14,47,355.58,7.46,305-73.94,231.77-139.47,137.08-163.14,93.3-174.08,49.08-179.68,4.85-171" transform="translate(757.09 175.76)"/><path class="a" d="M986,2056.21c-63.46,104.94-191.8,192.59-304.44,241.08" transform="translate(757.09 175.76)"/><path class="a" d="M-76.83,1214.63c-42.34,23.18-82.42,57-130.09,64.55" transform="translate(757.09 175.76)"/><path class="a" d="M-84.86,1201.16c-44.42,15.39-98.19,16.29-144.79,10" transform="translate(757.09 175.76)"/><path class="a" d="M-99.22,1151.83c-41.11,11.4-92.94,12.33-133.77,0" transform="translate(757.09 175.76)"/><path class="a" d="M-104,1103.47c-65.44,14.43-143.43-20.79-179.46-44.78" transform="translate(757.09 175.76)"/><path class="a" d="M-203.79,1432l-57,34.72" transform="translate(757.09 175.76)"/><path class="a" d="M-243.06,1375.84a305,305,0,0,1-51.9-.73" transform="translate(757.09 175.76)"/><path class="a" d="M1159.94,723.4c-2.5,37.24-14.92,85.58-40.26,113" transform="translate(757.09 175.76)"/><path class="a" d="M1223.41,777.56c-31.29,0-74.31,50.46-96.65,78" transform="translate(757.09 175.76)"/><path class="a" d="M1300.27,843.63a418.73,418.73,0,0,0-57.33,55.79" transform="translate(757.09 175.76)"/><path class="a" d="M1050.44,622.86c-9.5,63.19-42.88,141.33-92,182.25" transform="translate(757.09 175.76)"/><path class="a" d="M984.92,552.33c-6.55,68.27-29.76,154.6-67.06,212.14" transform="translate(757.09 175.76)"/><path class="a" d="M756.47,600.72Q718.7,717.8,673.14,832.15" transform="translate(757.09 175.76)"/><path class="a" d="M938.59,519.4a428.18,428.18,0,0,1-78.73,143.82" transform="translate(757.09 175.76)"/><path class="a" d="M654.23,280.21a346.57,346.57,0,0,1,3.67,200.21" transform="translate(757.09 175.76)"/><path class="a" d="M1433.87,924.45c24.76,21.95,31.92,61.36,16.46,90.61" transform="translate(757.09 175.76)"/><path class="a" d="M1259.81,1684.89c-.56,7.22-22.75,18.07-29.68,20.17-35.62,10.79-57.55,4.71-91.63-10.27" transform="translate(757.09 175.76)"/><path class="a" d="M580.29,1146.3c-15.7,4.36-31.1,4.54-46,16.2" transform="translate(757.09 175.76)"/><path class="a" d="M464.15,829.11c-8.52,19.9-25,38.85-43.16,50.6a110.51,110.51,0,0,1-61.53,17.59" transform="translate(757.09 175.76)"/><path class="a" d="M-297.08,193c25.92,76.74,99.56,134.05,180,143.92s164-26.39,214.74-89.56S165.81,96.73,147,17.94,74.62-129.91,4.85-171" transform="translate(757.09 175.76)"/></svg>