<?xml version="1.0" encoding="UTF-8" standalone="no"?>
<svg
   xmlns:dc="http://purl.org/dc/elements/1.1/"
   xmlns:cc="http://creativecommons.org/ns#"
   xmlns:rdf="http://www.w3.org/1999/02/22-rdf-syntax-ns#"
   xmlns:svg="http://www.w3.org/2000/svg"
   xmlns="http://www.w3.org/2000/svg"
   xmlns:sodipodi="http://sodipodi.sourceforge.net/DTD/sodipodi-0.dtd"
   xmlns:inkscape="http://www.inkscape.org/namespaces/inkscape"
   viewBox="0 0 1641.78 2404.36"
   version="1.1"
   id="svg80"
   sodipodi:docname="Mk3.svg"
   inkscape:version="0.92.4 (5da689c313, 2019-01-14)">
  <metadata
     id="metadata84">
    <rdf:RDF>
      <cc:Work
         rdf:about="">
        <dc:format>image/svg+xml</dc:format>
        <dc:type
           rdf:resource="http://purl.org/dc/dcmitype/StillImage" />
        <dc:title>Mk2</dc:title>
      </cc:Work>
    </rdf:RDF>
  </metadata>
  <sodipodi:namedview
     pagecolor="#ffffff"
     bordercolor="#666666"
     borderopacity="1"
     objecttolerance="10"
     gridtolerance="10"
     guidetolerance="10"
     inkscape:pageopacity="0"
     inkscape:pageshadow="2"
     inkscape:window-width="1366"
     inkscape:window-height="745"
     id="namedview82"
     showgrid="false"
     inkscape:zoom="2.2209944"
     inkscape:cx="1125.6201"
     inkscape:cy="1738.0175"
     inkscape:window-x="-8"
     inkscape:window-y="-8"
     inkscape:window-maximized="1"
     inkscape:current-layer="svg80" />
  <defs
     id="defs4">
    <style
       id="style2">.a{fill:none;stroke:#000;stroke-miterlimit:10;stroke-width:0.25px;}</style>
    <filter
       inkscape:label="Glow"
       inkscape:menu="Shadows and Glows"
       inkscape:menu-tooltip="Shadowy outer bevel"
       style="color-interpolation-filters:sRGB"
       width="100%"
       height="100%"
       x="0"
       y="0"
       filterUnits="userSpaceOnUse"
       id="filter919">
      <feMorphology
         result="result1"
         in="SourceAlpha"
         operator="dilate"
         radius="6.0999999999999996"
         id="feMorphology891"
         stdDeviation="6.54" />
      <feGaussianBlur
         stdDeviation="6.5361538461538453"
         in="result1"
         result="result0"
         radius="9.1999999999999993"
         id="feGaussianBlur893" />
      <feDiffuseLighting
         surfaceScale="-5"
         id="feDiffuseLighting897">
        <feDistantLight
           elevation="45"
           azimuth="225"
           id="feDistantLight895" />
      </feDiffuseLighting>
      <feComposite
         in2="result0"
         operator="in"
         result="result91"
         id="feComposite899" />
      <feComposite
         in="SourceGraphic"
         in2="result91"
         result="fbSourceGraphic"
         id="feComposite901" />
      <feColorMatrix
         result="fbSourceGraphicAlpha"
         in="fbSourceGraphic"
         values="0 0 0 -1 0 0 0 0 -1 0 0 0 0 -1 0 0 0 0 1 0"
         id="feColorMatrix903" />
      <feComposite
         in2="fbSourceGraphic"
         operator="arithmetic"
         k1="0"
         k2="1"
         result="composite1"
         in="fbSourceGraphic"
         k3="0"
         k4="0"
         id="feComposite905" />
      <feColorMatrix
         in="composite1"
         values="0"
         type="saturate"
         result="colormatrix1"
         id="feColorMatrix907" />
      <feFlood
         flood-opacity="1"
         flood-color="rgb(230,124,0)"
         result="flood1"
         id="feFlood909" />
      <feBlend
         in2="colormatrix1"
         in="flood1"
         mode="multiply"
         result="blend1"
         id="feBlend911" />
      <feBlend
         in2="blend1"
         mode="screen"
         result="blend2"
         id="feBlend913" />
      <feColorMatrix
         in="blend2"
         values="1"
         type="saturate"
         result="colormatrix2"
         id="feColorMatrix915" />
      <feComposite
         in2="fbSourceGraphic"
         in="colormatrix2"
         operator="in"
         result="composite2"
         id="feComposite917" />
    </filter>
  </defs>
  <title
     id="title6">Mk2</title>
  <path
     class="a"
     d="M678,124.26c-3.15,8.31-23.21,14.82-20.93,19.69,8.74,18.74,36.56,32.06,50,47.69,16.42,19.17,24.77,39.58,36,61.17a254.35,254.35,0,0,0,36.45,53.28c16.57,18.39,27.23,38.4,27.23,63,0,22.65-6,49.8,1.82,72.25,6.95,19.91,26.18,33.74,30.73,54.38,10,45.3,6.21,101,1.52,147.39-2.48,24.57-1.42,50.24-3,74.06-.82,12.62-2,24.94-1.35,37.77.89,18.46,3.84,35.74-5,53.36-8.48,16.91-26,27.32-43.66,34.17S751.35,853.63,734.94,863a96.62,96.62,0,0,0-38.24,40.55c-28.21,56.74-57.44,149.78-49.43,216.54"
     transform="translate(253.55 -33.75)"
     id="path8" />
  <path
     class="a"
     d="M870.89,1204.62"
     transform="translate(253.55 -33.75)"
     id="path10" />
  <path
     class="a"
     d="M678,124.26c-2.25,7-48,23.85-68.68,51.51-41.47,55.59-36.9,169.28-51.47,234.54-15.24,68.26-54.83,98.33-86.28,160.62C449.79,614,425,660.21,410,707.2c-8.06,25.3-8.79,50.29-8.79,79"
     transform="translate(253.55 -33.75)"
     id="path12" />
  <path
     class="a"
     d="M967.94,1348.1c-32.07,58.18-87.35,20-139.75,2.69-72.59-24-148-60.66-208-107.64C540.8,1181,501,1086.66,461.34,997.11,412.27,886.32,396,759.18,365,642.34c-19-71.5-33.61-145.48-35.47-219.63-1.72-68.25-26-134-17.28-203.46,5.48-43.63,23.66-87,57.05-115.62C388.13,87.45,411,76.61,434.33,68,482.92,50.18,544.1,51.87,591,73.82c72.27,33.84,111.81,66.43,153.38,109.76,53.12,55.36,72.28,91,81.69,161,5.1,38,.64,79.19-6.33,116.85"
     transform="translate(253.55 -33.75)"
     id="path14" />
  <path
     class="a"
     d="M831.42,376.93c14.87,19.63,19.72,44.88,23.47,69.21a1354.34,1354.34,0,0,1,15.26,167.37c.41,14.24.6,28.49,0,42.72-.58,14.55-2,29.06-2.54,43.62-1.39,34.4,1.62,68.89-.25,103.27-1.89,34.78-9,69.44-19.95,102.48a355.45,355.45,0,0,1-20.81,50.31c-6.75,13.18-14.67,33-28.08,40.47-2.7,1.51-5.78,2.77-7.44,5.39-2.09,3.31-1.16,7.76.92,11.08s5.12,5.89,7.6,8.91c8.54,10.38,9.63,25.42,5.75,38.29s-12.1,24-20.79,34.21c14.47,2.32,27.14,8.42,41.61,10.73,6.15,1,12.47,2,17.81,5.24,16,9.65,15.73,32.33,17.28,51,2.44,29.47,14.25,57.24,25.9,84.42,23.25,54.25,76.34,80.6,100.43,135.25,10.11,22.94,15.93,47.51,21.7,71.91,27.49,116.34,43.48,232.69,29.71,352.27,15.07,22.84,40.52,70.63,56.82,92.61,6.25,8.43,13,17.12,22.5,21.52,10,4.62,21.6,3.81,32.47,2.08a215.84,215.84,0,0,0,96-41c9-6.81,17.59-14.57,22.76-24.57,7.54-14.62,6.74-32,5.16-48.38A681.37,681.37,0,0,0,1226,1612.05c-24.16-58.24-43.58-114.64-48.84-177.47-1.55-18.58-2.06-37.34-6.14-55.54-3.57-15.94-9.83-31.15-14.32-46.86-13.24-46.27-10.91-95.36-8.46-143.42l4.38-86.08c1.92-37.76-2-65-22.48-98.26-13.81-22.37-30.27-43.18-42.09-66.67-14.81-29.44-21.84-62.11-28-94.49-26.39-30.8-75.92-79.43-111.94-116-3.57-3.63-4.62-10.2-12.74-7.79-4.88,1.45-10.66,4.44-8.9,9.22-5.85-7.49-18.71-4.95-24.67,2.44-7.36,9.13-6.94,22.66-2.06,33.32s13.46,19.1,21.86,27.28L953,822.24l-43.37-27.93c-2-1.29-4.15-2.63-6.53-2.69-2.92-.08-5.54,1.77-7.59,3.85-9.62,9.7-11.11,26.39-3.35,37.63,8.59,12.44,25.09,16.52,36.32,26.66,13.19,11.91,17.78,30.89,30,43.77A48.51,48.51,0,0,0,981,916.9c0,185.13-52,201.56-50.58,207.39-16-23.58-23-47.94-21-76.35.6-8.31,2-16.55,2.34-24.87.56-14.21-2.07-28.4-6.11-42-3.68-12.43-8.84-25-18.44-33.67s-24.62-12.55-35.84-6.05c-15.61,9-16.12,31-14.67,49q1.84,23,3.7,45.94c1.25,15.54,2.52,31.18,6.41,46.27,3.27,12.66,8.41,25.2,7.79,38.26"
     transform="translate(253.55 -33.75)"
     id="path16" />
  <path
     class="a"
     d="M-238.26,2431.1c-25.43-83.48-12.88-173-5.23-260,27.13-308.51-9.44-629,95.66-920.37,21.22-58.81,49.11-117.13,95-159.63,38.9-36.05,89.28-59.35,123.08-100.22-13.17-25.88-9.85-57-6-85.8,7.76-57.39-10.61-115-12.15-172.86-2.36-89.12,35.05-179.37,12.61-265.65-4-15.31-9.83-30.31-10.84-46.09-1.55-24.29,8.49-47.74,19.62-69.39A603.55,603.55,0,0,1,203,181.83c33.39-30.48,55.68-70.6,96-91s84.36-32.29,128-44c21.43-5.75,43-11.52,65.2-12.69,61.08-3.22,117.94,28.39,170.88,59,28.73,16.62,68.75,59.7,81.22,90.47"
     transform="translate(253.55 -33.75)"
     id="path18" />
  <path
     class="a"
     d="M1191.72,2268.5C1147.09,2317.07,936,2434,910.64,2436c13.5-26.41,19.44-52.94,20.18-82.59.77-30.73-7.32-59.27-25.32-84.19s-74.52-64.06-98.69-83c45.6-8.84,71.12-20.44,121.73-28"
     transform="translate(253.55 -33.75)"
     id="path20" />
  <path
     class="a"
     d="M928.54,2158.16c14.41,15,48.64,15.17,82.19,50.2,9.32,9.73,18.69,19.5,29.48,27.57,42.15,31.51,98.89,32.69,151.52,32.57,13.66,0,27.59-.1,40.57-4.37,34.72-11.41,52.91-48.29,69.46-80.87,17-33.49,36.12-66,58.76-96,5.74-7.6,11.78-15.15,15.47-23.93,3.15-7.49,4.47-15.59,5.77-23.61,3.84-23.67,7.69-47.61,5.88-71.52-2.09-27.57-11.61-54-21.4-79.84-31.31-82.73-84.18-185.67-133.41-259.17"
     transform="translate(253.55 -33.75)"
     id="path22" />
  <path
     class="a"
     d="M806.81,2186.17c-10.29-15.53-31.9-10.8-57-18.42-77.24-23.39-130.77-57.84-197.36-103.43-26.21-18-39.37-47-54.78-74.79"
     transform="translate(253.55 -33.75)"
     id="path24" />
  <path
     class="a"
     d="M709.84,1445.39c-54.75,180.12-110.17,361.83-202,526.17-31,55.54-66.06,108.75-101,161.9L206.33,2438"
     transform="translate(253.55 -33.75)"
     id="path26" />
  <path
     class="a"
     d="M70.21,990.93c77.62-.86,116.49,108.66,175.26,159.38,94.26,81.36,205.94,108.32,303.69,185.44,111.68,88.12,232.89,143.91,373.21,167.3,13.09,45.52,12.17,94.31,33.45,136.62,83.2,165.4,47.76,398.13-27.28,518.49"
     transform="translate(253.55 -33.75)"
     id="path28" />
  <path
     class="a"
     d="M769.08,298.23c-10.29.95-20.73,3-29.54,8.42s-15.81,14.57-16.37,24.89c-.28,5.16.79,11.07-2.7,14.88,11.87-15,52.44-39.18,70.91-24.92"
     transform="translate(253.55 -33.75)"
     id="path30" />
  <path
     class="a"
     d="M569.55,322.32c23.82,0,41.69,5.74,65.69,5.74,3.49,2.47,7.65,15.84,7.87,22.31-14.83,0-27.17,3.23-42,2.62-13.17-.54-22.16-6.5-34.63-1.89"
     transform="translate(253.55 -33.75)"
     id="path32" />
  <path
     class="a"
     d="M717.9,350.37c-13.39,33.3,21.28,69.33,42.28,91.78,11.77,12.59,22.5,26.19,35.46,37.79,15.31,13.7,24.4,18.18,11.63,36.55-10,14.35-26.84,23.3-35.57,38.56"
     transform="translate(253.55 -33.75)"
     id="path34" />
  <path
     class="a"
     d="M700.84,485.52c2.17,23-18.47,33.88-22.37,53.73-6.67,33.93,22.15,23.39,38.12,36.81"
     transform="translate(253.55 -33.75)"
     id="path36" />
  <path
     class="a"
     d="M773,523.57c-10.88-14.59-35.83.08-44.61,10.5-10.5,12.46-8.6,21.49,3.94,21"
     transform="translate(253.55 -33.75)"
     id="path38" />
  <path
     class="a"
     d="M813.69,652.16c2.62-12.81,6.92-33.53-6.82-43-9.38-6.45-27.39.08-37.86,2.23-11.8,2.42-23.31,8.5-34,15.12-12.22,7.54-22.52,17.3-34.37,25.3-8.16,5.5-21.05,14.69-24.67,23.94,10.49-5.84,26.91-4.83,38.05-8.87,10.84-3.92,21.58-9.56,32.13-13.29C763.82,647.36,798.45,637.3,813.69,652.16Z"
     transform="translate(253.55 -33.75)"
     id="path40"
     style="filter:url(#filter919)" />
  <path
     class="a"
     d="M811.06,652.16c6.26,9.43,9.3,18.54,3.94,28.87-8.41,16.19-31.7,13.12-47.24,13.12-14.82,0-31.3-4.6-45.94-8.57-11.53-3.12-34-14.15-44.6-5.87"
     transform="translate(253.55 -33.75)"
     id="path42"
     style="filter:url(#filter919)" />
  <path
     class="a"
     d="M793.45,390.34c-10.56-14.3-40.37-26.71-56.89,11.77"
     transform="translate(253.55 -33.75)"
     id="path44" />
  <path
     class="a"
     d="M550.41,436c22.94,10.4,66.15-1,84.14-17.23-1.62-11.26-21-31.51-30.91-35.32-11.64-4.47-31.54-2.52-41.86,5.32"
     transform="translate(253.55 -33.75)"
     id="path46" />
  <path
     class="a"
     d="M799.33,414.86c-6.16,13.53-33.42,8.72-47.08,4.9"
     transform="translate(253.55 -33.75)"
     id="path48" />
  <path
     class="a"
     d="M1125,994.15c-25.77-16.26-50.39-48.66-70.57-71.2a330.49,330.49,0,0,0-77.2-63.17c-19.06-11.31-26.28-30.08-40.64,9.34"
     transform="translate(253.55 -33.75)"
     id="path50" />
  <path
     class="a"
     d="M950.9,820.1c14.35,17.2,42.59,24.51,62.15,34.7,14.09,7.34,54,34.18,61.29,48.78"
     transform="translate(253.55 -33.75)"
     id="path52" />
  <path
     class="a"
     d="M929.84,731.66c23.17,18.61,41.21,42.56,65.9,60.72,21.76,16,64.33,50.87,68,69.46"
     transform="translate(253.55 -33.75)"
     id="path54" />
  <path
     class="a"
     d="M980.94,916.89c4.66,24.53,34.44,43.87,48.57,62.54,8.38,11.07,11.93,22.76,21.53,32.92,8.36,8.84,18.36,13.18,28.65,18.11"
     transform="translate(253.55 -33.75)"
     id="path56" />
  <path
     class="a"
     d="M999.41,1096c19.34,13.82,6.4,90.33-8.23,108.62"
     transform="translate(253.55 -33.75)"
     id="path58" />
  <path
     class="a"
     d="M1058.66,1086.12c-9,49.36-31.6,133.34,21.4,167.87"
     transform="translate(253.55 -33.75)"
     id="path60" />
  <path
     class="a"
     d="M1093.22,1333c-18.93-3.72-47.16-11.34-65.83-4.94"
     transform="translate(253.55 -33.75)"
     id="path62" />
  <path
     class="a"
     d="M635.57,421.5c-.88,3.58,2,8.19,5.85,10.38-16,6.76-29.77,12.22-46.89,15.73-10.38,2.13-41,5.21-44.13-11.6"
     transform="translate(253.55 -33.75)"
     id="path64" />
  <path
     class="a"
     d="M754.25,422.54c-.79,1.34-1.63,2.71-.89,5,12.11,2.84,37.32,7,47-3.8-.88-2.91-1.49-3.23-3.39-5.41"
     transform="translate(253.55 -33.75)"
     id="path66" />
  <path
     class="a"
     d="M647.2,1070.32c35.63,6.32,131.91,103.29,154,134.3,31.2,43.82,69.61,117.43,85.18,168.43"
     transform="translate(253.55 -33.75)"
     id="path68" />
  <path
     class="a"
     d="M886.19,1496.91c0,76-79.39,108.55-198.58,21.27"
     transform="translate(253.55 -33.75)"
     id="path70" />
  <path
     class="a"
     d="M1043.67,1690.47c-24.43-24.55-39.88,134-37.93,171.71,2.19,42.27,11.57,69.94,38.48,102.44a813.76,813.76,0,0,0,82.94,86.08c19.29,17.22,35.36,35,56.42,50.1,32,22.95,42.2,47.86,58.49,82.27"
     transform="translate(253.55 -33.75)"
     id="path72" />
  <path
     class="a"
     d="M1073,2081.17c2.5,36.64,43.6,75.28,64.22,104,19.18,26.74,39.6,49.05,68,65.08"
     transform="translate(253.55 -33.75)"
     id="path74" />
  <path
     class="a"
     d="M1003.57,2037.8c-9.4,17.77,17.25,65,24.93,83.5,12.13,29.13,24.6,55.89,48.78,76.95"
     transform="translate(253.55 -33.75)"
     id="path76" />
  <path
     class="a"
     d="M922.36,1503.05c42.41,2.51,77.82,23.42,107.82,53"
     transform="translate(253.55 -33.75)"
     id="path78" />
</svg>
