<svg id="Layer_2" data-name="Layer 2" xmlns="http://www.w3.org/2000/svg" viewBox="0 0 1034.98 1865.57"><defs><style>.cls-1{fill:none;stroke:#000;stroke-miterlimit:10;stroke-width:0.5px;}</style></defs><title>persianstyle-1</title><path class="cls-1" d="M551.43,676.27c10-1.83,17-10.72,26.08-15.35,10.46-5.34,22.85-4.64,34.57-3.81-3.82,3-8.53,2.81-13.3,3.8-10.08,2.11-19,7.79-27.84,13a31.05,31.05,0,0,1-8.65,4C559.19,678.63,554,678.21,551.43,676.27Z" transform="translate(-32.84 -500.4)"/><path class="cls-1" d="M563,690.89a14.24,14.24,0,0,1,3.76-7.14c5.38-5.63,13.87-6.72,21.65-7s16.06-.2,22.66-4.33" transform="translate(-32.84 -500.4)"/><path class="cls-1" d="M569.3,695.35a40.38,40.38,0,0,0,19.89-3.19,80.9,80.9,0,0,0,7.6-4l14.48-8.29c-3.77,6.46-7.86,13.52-13.69,18.2a31,31,0,0,1-9.17,5.42,15.77,15.77,0,0,1-10.5.18A16.14,16.14,0,0,1,569.3,695.35Z" transform="translate(-32.84 -500.4)"/><path class="cls-1" d="M491.5,668.5c3.69-1.61,7.94.12,11.42,2.14,8.16,4.75,15.63,11.36,24.9,13.08-4.91,1.38-10.35.36-15.23-1.14q-8.36-2.58-16.48-5.88a11,11,0,0,1-4.38-2.67A5.11,5.11,0,0,1,491.5,668.5Z" transform="translate(-32.84 -500.4)"/><path class="cls-1" d="M527.34,695.29a7.27,7.27,0,0,0-3.29-6.42,13.61,13.61,0,0,0-7.16-2.13,15.25,15.25,0,0,0-6.33.83,8.87,8.87,0,0,0-4.79,4.08" transform="translate(-32.84 -500.4)"/><path class="cls-1" d="M526.54,700.37a34.73,34.73,0,0,1-22.49.49,3.73,3.73,0,0,0-2.36-.24,6.18,6.18,0,0,1-4.95,3.86,29.75,29.75,0,0,0,14,4.73,19.67,19.67,0,0,0,3.07,0C519,708.82,524.11,705,526.54,700.37Z" transform="translate(-32.84 -500.4)"/><path class="cls-1" d="M488.19,619.24c2.11-4.37,5.41-8.7,4.7-13.5-.53,2.35,2.68,4,5,3.3s4.11-2.51,6.33-3.44c1.95-.82,4.15-.89,6.16-1.55,5.11-1.69,8.16-6.8,10.75-11.52a22.42,22.42,0,0,0-.79,7.47,24.71,24.71,0,0,0,10-11.24c-1.28,3.12-.91,6.92.16,10.12,1-4.19,4.32-8.46,7.46-11.39-1.92,2.61-2.2,7.66-1.16,10.73,4.18-1.37,8.45-4.63,11.52-7.78-1.83,2.58-1.8,5.82-1.7,9,1.87,2.27,5.13,2,7.91,1.05a31.51,31.51,0,0,0,9.2-5,26.2,26.2,0,0,0-3.07,5.8,44.56,44.56,0,0,0,28.72-1.67c-1.85.14-2.33,3-1.1,4.33s3.26,1.65,5.11,1.83c6.22.6,12.59,1.2,18.66-.34a13,13,0,0,0-3.92,3.76,4.43,4.43,0,0,0,.2,5.1,6.53,6.53,0,0,0,2.69,1.49c5.45,2,11,3.93,16.82,4s11.94-2.11,15.15-6.92c-1.08,10.51-1.42,20.94-2.5,31.46a57.1,57.1,0,0,0-.43,11.16c.5,5.54,2.58,10.79,4.64,15.95,3.79,9.51,9,19.34,8.2,29.83-.44,5.76-2,11.39-2.85,17.1-1.15,7.3-1.27,14.79-3.13,21.94-2.8,10.79-9.34,20.16-15.78,29.26-8,11.32-16.27,22.81-27.4,31.09s-25.84,13-39.11,8.91c-9.46-2.88-17.2-9.81-23.34-17.57s-11-16.44-16.76-24.46c-4.88-6.75-9.91-13-13.67-20.5-4-8-6.81-16.44-9.62-24.87-1.92-5.77-3.86-11.61-4.23-17.67-.52-8.44,1.81-17.76-2.89-24.78-1.07-1.59-2.47-3-3.18-4.76-1.13-2.81-.34-6-.29-9,.06-4.29-2-6.95-3.26-10.78-1.15-3.59-1.45-8-1.91-11.8C484.46,635.22,484.59,626.73,488.19,619.24Z" transform="translate(-32.84 -500.4)"/><path class="cls-1" d="M281.17,1124.42a29.06,29.06,0,0,0,1.69-7.13,40.8,40.8,0,0,0,.09-8q-.54-10.24-1.09-20.48c4.61-4.4,8.83-6.67,14.4-9.76,1.64-4.24,2.67-7.53,2.74-12.07,3.68-4.49,7.73-10.71,11.42-15.2.62-8.5,1.06-17.77.31-26.26-1.15-13,7.81-24.78,17.85-33.16,1.67-8.79,3.52-18,4.27-26.91,1.76-20.87,21.44-34.5,29.63-53.78,1.85-4.37,1.22-8.37,1.38-13.11a7.33,7.33,0,0,1,.71-3.51,2.5,2.5,0,0,1,3.06-1.21c2.24-2,3.62-6.13,3.51-9.1a30.21,30.21,0,0,0-2-8.64c.89-2.49-2.23-4.76-.87-7,.9-1.52,2.65-2.27,4.25-3,8.06-3.8,14.83-9.83,21.34-15.92,3.22-3,6.44-6.08,10.23-8.32,5.83-3.45,12.64-4.73,19.29-6-.55-2.9-.53-4.47.87-7.07,26.31-5.73,49.21-22.6,75.38-28.94-3.74-24.15.64-48.86,3.83-73.09" transform="translate(-32.84 -500.4)"/><path class="cls-1" d="M650.73,686.71c-1.49-23.41,3.58-54.28,3.51-77.73s-3.44-47.77-16.07-67.53c-3.24-5.05-5.51-11.58-9.52-16-2.2-2.45-4.7-4.7-6.27-7.6s-2-6.74,0-9.34a142.9,142.9,0,0,0-24.82.45c-8,.84-16.19,3.83-24,4.3,1.91-6.28,14.69-9.48,20.32-10.91,8.91-2.24,18.42-2.4,27.14.73,10.68,3.84,19.2,12.07,26.27,20.95a137.91,137.91,0,0,1,14.92,23.16c10.16,19.91,15.32,41.92,20.4,63.69q11.89,51.07,23.8,102.15c-6.39,3.12-11.51,9.45-15.38,15.42-5.35,8.22-10.24,16.73-15.13,25.23-1.26,2.21-2.56,4.49-2.88,7s.58,5.38,2.81,6.62c5.58,3.12,17.12-4.33,21.93-6.83a5.7,5.7,0,0,1,2.71-.87c1,0,1.9.55,2.88.64,1.44.13,2.8-.68,4.24-.84,2.12-.24,4.11.94,6.09,1.73s4.57,1.06,6-.54c-1.31,1.49,8.43,8.72,5.2,12.86L718,782.29c-1,1.29-2.15,2.66-3.74,3-2.1.48-4.86-.72-6.11,1a24,24,0,0,0-5.93-9.2c-2.61-2.51-6.55-4.46-9.76-2.78-3,1.58-3.79,5.55-3.66,9a31.74,31.74,0,0,0,13.58,24.52C714.23,815.93,730,815,744,812.07c5.65-1.17,10-5.38,14.81-8.62s10.42-5.9,16.14-5.09a32.43,32.43,0,0,1,8.37,2.93,138.58,138.58,0,0,0,22.93,7.88c-1,1.38-.5,3.44.69,4.67a11.2,11.2,0,0,0,4.48,2.41L825,821a4.92,4.92,0,0,0,2.76.4c.77-.19,1.41-.75,2.18-1a5,5,0,0,1,3,.39A134.92,134.92,0,0,1,872,842.36c15.93-22.45,47.57-34.81,57.76-60.38A81,81,0,0,1,909,767.34l10-.45c3.06-.13,6.26-.25,9.07,1,2.55,1.13,4.49,3.25,6.56,5.12,10.22,9.29,24.09,13.11,37.14,17.62a283.71,283.71,0,0,1,76.93,40.73c8.65,6.46,17.57,14.52,18.76,25.26.91,8.15-2.89,16-6.78,23.23-7.18,13.34-15.48,26.82-28.3,34.88-6.94,4.37-14.85,6.91-22.67,9.4l-41.42,13.22c-10.49,3.35-21,6.7-31.65,9.4-15.32,3.87-30.94,6.39-46.31,10a324.24,324.24,0,0,0-41.76,13c-9.71,3.74-13.2,9.14-21.25,15.74-3.67,3-7.31,6.28-9.28,10.59-13.72,30,3.55,66.82,9.08,99.37a137.43,137.43,0,0,1-55.31,23.21c-.14,1.28-1.55,2.23-1.69,3.51a3.43,3.43,0,0,1-2.59,3.55l-24.69,11c-1.3-.18-.7.78-1.21,2a11.6,11.6,0,0,0-.61,3.86c-.77,11.12-8.35,20.41-15.57,28.89,14.27,55.81,27.8,115,30.78,172.57,1.14,21.89,6.21,43.19,8.1,64.94,1.83,21,2,42.45,2.94,63.56q3.07,66.13,5.75,132.27c.94,23.12-1.65,46.42-3.06,69.56l-4.41,72.55c-2.61,43-5.14,85.82-5.6,128.92-.34,31.6-.33,63.22-1.57,94.81-1.18,30.13-5.52,59.24-4.51,89.7-19.2,5.12-38.05,8.46-57.6,12-34.41,6.27-70,9.91-101.49,25.18-2.3-15.88-4-30.88-6.34-46.77a149.41,149.41,0,0,1-2-19.43,76,76,0,0,1,2.28-19.41c-4.7-2.66-14.05-4-19.37-5-17.67-3.17-32.07-5.43-50-5.89,2.89-35.16-2.46-69-12.84-102.76,6.35-12.28,14.94-22.93,23.33-33.91q17.4-22.79,33.91-46.23c9.71-13.78,19.39-28.24,22.65-44.78,5.19-26.32,1.86-52.09-1.81-78.26-2.83-20.16-3.84-40.33-5.88-60.54-1.66-16.51-4.67-32.84-7-49.26-.86-6-.25-11.39-.54-17.3-.41-8-2.8-16.31-4.08-24.21-5.3-32.53-9.5-65.38-9.1-98.39.19-15.29-1.61-25.59-1.1-40.87q1.65-49,3.29-97.94c.44-12.87.89-25.86,4.15-38.32-2.81,2.85-4,3.08-5.67,6.72-12.42,27.21-21.18,60.06-18.87,89.94-12-1-16.13,14.32-19.92,23.35-3.37,8-6.74,16.1-9.67,24.32-3,8.44-5.52,17-8.1,25.62q-14.26,47.54-30.59,94.43c-14,40.21-25.68,79.85-31.37,122-1.26,9.3-2.29,18.67-4.69,27.74a172.23,172.23,0,0,1-8.84,24q-9.31,21.61-19.67,42.77c-6.54,13.36-15.27,26.48-20.09,40.45a390.21,390.21,0,0,1-39.51,82.07c-5.36,8.45-11.12,16.83-14.23,26.34-3.29,10.07-6.65,17.85-9.85,28s-7.67,20.34-16,26.89a29.36,29.36,0,0,0-4.43,3.73,21.25,21.25,0,0,0-2.64,4.33c-7.93,15.65-17.67,30.91-29.37,44,9.29-70.57,8.16-141.47,5.91-212.67-1.06-33.7,7.45-65,2.23-98.33,12.69,1.57,22.91-.86,35.65-1.86,9.55-.74,19.22-2.26,27.76-6.58s15.89-11.81,18.09-21.13a52.5,52.5,0,0,0,1-9.37l.9-18.33c1.17-23.71,2.55-44.76,3.82-68.48.46-8.51.92-17,1.8-25.52,1.8-17.19,5.35-34.15,7.93-51.24a456.2,456.2,0,0,0,4.54-45.48c1.72-34.83,12.05-64.92,13.5-99.76a7.6,7.6,0,0,0-.75-4.46c-1.41-2.16-4.45-2.31-7-2.24-24.26.59-48.52-.46-72.77-1.51-1.41-.06-3-.21-3.89-1.31s-.72-2.58-.54-3.93c1-7.52,2.07-15.12,4.79-22.2,3.6-9.37,9.93-17.38,16.17-25.23l17.84-22.44c15.07-19,21.16-41.54,34.22-61.94,3.35-5.24,7-10.62,12.41-13.68,6.81-3.85,15.13-3.34,22.84-4.67,7.18-1.24,14-4.15,20.46-7.5,13.83-7.13,26.49-16.32,39.09-25.46l24.62-17.87c3.86-2.81,9-5.45,12.22-8.94,2.85-3.06,5-6.08,8.66-8.39.53-.33,1.12-.71,1.25-1.32.22-1-1-3.72-1.61-4.48-1.41-1.72-3.4-3.81-5.27-4,.25-3.39,2.52-4,5-6.17s4.35-3.31,1.84-6.8c-3.46-4.8-12.09-4.75-17.72-2.91,2.92-2.82,4.6-4.69,7.6-7.79s-5.95-8.26-10.26-8.14-8.25,2.35-11.94,4.59c-15.69,9.56-30.79,20.6-48.21,26.46-4.67,1.58-10.26,2.62-14.17-.37a51.58,51.58,0,0,1-1.2-10.65,165.36,165.36,0,0,0,21.79-13.55c3.31-2.44,6.85-5.64,6.71-9.75a6,6,0,0,1,1.37-3.51,7.2,7.2,0,0,0-2.85-9.89c-3.48-1.68-4.66.79-9.5,3.94-4.09-1.42-8.4.61-12.08,2.88l-17.43,10.72c-4.85,3-9.95,6.23-12.46,11.34a39,39,0,0,1-2,4.23,20,20,0,0,1-4.37,4.29c-6.17,5.11-11.21,11.43-16,17.87-3.14,4.23-6.42,8.74-11.26,10.82a28.72,28.72,0,0,1-7.74,1.75l-12.93,1.7c-8.8,1.16-15.28,10-21.07,16.72-3.53,4.11-7.14,8.35-8.93,13.47-3.5,10.06.77,21.13,6.1,30.35,3.47,6,7.5,11.83,13,16.08s12.59,6.79,19.41,5.54c3-2.6,7.25-2.77,11.17-2.18a75.26,75.26,0,0,1-6.84,14.28,11.5,11.5,0,0,1-2.78,3.37,11.22,11.22,0,0,1-4.94,1.71c-13.44,2.1-27.36-1.52-39.15-8.29s-21.63-16.54-30.15-27.14c-2.91-3.61-3.84-11.11-5-15.61" transform="translate(-32.84 -500.4)"/><path class="cls-1" d="M485,627c-8.45-22.78-.93-48,6.6-71.13-.27,1.73,1.27,3.33,3,3.74a9.42,9.42,0,0,0,5.14-.64c16-5.44,28.31-18.07,41.42-28.75a5.18,5.18,0,0,1,3-1.5,5.28,5.28,0,0,1,3.13,1.45l12.37,9.56c7.12,5.5,15.5,11.33,24.31,9.54,7-1.42,12.08-7.27,16.62-12.77L613.37,521c3.49-4.24,3.52-3.65,7.75-7.15" transform="translate(-32.84 -500.4)"/><path class="cls-1" d="M573.64,513.22c-17.33,6.77-37.29,11.06-55.89,11.31-10.23.14-21-.65-30.21,3.74a6.6,6.6,0,0,0-2.72,2,6.91,6.91,0,0,0-.85,4.24c.22,6.51,4.57,15.57,7.67,21.3" transform="translate(-32.84 -500.4)"/><path class="cls-1" d="M503,528.24a13.3,13.3,0,0,0-4.78.9,9,9,0,0,0-4.6,6.29,26.66,26.66,0,0,0-.22,8c.16,2.16.44,4.55,2.06,6,2.24,2,5.72,1,8.42-.21,8.68-4,23.85-12.69,28.12-21.39C522.87,526.25,512.22,527.69,503,528.24Z" transform="translate(-32.84 -500.4)"/><path class="cls-1" d="M563.34,523.48c-2.48.93-5.45,2.93-4.63,5.44a4.9,4.9,0,0,0,1.88,2.21c4.66,3.52,10.25,5.54,15.75,7.52a14.74,14.74,0,0,0,5.85,1.24c2.45-.16,4.65-1.53,6.62-3,4.29-3.21,21.83-19.77,12.25-22.37-4.81-1.31-14,2.07-18.76,3.2A156.87,156.87,0,0,0,563.34,523.48Z" transform="translate(-32.84 -500.4)"/><path class="cls-1" d="M909.05,767.05l-47.12-11.92c-2.09-4.79-4.66-9.49-8.52-13s-9.2-5.73-14.34-4.8c-3.11.56-6,2.2-9.09,2.56-7.65.88-14-5.85-21.54-7.51-6.33-1.41-13,.88-19.36-.51-14.3-3.15-19.41-22.58-33.14-27.64-7.25-2.68-15.29-.73-22.75,1.24l-25.49,6.73" transform="translate(-32.84 -500.4)"/><path class="cls-1" d="M724.94,773.43c3.73-7.75,11.61-16.22,19.65-19.29a24.87,24.87,0,0,1-.87-19.26c-4.78-2.37-9-8.24-9.92-13.5" transform="translate(-32.84 -500.4)"/><path class="cls-1" d="M733.8,721.38c-5.09,1.22-10.1,4.44-14.84,6.08-3.7,1.29-5.73-.4-5.76-4,0,4.5-3.45,11.54-8,11.71,1,3.73-.77,8.33-3.12,11.4a12.86,12.86,0,0,1-10,5c.5,3.6-2.13,10.16-5.43,11.68-3.12,1.43-5.9.65-7.53-2.36" transform="translate(-32.84 -500.4)"/><path class="cls-1" d="M712.09,756.19a11.2,11.2,0,0,1,3-10.17c.16-4.72,3.33-10.68,6.5-14.17" transform="translate(-32.84 -500.4)"/><path class="cls-1" d="M861.93,755.13c-4.6-3.88-13.46-3.28-18.91-.73s-9.48,7.54-11.94,13-3.5,11.5-4.29,17.47c-1.6,12-4.16,25.81,3.1,35.52" transform="translate(-32.84 -500.4)"/><path class="cls-1" d="M830,739.88c-17.27,17.66-27.89,44.94-23.71,69.29" transform="translate(-32.84 -500.4)"/><path class="cls-1" d="M691.36,747.26,689,750.82a10.68,10.68,0,0,1,2.52-11.33c.88,3.17,1.56,4.94-.11,7.77" transform="translate(-32.84 -500.4)"/><path class="cls-1" d="M682.52,749.88a14.54,14.54,0,0,1-4.21,11.83,13.23,13.23,0,0,1,4.21-11.83" transform="translate(-32.84 -500.4)"/><path class="cls-1" d="M691.11,728.41c-1,3.71-.77,10.32-1.77,14" transform="translate(-32.84 -500.4)"/><path class="cls-1" d="M683.87,740.08c-2.2,4.84-1.19,7.91-3.1,11.71" transform="translate(-32.84 -500.4)"/><path class="cls-1" d="M717.36,732.53a14.28,14.28,0,0,1-9.52,2.43" transform="translate(-32.84 -500.4)"/><path class="cls-1" d="M710.83,744.78l-6.9,1.63" transform="translate(-32.84 -500.4)"/><path class="cls-1" d="M570.56,736.71a8.67,8.67,0,0,1-7.44,12.94" transform="translate(-32.84 -500.4)"/><path class="cls-1" d="M535.8,736.9c.5,1.94,0,4-.21,6s-.16,4.22,1.18,5.71c1.2,1.33,3.12,1.73,4.91,1.93" transform="translate(-32.84 -500.4)"/><path class="cls-1" d="M562.62,744.7a4.24,4.24,0,0,0-7.29,2.37" transform="translate(-32.84 -500.4)"/><path class="cls-1" d="M548.75,748.13a5.75,5.75,0,0,0-2.91-1.63c-1.12-.12-2.42.73-2.29,1.86" transform="translate(-32.84 -500.4)"/><path class="cls-1" d="M536.45,770.41c1.3,1.5,3.78,1.12,5.47.08s3.07-2.61,4.91-3.35c3.11-1.26,6.77.69,9.83,2.07,1.62-2.09,4.45-2.89,7.09-2.89s5.24.68,7.86,1a27.31,27.31,0,0,0,21.63-7.35c-3.06,3.68-4.52,9-7.2,13a29.79,29.79,0,0,1-25.44,12.81C550.7,785.34,541.3,779.05,536.45,770.41Z" transform="translate(-32.84 -500.4)"/><path class="cls-1" d="M589.45,763.47c-2.19,1.63-2.81,2.2-5.1,3.68a45.31,45.31,0,0,1-25.13,7.59,82,82,0,0,1-21.7-2.74" transform="translate(-32.84 -500.4)"/><path class="cls-1" d="M358.91,1223.34c-18.75,25.56-39.7,55.07-58.45,80.62-2.42,3.31-5.12,6.81-9,8-2.58.77-5.34.41-8,0l-40-5.42c6.9-33.46,9.86-67,16.76-100.47,2.24-10.87,9.93-23.74,19.54-32.1" transform="translate(-32.84 -500.4)"/><path class="cls-1" d="M225.41,1306q9.65-40.1,15.68-80.94-24.89,36.51-46.14,75.34C206.9,1303.83,213,1306,225.41,1306Z" transform="translate(-32.84 -500.4)"/><path class="cls-1" d="M274.42,1157.16a626.05,626.05,0,0,0-95.34,141.12c-7.91.94-17.48,2.34-25.38,3.28-3.87.46-7.89,1-11.13,3.12-6.75,4.47-5.5,11.59-7.43,18.34-2.93,10.31-7.38,20.42-11.07,30.48q-11.14,30.42-22.64,60.73-23.24,61.3-47.85,122.06c-4.78,11.78-9.67,23.88-9.94,36.6-.11,4.94.47,10-.9,14.75-3,10.55-11.25,18.52-9.37,30.22,1.8,11.25,10.31,21,20,26.48,13.19,7.42,28.7,9.07,43.58,11.83,30.63,5.68,60,16.57,89.91,25.34s61,15.49,92.06,12.47" transform="translate(-32.84 -500.4)"/><path class="cls-1" d="M249.87,1186.29c6.36-14.57,20.79-49.94,31.3-61.87s24.77-21.21,40.57-22.93,36.89,7.9,44.67,21.77c-13.5-7.23-41.08-6.23-54.5,1.14s-27.2,21.43-37.49,32.76" transform="translate(-32.84 -500.4)"/><path class="cls-1" d="M279.71,1174l30.38-28c5.41-5,10.86-10,17.13-13.81s9.15-5.24,16.49-4.91" transform="translate(-32.84 -500.4)"/><path class="cls-1" d="M267.83,1188.26c-7.8,7.44-22,27-26.74,36.76" transform="translate(-32.84 -500.4)"/><path class="cls-1" d="M329.7,1690c-29.16-7-78.56-20.59-106.73-30.85-56.1-20.45-124.93-19.89-184.09-28" transform="translate(-32.84 -500.4)"/><path class="cls-1" d="M310.69,1335.65c-24.77,57-49.79,114.87-58.68,176.4-2.92,20.21-4.08,40.71-8.57,60.63-5.31,23.55-23.13,60.78-25,84.85" transform="translate(-32.84 -500.4)"/><path class="cls-1" d="M499.26,1457.16c2,6.68,2.5,10.22,2.17,17.17a71.26,71.26,0,0,1,39.17-33.45" transform="translate(-32.84 -500.4)"/><path class="cls-1" d="M501.43,1474.33c-18.42,79.84-38,173.72-56.46,253.57-5.94,25.75-28.24,45.49-30.07,71.86-22.77,17-43.23,35.85-59.48,59.15" transform="translate(-32.84 -500.4)"/><path class="cls-1" d="M270.78,2005c-14.12,21.65-25.78,39.15-39.91,60.79a115.4,115.4,0,0,0,71,54.68c31.52-31.48,63.89-62.84,95.41-94.32,38.9-38.86,79.75-82.79,110.06-128.66" transform="translate(-32.84 -500.4)"/><path class="cls-1" d="M519.34,2001.05a539.66,539.66,0,0,0,6.87,166.4A230.49,230.49,0,0,1,443,2177.68c-3.72-10.95-1.54-21.77-5.2-32.7q-6.49-19.33-13-38.66c-9.06-27.18-13.08-58-23-84.75" transform="translate(-32.84 -500.4)"/><path class="cls-1" d="M473.47,2194.83l39.43.1c4.89,0,12.73-1.68,16.54,1.71,3.19,2.82,4.2,8,6,11.72,2.64,5.54,5.18,11.15,7.92,16.64,3.55,7.45,7.13,15,8.89,23.05,3,13.81.63,28.63,5.39,41.93a47.37,47.37,0,0,1,1.54,28.88c-1.22,5.12-8.37,6.68-13.57,7.46s-11.38,2.44-12.91,7.48c-1,3.22.41,6.64.41,10,0,5.63-4,10.63-8.88,13.44s-10.54,3.81-16.08,4.78c-25.2,4.39-50.41-.49-75.89-2.73-4.57-.41-9.55-1-12.75-4.27-2.59-2.66-3.46-6.63-3.13-10.32s1.69-7.21,3.05-10.67c5.55-14.13-.52-34.8,7.21-47.88,4.11-7,10.33-12.53,14.27-19.6,7.6-13.63,6.09-31.64,16.17-43.56.25-4.58.77-8.83,1-13.41.29-5.44-.63-10.72,5.4-13.37C466.57,2194.84,470.08,2194.82,473.47,2194.83Z" transform="translate(-32.84 -500.4)"/><path class="cls-1" d="M202.58,2105.83c-5.76,15.49-5.82,33.82,3.16,47.68,2.77,4.29,7.86,8.42,12.5,6.31,2.46-1.11,3.91-3.67,6-5.32,5-3.85,12.4-1.86,17.51,1.81s9.17,8.81,14.71,11.81,13.69,2.9,16.9-2.52c4.48,4.78.59,12.4-3.08,17.83-29.5,43.63-39.27,97.56-63.42,144.36-9,17.36-22.36,35.32-41.75,37.69-10.87,1.32-22-2.77-30.51-9.62s-14.73-16.27-19.29-26.23c-15.61-34.11-12.1-76.24,8.93-107.3,8.71-12.86,20.67-25.27,20.8-40.8.08-9.58-4.5-18.48-8.07-27.37-5.49-13.66-8.81-28.42-7.57-43.08s7.37-29.23,18.43-38.92,27.3-13.85,41.14-8.84c7.25,2.63,14.8,7.64,22,4.9,3.74-1.42,13.88-8.53,18.38-5.57,5,3.29-3.81,8-6.27,10.89C214.82,2083.42,207.12,2093.6,202.58,2105.83Z" transform="translate(-32.84 -500.4)"/><path class="cls-1" d="M295.59,2118.63c-12.58,13.46-29.77,33.37-39.08,49.49" transform="translate(-32.84 -500.4)"/><path class="cls-1" d="M455.56,2180.33v-.62c2.23,5.13,5,10.29,7.24,15.42" transform="translate(-32.84 -500.4)"/><path class="cls-1" d="M518.72,2170.2l1.77-1,7.66,26.5" transform="translate(-32.84 -500.4)"/><path class="cls-1" d="M543,1322.14c11.61-55,17.76-133.16,16.62-189.32-.17-8.19.23-17.24-3.35-24.6.62,1.24-16.06,15.49-17.65,17.4-6,7.32-7.46,12.9-9.93,22.4q-7.32,28.05-13.8,56.32-9.92,43.25-17.82,86.91c-4.41,24.37,1.85,49.77-11.24,72.22,14.57,1.67,33.54.76,48.11,2.42" transform="translate(-32.84 -500.4)"/><path class="cls-1" d="M697.65,948.88c12,62.52,30,126,45.16,187.8" transform="translate(-32.84 -500.4)"/><path class="cls-1" d="M364.6,910.94a259.42,259.42,0,0,1,17.89,85" transform="translate(-32.84 -500.4)"/><path class="cls-1" d="M327.68,1004.85c-1.35-.9,0-9.4,1.65-9.53l11.84,20.4c.84,1.44,1.78,3,3.33,3.6,4.28,1.75,9.05-4.66,13.1-2.43a47.53,47.53,0,0,0,11.94,40.74" transform="translate(-32.84 -500.4)"/><path class="cls-1" d="M399.91,1017.06l28.26-52.22c7.64,10.42,12.21,28.58,4.86,39.21" transform="translate(-32.84 -500.4)"/><path class="cls-1" d="M680.34,1032.34a394.5,394.5,0,0,0-38.62,57.94" transform="translate(-32.84 -500.4)"/><path class="cls-1" d="M701.48,1053.65q-26.93,37.2-51.16,76.24" transform="translate(-32.84 -500.4)"/><path class="cls-1" d="M423.35,835.88c9.16,39.14,27.61,77.47,60,101.24,4.36,3.2,8.94,6.24,12.36,10.43s5.57,9.82,4.17,15" transform="translate(-32.84 -500.4)"/><path class="cls-1" d="M447.77,839.19a232.5,232.5,0,0,0,49.08-32.81c-6.6,25.63,1.56,55.35,15.89,77.61A97.64,97.64,0,0,0,577,926.7c5.44,1,11.09,1.49,16,4s9.08,7.58,8.45,13.06c-.86,7.38-9.1,11.15-16.14,13.51L548,969.78" transform="translate(-32.84 -500.4)"/><path class="cls-1" d="M545.21,958.41c-8.28-3.33-18.37,3.31-20.11,12.06s3.66,17.91,11.44,22.28,17.36,4.56,26,2.43,16.64-6.39,24.5-10.61L710.83,918.2" transform="translate(-32.84 -500.4)"/><path class="cls-1" d="M547.62,841.73c-.93,8.19-1.86,16.47-.81,24.65s4.26,16.36,10.42,21.83,15.6,7.65,22.95,3.91c4.71-2.4,8.33-7,13.46-8.21,4.64-1.14,9.43.68,14.14,1.46,16.7,2.78,32.52-7.36,46.41-17" transform="translate(-32.84 -500.4)"/><path class="cls-1" d="M562.84,813.3c.54,5.48,5.17,9.87,10.33,11.79s10.82,1.88,16.32,1.8l17.07-.24c6.15-.08,12.45-.2,18.18-2.42,13.5-5.23,20-20.2,25.17-33.74-1.11,11,0,20.84-3.72,31.23-1.65,4.59-3.73,9.33-7.64,12.25-4.31,3.21-10,3.64-15.4,3.54s-10.89-.59-16,1.16-9.6,6.56-8.94,11.88" transform="translate(-32.84 -500.4)"/><path class="cls-1" d="M802.64,808.21c-33,54-74.47,118.07-125.59,155.43s-120.15,55.78-179,32.53C461,981.54,431.8,952.5,404,924c-12.21-12.54-30.72-30.82-34.93-47.82" transform="translate(-32.84 -500.4)"/><path class="cls-1" d="M616.26,929.9a137.6,137.6,0,0,0-27.35-10.65c-12.06-3.27-24.72-4.94-35.9-10.52s-16.48-15.48-16-28c-.44,8.82,7,16.42,15.25,19.46s17.36,2.68,26.19,2.89c13.39.32,26.74,2.08,40.14,1.77s27.15-2.89,38.24-10.41" transform="translate(-32.84 -500.4)"/><path class="cls-1" d="M812.85,892.21a269.66,269.66,0,0,1-.36,101.54" transform="translate(-32.84 -500.4)"/><path class="cls-1" d="M774.88,878.83a102.78,102.78,0,0,0-10,77" transform="translate(-32.84 -500.4)"/><path class="cls-1" d="M501.19,1053.22a126.59,126.59,0,0,0-21.09-37.77c-2.67-3.29-5.57-6.5-9.27-8.56s-8.35-2.82-12.19-1-6.37,6.52-4.85,10.47" transform="translate(-32.84 -500.4)"/><path class="cls-1" d="M312,1094.15c-3.48-.54-6.4-2.83-9.26-4.88s-6.13-4-9.65-3.77-6.93,3.79-5.72,7.1" transform="translate(-32.84 -500.4)"/><path class="cls-1" d="M958.52,786.08c-12.12,30.66-34.42,57.56-61.59,76.23" transform="translate(-32.84 -500.4)"/><path class="cls-1" d="M655.92,551l27.42,88.77" transform="translate(-32.84 -500.4)"/><path class="cls-1" d="M368.25,1205.6c5.51-1.74,14.71-8.4,19.08-12.18" transform="translate(-32.84 -500.4)"/><path class="cls-1" d="M433.6,1312.8l60.84-154.19c-14.14,52.71-71.33,305.05-85.46,357.75" transform="translate(-32.84 -500.4)"/><path class="cls-1" d="M454.8,1200.41l-45.06,105" transform="translate(-32.84 -500.4)"/><path class="cls-1" d="M435.09,1191.49c-15.54,36.79-64.13,107.37-79.67,144.16" transform="translate(-32.84 -500.4)"/><path class="cls-1" d="M641.14,1178.6q35.72,431.52,45.89,864.64" transform="translate(-32.84 -500.4)"/><path class="cls-1" d="M715.65,1221.3c12.78,265,28.48,508,41.26,773" transform="translate(-32.84 -500.4)"/><path class="cls-1" d="M682.22,1169.4a836.22,836.22,0,0,0,10.69,171.22" transform="translate(-32.84 -500.4)"/><path class="cls-1" d="M293.4,1709.63c.62,83.9-.61,179.86,0,263.76" transform="translate(-32.84 -500.4)"/><path class="cls-1" d="M588.73,1754.94c6.84,78.38,9.12,178.8,0,257" transform="translate(-32.84 -500.4)"/><path class="cls-1" d="M556.14,1109.16c0-3.41,3.87-5.42,7.25-5.86s7.16-.26,9.74-2.49c1.91-1.65,2.66-4.23,3.48-6.61a58.89,58.89,0,0,1,42.72-37.74l2.37,54.66c-5-6.49-10.37-13.21-17.83-16.65s-17.68-2.41-22.15,4.49c-2.38,3.68-2.74,8.27-3,12.64-.73,10.9-1.28,22.58,4.4,31.91s16.57,14.33,24.31,22.18c4.45,4.51,7.87,11.84,4.1,16.93-2.54,3.42-7.5,4.25-11.59,3.11s-7.55-3.85-10.87-6.52c-6.93-5.57-13.9-11.28-19.24-18.4s-10.91-19.12-10.19-28" transform="translate(-32.84 -500.4)"/><path class="cls-1" d="M621.7,1111.12c.79,1.68-1.4,3.14-3.21,3.56s-3.67-.29-5.37-1c-5.38-2.38-10.51-5.38-16.14-7.09s-12-2-17.12.9" transform="translate(-32.84 -500.4)"/><path class="cls-1" d="M574.2,1152.19c3,5,7.21,9,11.4,13l16.24,15.45c1.26-2.68.29-6-1.54-8.31s-4.4-3.95-6.81-5.68a68.21,68.21,0,0,1-12.91-12.15c-3.38-4.11-5.83-11.21-9.78-14.33C570.3,1144.23,572.13,1148.73,574.2,1152.19Z" transform="translate(-32.84 -500.4)"/><path class="cls-1" d="M730.67,1165.05c-45.55-17.62-104.48-34-152.43-43.26" transform="translate(-32.84 -500.4)"/><path class="cls-1" d="M725.42,1171.42c-44.48-16.27-100.19-29-146.42-39.27" transform="translate(-32.84 -500.4)"/><path class="cls-1" d="M533.71,1132.15c-9-1.81-23.21-1.45-32.3-.36" transform="translate(-32.84 -500.4)"/><path class="cls-1" d="M543.14,1121.33c-7.31.07-19.54-1.52-26.85-1.46" transform="translate(-32.84 -500.4)"/><path class="cls-1" d="M505.36,1073.12c-1.37,2.14-5.27,3.89-7.25,5.47s-3.93,3.44-4.67,5.87.2,5.53,2.58,6.4c5.45-1.33,10.61-4.32,15.17-7.58" transform="translate(-32.84 -500.4)"/><path class="cls-1" d="M518,1088.21c-2.25,2.85-5.53,6.28-7.78,9.13a7.23,7.23,0,0,0-1.62,2.89c-.41,2,1,4,2.28,5.62,4.23-1.79,6.81-5,10.76-7.37" transform="translate(-32.84 -500.4)"/><path class="cls-1" d="M520.27,1106.82c-2.43,2.63-6.93,6.8-9.12,9.63a4.34,4.34,0,0,0-1,1.88,3.08,3.08,0,0,0,.75,2.41,16.72,16.72,0,0,0,2.75,2.11" transform="translate(-32.84 -500.4)"/><path class="cls-1" d="M516.66,1104.65c-14,13.35-28.44,27-46.23,34.57-5.95,2.54-11.23,4.44-16,8.37a16.84,16.84,0,0,1-4.41,2.63,31,31,0,0,0-7.2,4.18,35.81,35.81,0,0,1-6.8,5c-2.54,1.25-5.69,1.67-8.16.29" transform="translate(-32.84 -500.4)"/><path class="cls-1" d="M505.8,1088.77a118.45,118.45,0,0,0-12.13,8.89,152.88,152.88,0,0,0-13.54,12.28c-7.6,7.79-18.12,11.78-28.18,16s-18.51,8.37-28.31,13.23c-2.48,1.23-5,2.48-7.8,2.62s-5.79-1.1-6.86-3.65" transform="translate(-32.84 -500.4)"/><path class="cls-1" d="M445.14,1060.11c-1.16,1.35-5.21,5.42-4.79,6.61s3.59,4.91,4.81,5.25c3.19.9,9.76-3.8,12.33-5.91" transform="translate(-32.84 -500.4)"/><path class="cls-1" d="M483.89,1082c-3.57-7.27-5.53-16.77-8.54-24.28s-7.73-14.89-15.07-18.31c-5.75-2.68-12.35-2.6-18.68-2.47l-31.68.66c-3.74.07-9.91-.14-13,2.51s-1.59,6.13-.38,9.71a152.37,152.37,0,0,0,12.7,27.77" transform="translate(-32.84 -500.4)"/><path class="cls-1" d="M489.37,1078.28c-2.39-9-5.77-17.73-8.59-26.52-2.35-7.31-5.84-14.93-12.44-19.32-6.29-4.2-14.29-4.68-21.86-4.75a309.67,309.67,0,0,0-45.13,2.92,6.89,6.89,0,0,0-5.65,4.79,20.59,20.59,0,0,0-.56,8.83" transform="translate(-32.84 -500.4)"/><path class="cls-1" d="M872,842.36c15.08,13.49,29.63,25.69,48.53,32.92,10.87,4.16,22.48,6,33.63,9.33" transform="translate(-32.84 -500.4)"/><path class="cls-1" d="M616,518c13.62,25.77,27.77,63.73,38.22,90.94" transform="translate(-32.84 -500.4)"/><path class="cls-1" d="M690,749.26c-.25,1.8,1.09,2.08,2.09,2.23" transform="translate(-32.84 -500.4)"/></svg>