<svg id="Layer_2" data-name="Layer 2" xmlns="http://www.w3.org/2000/svg" viewBox="0 0 1084.92 1665.05"><defs><style>.cls-1{fill:none;stroke:#000;stroke-miterlimit:10;}</style></defs><title>persianstyle-sky</title><path class="cls-1" d="M734,779.06c-17.15-2.9-35,3.23-48.94,13.59s-24.58,24.62-33.7,39.43c-16.85,27.37-29.58,58.31-29.72,90.45s14.06,65.51,41.32,82.55c-21.71-9.24-43.77-25.44-54-46.7,3,15.62,6.95,35.22,15.92,48.37s25.28,22.66,40.71,18.75c-8.69,8.39-21.43,12-33.45,10.77a42.33,42.33,0,0,1-30.18-18c-12.07-17.69-20.21-38-22.69-59.32C574,914.09,581,866.77,605.11,828.52s66.58-66,111.77-66.31a71.32,71.32,0,0,1,27.8,5.3c8.21,3.42,13.68,6.79,17.82,21.08C754.35,783.61,743.4,780.65,734,779.06Z" transform="translate(-17.26 -761.71)"/><path class="cls-1" d="M765,788c37.6,68.31,43.31,157.25,12.33,228.81,13.36-10,24.1-23.89,28.43-40-10.29,30-26.42,57.76-50.72,78.09,19.35-8,35.89-22.15,48.26-39.07s20.69-36.57,25.87-56.88a212.43,212.43,0,0,0-19.55-153.37c-4.66-8.46-10-16.72-17.27-23.08S757.8,770.7,756.93,772,764.16,783.6,765,788Z" transform="translate(-17.26 -761.71)"/><path class="cls-1" d="M664.24,813.37c3.28,1,6.84.42,10.21-.29s6.87-1.49,10.23-.69,6.48,3.73,6.25,7.17c-10.18.71-20.2,1.79-30.29,3.28" transform="translate(-17.26 -761.71)"/><path class="cls-1" d="M727.31,816.85c-1-1.9.12-4.4,2-5.55s4.09-1.32,6.25-1.42a231.06,231.06,0,0,1,31.24.73c3.9.36,6.78,5,9.31,8-12.3-1.19-26.67-3.16-39-3.48C733.71,815.08,729.58,814.43,727.31,816.85Z" transform="translate(-17.26 -761.71)"/><path class="cls-1" d="M700.37,854.73c-.15.19-.29.37-.42.52-2.22,2.71-4,5.74-6.8,7.93-.68.53-1.69,1-2.32.43a1.93,1.93,0,0,1-.28-1.85,31.72,31.72,0,0,1,5.55-12.29,7.77,7.77,0,0,1,2.88-2.62,3.17,3.17,0,0,1,3.63.55C704.3,849.34,701.86,852.85,700.37,854.73Z" transform="translate(-17.26 -761.71)"/><path class="cls-1" d="M721.31,862.65c3.11,2.34,3.77-3.33,3.41-4.84-.93-3.94-2.68-8.53-6.52-10.54a2.93,2.93,0,0,0-2-.39c-1.93.52-1.57,3.37-.73,5.18a107.82,107.82,0,0,0,5.18,9.73A2.76,2.76,0,0,0,721.31,862.65Z" transform="translate(-17.26 -761.71)"/><path class="cls-1" d="M681.07,857.08a24.39,24.39,0,0,0-1.35,5.7,5.17,5.17,0,0,0,.56,3.58,4.67,4.67,0,0,0,1.58,1.31,11.38,11.38,0,0,0,11,0" transform="translate(-17.26 -761.71)"/><path class="cls-1" d="M734.37,857.31a13.72,13.72,0,0,0,1,5.26c.49,1.73.82,3.66,0,5.26a5.39,5.39,0,0,1-3.74,2.64,13.32,13.32,0,0,1-4.71-.06c-1.11-.16-2.21-.37-3.31-.61" transform="translate(-17.26 -761.71)"/><path class="cls-1" d="M750.83,897.17c-4.78-2.13-18.61-14.57-24-16-11-3-26.52-2.81-36.43,2.86-2.6,1.48-8.15,7.1-11.86,11-2.84,3-3.08,3.05-4.66,6.87,6-3.64,8.55-5.53,14.44-9.32s13-6.48,19.87-5a23.34,23.34,0,0,0,3.59.74c2.07.12,4.07-.69,6.12-1,6-1,11.91,2.13,17.09,5.38S745.55,893.77,750.83,897.17Z" transform="translate(-17.26 -761.71)"/><path class="cls-1" d="M684.31,895.23c8.34-2.43,20.3,2.92,25.48,2.34a30.52,30.52,0,0,1,3.81-.37,27.27,27.27,0,0,1,3.9.53c4.46.72,11.48-4,19.31-4" transform="translate(-17.26 -761.71)"/><path class="cls-1" d="M833,871.07c29.92,50.64,37.39,114,20.06,170.21-7.73,25.06-15.41,50.89-24.91,75.34" transform="translate(-17.26 -761.71)"/><path class="cls-1" d="M846.4,928.87a1171.65,1171.65,0,0,1-33.61,192.76" transform="translate(-17.26 -761.71)"/><path class="cls-1" d="M860.76,1004.88c-.63,5.39,2.14,27,1.52,32.4a22.71,22.71,0,0,0,0,7.67c.57,2.5,2.17,4.92,4.61,5.75,4.33,1.49,10.23-2.14,13.18,1.37a5.4,5.4,0,0,1-2.78,6c-3.5,10.73-45.83,47.73-49.1,58.53" transform="translate(-17.26 -761.71)"/><path class="cls-1" d="M967.86,1110.7c-7.22-30.63-32.09-43.4-39.33-48.36-6.06-4.16-12.2-8.36-19.12-10.82s-22.69-2.53-29.36.55" transform="translate(-17.26 -761.71)"/><path class="cls-1" d="M847.87,1111.33c11-11.35,27.15-23.39,40.78-31.4,7.17-4.2,14.75-7.94,22.91-9.5s17-.73,24.07,3.67" transform="translate(-17.26 -761.71)"/><path class="cls-1" d="M956.11,1100.16c-9.75-7.1-23.33-3.3-34.68.77l-120.67,43.26c-31.81,11.4-65,23-98.56,19.51-27.71-2.86-53.39-15.81-76.76-31-10.15-6.59-20.25-13.87-26.88-24-10.35-15.79-11.65-37.48-26-49.7" transform="translate(-17.26 -761.71)"/><path class="cls-1" d="M847.87,1111.33c-30,6.75-62.06,20.79-91.29,30.27-8.5,2.75-26.13-4.68-35.06-5.18-9.12-.52-22,2.46-30.8,0-12.49-3.5-10.63-6.72-21-14.52-7.38-5.57-11.9-14-16.26-22.18-11.82-22.14-34.51-54.55-47.24-76.17" transform="translate(-17.26 -761.71)"/><path class="cls-1" d="M580.33,886.44c-3.74-.13-6.24,3.7-7.87,7.07a222.91,222.91,0,0,0-18.67,133.32c1.41,8.24,3.26,16.91.43,24.78a25.87,25.87,0,0,0-1.76,5.36c-.53,4.09,2,7.86,4.24,11.33,6.33,9.88,11,21.11,11.49,32.84s-3.83,24-12.88,31.44l4.66,4-10.16,7.29a5,5,0,0,0-2.34,2.76c-.42,2.06,1.67,3.63,2.95,5.29s.74,5.13-1.28,4.59" transform="translate(-17.26 -761.71)"/><path class="cls-1" d="M811,1004.88c-20.56,42.79-38.74,91.91-54.43,136.72" transform="translate(-17.26 -761.71)"/><path class="cls-1" d="M549.14,1156.49c19.64,10.89,30.44,30.53,43.19,49a245.75,245.75,0,0,0,91.23,79.5c23.87,12,50,20.15,76.75,21s54-5.83,75.9-21.21c14.82-10.43,26.73-24.44,37.55-39a434.13,434.13,0,0,0,53.41-94.46c6.27-15.3,11.68-32.54,5.91-48-52.93,49.72-135.94,70.62-198.7,107.16-8.61,5-17.07,10.47-26.5,13.66-17.63,5.94-37.24,3.33-54.57-3.45s-32.78-17.48-48.07-28.07" transform="translate(-17.26 -761.71)"/><path class="cls-1" d="M567.19,1145.74c11.27-2.49,22.6,3.8,31.42,11.23s16.71,16.42,27.29,21,22.45,4.3,33.93,3.93l89.68-2.91" transform="translate(-17.26 -761.71)"/><path class="cls-1" d="M649.19,1154.57l-35.56-9.14c-7.19-1.85-14.45-3.73-21.11-7-4.72-2.33-9.08-5.34-13.91-7.44s-10.35-3.22-15.34-1.54" transform="translate(-17.26 -761.71)"/><path class="cls-1" d="M784.62,1204.38Q849,1176.17,913.32,1148c-19.25,23.58-38.87,45.91-62.4,65.21-6.93,5.69-14.3,11.31-23,13.54s-19.05.25-24.34-7" transform="translate(-17.26 -761.71)"/><path class="cls-1" d="M897.18,1211c-11.87,7-31,20-42.83,27a44.31,44.31,0,0,0-8.11,5.63,44.91,44.91,0,0,0-6,7.52c-8.71,12.65-18.3,25.56-32.1,32.28" transform="translate(-17.26 -761.71)"/><path class="cls-1" d="M714.86,1271.61A84.09,84.09,0,0,1,652,1246c-5.38-5.64-10-12-15.73-17.29s-13.1-9.4-20.89-9.14" transform="translate(-17.26 -761.71)"/><path class="cls-1" d="M549.14,1156.49c-11.9,9.38-32.6,19-44.49,28.4-4.5,3.54-9.14,7.16-14.61,8.85-9.22,2.85-20.73.34-27.48,7.23-5.18,5.29-4.91,13.65-4.66,21,1.16,34-4.9,67.65-5.52,101.54a535.11,535.11,0,0,1-8.85,87.67c-2.84,15.34.51,28.58,1.43,44.15.64,10.82,1.27,21.74-.5,32.43-2,12.39-7.31,24.41-6.7,37,.59,12,6.58,23.46,6.08,35.49-.47,11-5.63,24,2.35,31.49,1.4,1.32,3.13,2.32,4.25,3.89a12.61,12.61,0,0,1,1.84,6c1.1,9.2.84,18.57,2.64,27.66s6.09,18.25,14,23.13" transform="translate(-17.26 -761.71)"/><path class="cls-1" d="M468.89,1652.4c25,27.84,53.82,41.87,80.31,45.35,13.44,1.76,27,1.82,40.5,3.53,17.61,2.24,34.73,7.29,51.76,12.32L701,1731.2c2.11-1.32,1.78-4.63.28-6.61s-3.76-3.26-5.34-5.17c-4.3-5.22-1.65-13.91,4.16-17.37s13.4-2.52,19.42.54,10.87,8,15.77,12.63c13.74,13.07,31.56,25.59,50.12,21.67,9-1.91,16.8-7.53,25.18-11.46s18.77-6,26.54-1c-3.9-17.8-18.93-30.78-33.82-41.26a373.11,373.11,0,0,0-106-51.81c-11.15-3.4-22.63-6.34-32.64-12.33-20.71-12.41-32.81-36.48-54.39-47.32-5-2.49-10.37-4.24-14.86-7.53s-8-8.72-7-14.19,8.33-9.32,12.58-5.73c3.32-16.06-2.29-32.43-7-48.13a479.92,479.92,0,0,1-20.08-120.22c-.56-14.63-2.77-22.9-6.59-37-2.11-7.85-6.12-15.07-8.5-22.85-2.21-7.23-3-14.82-4.65-22.19-3.45-15.22-10.69-29.27-17.87-43.13" transform="translate(-17.26 -761.71)"/><path class="cls-1" d="M468.89,1652.4c-25.67,13.21-43.8,53.83-33.11,80.65,1.93,4.85,4.52,9.46,5.72,14.54,3.83,16.19-7,31.81-11.11,47.94-9.21,36.07-26.22,92.09-18.1,128.42,1.41,6.28,3.37,12.54,3.34,19,0,10.84-5.71,21.11-5.47,31.94.22,9.62,5,18.45,9.67,26.88s9.33,17.37,9.26,27-6.71,19.92-16.31,20.52c-38.36,2.43-48.63,40.85-64.15,76-6.52-4.33-16.88-7.92-20.77-1.12-1.05,1.85-1.23,4-1.85,6.09-2.13,7-9,11.27-15.27,15.11-15.34,9.4-31.24,22.18-33.23,40.07,42.19,9.6,79.74,53.13,85,96.07q20.13-10.3,39.31-22.33c8.39-5.26,17.23-11.57,19.8-21.13,1.73-6.44.28-13.41,1.95-19.86,3.17-12.24,16.27-19,28.46-22.3s25.53-5.25,35-13.68c7.11-6.38,11-15.68,17.72-22.43,6-5.95,13.81-9.56,21.35-13.32,62-30.87,113.28-78.3,165.81-122.52,26.65-22.42,53.84-44.36,83.22-63.14,28.26-18.07,62.4-31.79,76.3-65.15,7.55-18.11,5.6-39-1-57.53-7.62-21.29-23.85-42-46.29-44.79-7.73-1-16.7-.15-22.09-5.79,16.82-2.6,40.57-3.74,55.52,4.39,6.25,3.4,11.52,8.47,18,11.43a31.63,31.63,0,0,0,22.88,1.26c-8.72-7.38-16.27-14.7-27-18.71-8.36-3.14-17.13-5.14-25.33-8.67-9.37-4-17.88-10-27.51-13.33-7.18-2.49-14.81-3.47-22-5.94s-14.24-6.86-17.31-13.81c12.39-.75,35.15-2.45,39.93-12.66" transform="translate(-17.26 -761.71)"/><path class="cls-1" d="M967.86,1110.7l35.21,19.11c10.85,5.88,22,12,29.55,21.81,5.16,6.69,8.3,14.69,11.2,22.63,16,43.76,27,89.26,34.36,135.26,5,30.84,7.8,61.75,9.63,92.91,1.7,28.92,8.36,56.76,8.51,86.29.21,39.19.35,78.93-9.78,116.78-3.83,14.31-9.08,28.19-14.36,42q-18.9,49.53-38.34,98.84c-7.51,19.05-29.21,42.09-41.5,58.47-7.08,9.44-14.41,19.11-24.51,25.2-12-4.12-21.47-14.81-30.11-24.09l-46.2-49.64a33.54,33.54,0,0,1-6-7.93c-3.16-6.55-1.75-14.31.11-21.34a194.77,194.77,0,0,1,22-51.57c2.28-3.73,4.89-7.56,8.87-9.36s9.64-.55,11.08,3.57c5.07,0,8-6.17,7.35-11.18s-3.68-9.41-5.15-14.26c-4.63-15.23,6.06-30.43,15.68-43.12,2.86-3.78,5.8-7.92,5.91-12.65.23-9.84-11.72-19-7.07-27.65,6.84-12.8-1.22-27.33,8.16-38.39,5.46-6.45,16.4-9.16,17.25-17.56s-9.6-13.55-12.3-21.6c-2.16-6.44,1-13.28,2.7-19.86,3.94-15.46-.5-31.64-1.89-47.53-2.76-31.64,6.69-62.86,13-94a482.1,482.1,0,0,0,9-120.46" transform="translate(-17.26 -761.71)"/><path class="cls-1" d="M1019.25,1792.46c3.45,19.1,6.92,38.34,6.6,57.74s-4.66,39.21-15.64,55.21c2.54,13.72,1.69,31.68,4.23,45.39l1.73,9.33c1.26,6.78,2.52,13.57,3.54,20.38a302.26,302.26,0,0,1,3.11,33.17c16.52,2.61,30.91,20.53,34.68,36.84,1.57,6.77,1.44,13.8,1.54,20.75a299.59,299.59,0,0,0,4.73,48.65c2.24,12.43,12.77,25.46,20.84,35.17,3.56,4.28,7.46,8.32,10.37,13.07,9.35,15.26,7,34.65,4.33,52.34-.35,2.36-1.56,5.41-3.93,5.08-20.47,6.71-40.27,11.41-60.74,18.12-15.35,5-30.87,10.1-47,11.6s-33-.88-46.55-9.75c-9.73-6.38-4.24-20.62-2.19-32.08a997,997,0,0,0,15.34-198.53c-1-44-6.72-92-37.95-123.06-2.49-2.48-.09-6.52,1.39-9.72a36.22,36.22,0,0,0,3.28-17.1c1.29,4.33,2.93,9.37,4.22,13.69a102.6,102.6,0,0,1,3.23,12.78c.56,3.39.79,6.87,2,10.09s3.66,6.22,7,7c0,1.47,2.82,2.22,4.28,2a5.65,5.65,0,0,0,3.56-2.39,13,13,0,0,0,1.2-13.75c3.08-4,3.17-9,2.88-14s-1.77-10-3.24-14.81c-2.06-6.79-3.17-15.06-4.66-22-.76-3.53-3.26-7.65-4.67-11-1.25-3-4.29-5.82-6.06-8.49a49.14,49.14,0,0,0,20.58,13.36,10,10,0,0,0,4,.72c2.75-.25,5.91-3.83,8.65-3.56" transform="translate(-17.26 -761.71)"/><path class="cls-1" d="M112.46,2301.58c-10,2.05-49.55-7.06-69.53-19.56-9-5.6-18.22-11.79-22.89-21.26-9.36-19,12.31-34.64,24.48-46.1,13-12.27,29.1-22.54,47-23.89,12.09-.92,24.07,2.3,35.87,5.11,43.59,10.38,70,23.09,114.64,23.56-19.49,12.84-19.89,3.87-38.93-.07s-38-11.36-57.3-8.8c-4.33.58-8.74,1.73-12.17,4.43a29.12,29.12,0,0,0-6.11,7.4C119.24,2235.21,97.38,2299.45,112.46,2301.58Z" transform="translate(-17.26 -761.71)"/><path class="cls-1" d="M357.81,2261.51c-43.94,42-99,97.46-139.17,143.13-24.82-28.12-46.43-56-64.16-89.07-2-3.73-4-7.56-4.82-11.71-2.33-11.51,4.46-23,12.58-31.43,16.76-17.5,39.51-27.66,60.26-40.15a287.4,287.4,0,0,0,59.09-47.17" transform="translate(-17.26 -761.71)"/><path class="cls-1" d="M157.37,2278.15c-3.17,1.07-14.92,6.92-18.09,8-9.76,3.3-18.46,9.41-26.82,15.44-16.95,12.23-10.14,30.58-7,42.77a195.51,195.51,0,0,0,38.71,75.29,66.31,66.31,0,0,0,63.19-2.94c7.06-4.37,8.67-8.21,13.78-14.76" transform="translate(-17.26 -761.71)"/><path class="cls-1" d="M382.41,2270.73c74.4,9,148.36-8.31,218.86-33.72,72.64-26.18,145.48-53.86,210.34-95.76a549,549,0,0,0,116.9-101.55c7.78-9,15.41-18.45,19.4-29.64" transform="translate(-17.26 -761.71)"/><path class="cls-1" d="M941.11,2201c-11.39-2.18-24-8.53-34.73-13-11.34-4.69-23.12-11.69-26.89-23.37-2.69-8.37-12.9-16.08-20.69-20.15-9.32-4.87-20.54-11.91-30.78-14.28" transform="translate(-17.26 -761.71)"/><path class="cls-1" d="M782,1787.5c-22.91-7.5-59.7-3.4-81.55,6.81-6.06,2.84-12.76,9-9.81,15,1.47,3,4.72,7.12,1.73,8.55-10.41-2.27-20.57,4-29.3,10.15a1317.3,1317.3,0,0,0-188.25,160.25c-17.64,18.14-29.37,28.93-46.24,47.79" transform="translate(-17.26 -761.71)"/><path class="cls-1" d="M915.88,1886.26c-3.37,4.09-10,3.66-14.16,2.84s-8.16-3.69-9-7.82c-.55-2.59.11-5.54-1.39-7.72a16,16,0,0,1-25,10.52,8.16,8.16,0,0,1-3-3.36,22,22,0,0,1-.88-4.52,10.83,10.83,0,0,0-6.47-7.79" transform="translate(-17.26 -761.71)"/><path class="cls-1" d="M896.4,1807c-1.09,5,1.59,9.88,4.17,14.25l9.48,16a108.57,108.57,0,0,1,11,27.73" transform="translate(-17.26 -761.71)"/><path class="cls-1" d="M870,1822.26q1.1,6.46,2.51,12.87a17,17,0,0,0,2,5.67,21.41,21.41,0,0,0,3.1,3.43,47,47,0,0,1,13.68,29.2" transform="translate(-17.26 -761.71)"/><path class="cls-1" d="M946.51,1894.48c-4,3-9.5,9.13-9,14.11" transform="translate(-17.26 -761.71)"/><path class="cls-1" d="M967.83,1830c3,5.69-5.53,5-8.44,4a16.43,16.43,0,0,1-10.75-14.75" transform="translate(-17.26 -761.71)"/><path class="cls-1" d="M759.24,1744.12c-19.38-9.15-37.07-9.31-58.2-12.92" transform="translate(-17.26 -761.71)"/><path class="cls-1" d="M904.3,1198.76c-2.86,46.7-5.3,103.2-8.84,149.86-2,25.83-4,51.69-7.79,77.32-2.66,18.2-6.17,36.25-9.68,54.3q-8.88,45.63-17.75,91.26c-8.17,42-18.55,89.22-37.88,127.38" transform="translate(-17.26 -761.71)"/><path class="cls-1" d="M870.44,1250.25c-.76,16.67-.27,39.26-1,55.93-.69,15.09-1.37,30.35,1.39,45.2,1.3,7,3.36,13.88,4.34,20.94,1.45,10.46.5,21.09-.45,31.6q-1.73,19-3.46,38c-6.54,72-41.8,172.23-74.06,236.92" transform="translate(-17.26 -761.71)"/><path class="cls-1" d="M826.12,1305.89l-2.6,61.29c-3,69.92-6,140.34-22.2,208.42" transform="translate(-17.26 -761.71)"/><path class="cls-1" d="M800,1503.61c-16.66-64.42,4.24-132.54-1.29-198.85-27.1,102.37-.5,264-8.37,369.66" transform="translate(-17.26 -761.71)"/><path class="cls-1" d="M742.91,1472.64c-10.81,53.51,5.56,121.08-1.59,175.21" transform="translate(-17.26 -761.71)"/><path class="cls-1" d="M743.3,1304.52c-15,46.67,11.82,105-6.17,150.55-5.85,14.84-16,27.59-23,41.93-20.76,42.65-31.82,89.33-16.87,134.35" transform="translate(-17.26 -761.71)"/><path class="cls-1" d="M741.72,1473.65A199.26,199.26,0,0,0,724.3,1604" transform="translate(-17.26 -761.71)"/><path class="cls-1" d="M682.92,1511.07c-30.22,2.82-60-7-84-25a37.68,37.68,0,0,1-12.58-16.79" transform="translate(-17.26 -761.71)"/><path class="cls-1" d="M776.06,838.92c-11.82,6.16-36.63,4.75-38,3.39" transform="translate(-17.26 -761.71)"/><path class="cls-1" d="M738,842.31c4.82,3.68,8.28,4.16,14.28,5.07,6.82,1,16.85-1,23.74-.86-1.07-2-.37-5.37,0-7.6" transform="translate(-17.26 -761.71)"/><path class="cls-1" d="M672.61,843.74c2.47-.55,4.95-1.23,7.45-1.59-3.58,6.18-30.43,7-33.19,4.67,2-.59,4.89-3.27,6.68-3.92C655.5,842.18,667.86,844.81,672.61,843.74Z" transform="translate(-17.26 -761.71)"/><path class="cls-1" d="M891.52,1756.29c-7.94-5.1-32.3-15.93-40.85-21.88-3.93-2.73-9.15-8-13.5-10" transform="translate(-17.26 -761.71)"/><path class="cls-1" d="M967.86,1110.7a10.18,10.18,0,0,0-8.57-.06,25.34,25.34,0,0,0-7.2,5.07A105,105,0,0,0,930.38,1144" transform="translate(-17.26 -761.71)"/><path class="cls-1" d="M717.07,837.37a14.25,14.25,0,0,0-21,1.38" transform="translate(-17.26 -761.71)"/></svg>