<?xml version="1.0" encoding="utf-8"?>
<!-- Generator: Adobe Illustrator 23.0.3, SVG Export Plug-In . SVG Version: 6.00 Build 0)  -->
<svg version="1.1" id="Layer_1" xmlns="http://www.w3.org/2000/svg" xmlns:xlink="http://www.w3.org/1999/xlink" x="0px" y="0px"
	 viewBox="0 0 807.2 1906" style="enable-background:new 0 0 807.2 1906;" xml:space="preserve">
<style type="text/css">
	.st0{fill:none;stroke:#000000;stroke-width:0.5;stroke-miterlimit:10;}
</style>
<title>persianstyle-smile</title>
<g>
	<path class="st0" d="M270.1,125.1l0.4-6.6c0.6-11.2,15.2-17.9,25.8-21.6c8.7-3,20,2.1,28.6,5.3c-8.9-3.3-18.8-2.2-28.1-0.4
		C285.4,104,273.8,114,270.1,125.1z"/>
	<path class="st0" d="M314.6,136.5c-1.1,0-7.7-3.7-8.7-3.6c-4.4,0.2-12.9,3.1-16.4,5.7c-4.3,3.2-6.2,5.5-11.5,6.8
		c5,1.3,10.1-1.5,13.8-5.1C295.5,136.7,309.7,135.2,314.6,136.5z"/>
	<path class="st0" d="M316.6,134.5c-10.6,0-7.3-15.7-23.8-12.1c-4.1,0.9-10.3,5.7-10.3,16.9"/>
	<path class="st0" d="M292.9,230.7c-1,4.9-2.3,7.2-6.3,10.1s-8.5,5.2-12.4,8.3c-7.5,5.8-18.4,13.9-19.7,13.7
		c-1.8-0.3-4.7-2.3-4.8-4.1c-0.2-6,3.5-6.1,6.8-7.3c5.7-2.1,10.3-6.2,16-8.3c5.7-2.2,10.7-2.8,15.6-6.3c3.2-2.2,0.7-1.4,3.4-3
		c-7.5,3.9-23.5-2.4-26.3-1.8c-7,1.4-21.9,0.8-21.9-4.5c2.6-1.8,3.8-5.1,4-8.2s-2.4-9.2-2.2-12.3l-6.8-2.4c-3.1-1.1-6.3-2.3-8.4-4.8
		c-1.7-2-3.1-4-2.2-6.8c1-3,13.8-24.2,17-29.2c9.1-13.9,23.5-24.2,19.1-46c-5.5-27,15.7-54,37.5-70.8c9.8-7.6,22.2-7,34-8.4
		c31.3-3.7,57.6-23.2,69.3-27c-2.3,0.5-38.9,21-38,23.2c1.6,4.2,12.4,1.7,16.3,2.4c6.5,1.2,12.7,3.9,16.6,9.6
		c7.9,11.7,2.8,26.2,1.1,38.9c-0.5,4-2.9,15.3,1,18.3c3.7,2.9,15-2.7,18.7-4.9c-3.5,2-11.8,6.8-13,10.8c-1.5,4.8,3.4,7.2,7.9,9.6
		c11.8,6.4,23.8-2.2,35.8,4.7c14,8,15.6,27.7,12.8,43.6s-8,32.8-1.7,47.7c4.2,9.8,12.8,16.9,17.8,26.3"/>
	<path class="st0" d="M254.5,262.8c1.6,1,5.3,9.5,5.8,11.3c0.5,2.4-3.5,10.1-4.6,12.4c-2.3,5.2-3.4,10.9-3.1,16.6
		c0.2,3.9,1.5,8.3,5,10c8.9,4.5,15.4,3,25.4,2.8c13.5-0.2,26.7,4.6,37.8,12.2c11.1,7.6,20.1,18,27.5,29.2c11.8,4.3,27.9,5.3,40.3,4
		c8.9-0.9,17.5-3.2,26.2-5.1c3.3-0.7,6.7-1.4,9.9-0.5c13.8-10.2,32.7-27.9,49.5-31.5c8.1-1.8,16.5-1.9,24.8-1.8
		c0.6-20.5-10-39.3-14.2-59.3c-2.4-11.7-1.7-23.7-0.9-35.6c3.3-50.6,6.5-101.2,11.4-151.6c1.4-14.7-15.1-70.1-94.7-64.5
		c-9.1,0.6-18.1-2.7-27.2-2.9c-10-0.3-19.9,1.4-29.7,3.7c-16.6,3.9-33,9.7-46.5,20S272,65.7,270.1,82.7"/>
	<path class="st0" d="M243.5,227.3c19.8-9.1,29.1,3.4,49.5,3.4"/>
	<path class="st0" d="M253.3,232.6c0.2,2.5,0.6,2.8,0.8,5.3c7.1-2.3,9.3-0.4,16.2-1.4c5.8-0.8,3-0.5,8.6-2.1"/>
	<path class="st0" d="M282.5,239.7c-5.1,0-10.2,0.7-15.1,2c-2.5,0.6-4.9,1.4-7.3,2.3c-0.9,0.3-1.8,0.7-2.5,1.3
		c-1.9,1.5-0.6,3.5-0.9,6"/>
	<path class="st0" d="M398.7,201c-3.1,4.7-4,11.4,0.9,14.2c6.7,3.9,15.3,1.1,21.8-2.9c14.3-8.7,24.7-22.5,32.5-37.2
		c4.9-9.2,9-19.5,7.3-29.7c-0.8-4.7-2.8-9.2-5.9-12.9c-6.2-7.5-18.6-10.9-25.6-4.1"/>
	<path class="st0" d="M445.5,146.5c1.4,2.2,2.1,4.8,1.9,7.5c-0.1,1.5-1.2,3.5-2.7,3c-0.7-0.3-1.2-0.9-1.5-1.6
		c-1.2-2.1-2.7-4.2-5-5.1s-11.3-1.1-12.1-0.4c-0.8,0.7-1.2,1.8-1.2,2.9c-0.1,2.4,0.6,4.7,2.1,6.5c1.3,1.6,3.2,2.7,4.6,4.1
		c5.2,5,5.3,13.2,0.4,18.4c-1.7,1.7-3.8,3-6.1,3.6c-6.5-1.4-9.7-16.9-7.4-23.1c-4,0.4-8.1,2-8.9,5.9c-0.9,3.9,0,8,0.8,11.9"/>
	<path class="st0" d="M373.4,8.6c23.8-6.3,50.1-7.9,74.5-8.3c15.4-0.2,31.5,0.2,46.4,4.5c18.4,5.3,33.9,17.5,52.4,22.5
		c14.8,4.1,31.2,5.1,45.8,7.6c23.9,4,46.3,14.4,68.3,24.6c5,2.3,10.3,4.8,13.8,9.1c10.5,12.8,1,34.4,11.3,47.3
		c4.1,5.2,10.9,8,14.7,13.5c8.6,12.5-2.2,29.8,1.5,44.5c1.3,5.3,4.5,9.9,6.2,15c4.9,14.9-3.3,30.6-5.7,46.1
		c-1.7,10.8-0.5,21.9,0.3,32.8c0.9,12.7,1.2,25.5,0.9,38.3c-0.2,10.1-0.9,20.5-5.6,29.4c-4.2,8-11.3,14.2-19,19.1
		c-6.8,4.3-14.2,7.7-22,10c-1.9,0.6-4,1.2-4.9,3s-0.2,3.8,0.5,5.7c5.1,12.9,12.1,27.5,5.7,39.9c-17.9-10.2-39.7-10.9-58.2-1.8
		c-10.3,4.9-19,12.4-28.9,18c-10.5,6-22.1,9.7-33.7,13.2c-28,8.4-57.3,15.7-86.2,11.7c-7.6-1-21.3-7.3-27.7-11.6
		c-24.1-16.1-54.6-19.4-81.7-9c-14,5.5-29.8,14.6-42.6,6.8c-11.8-7.2-14.3-26.1-27.6-30c-4.6-1.3-10.9-1.3-12.5-5.8
		c-1.9-5.2,4.6-9.1,9.8-11s11.4-6.7,8.7-11.5c-1.4-2.4-4.3-3.2-7-4c-21.7-6.8-35.2-32.9-28.1-54.5c1.7-5.3,5.9-16.1,11.3-14.8"/>
	<path class="st0" d="M658.4,413.3c6.4,5.4,22,13.5,30,16.2c15.9,5.2,28.8,17.1,38.2,30.9s15.7,29.4,21.9,44.9
		c13.8,34.5,27.6,69.2,35.4,105.4c10.9,51.2,9.4,104.4,18.4,156c3.1,18.8,4.7,37.8,4.8,56.8c0.4,134.7-12.1,269.2-37.1,401.6
		c-10.1,53.5-17.7,100.2-16.6,154.6c0.5,25.7,3.4,51.3,5.5,76.9c5.4,66.5,5.7,133.3,0.7,199.8c-6,79.6-3.3,159.8-15.5,238.7"/>
	<path class="st0" d="M259.2,404.7c-43.3,1.6-76.1,32.2-94.5,71.4s-21.9,83.5-25.1,126.6c-1.4,19.3-2.9,38.7-4.3,58
		c-1.4,18.1-16.6,33-20.2,50.7c-1.9,9.6-0.1,19.5,5,27.8c-1.4-2.2-20.8,35.2-21.6,40c-2.5,15,1.3,30.3,0,45.4
		c-3.3,38.9-16.4,75.3-22.2,113.7c-5.2,34.5-1.4,69.6-1.2,104.5c0.4,84.5-20.3,167.7-60.1,242.1c-12.9,24.1-8.6,50-12.2,77.1
		c-2.1,15.5-4,31.5-0.5,46.8c9.4,40.6,54.4,65.8,62.5,106.7"/>
	<path class="st0" d="M64.8,1515.6c4.6,56.7,11.7,141.4,4.2,197.7c-2.5,18.8-5.6,38.6,1.4,56.2c5.1,12.9,15,23.2,24.7,33.1
		c4.2,4.3,8.3,12.8,7.7,18.7c-2.5,28-5,56.1-7.6,84.1c12.6-8.2,31.9-12.3,46.8-9.8c16.7,2.8,35.7,12.1,49.1,1.6
		c-0.4-10.1-4.9-23.8-14.8-22c-0.7-43.3-9.6-86-14.1-129.1c-4.6-43.3-7.3-86.7-10.1-130.1c-2.4-37.3,0.3-66.9-38.5-137.2"/>
	<path class="st0" d="M120,770.6c-4.5,10.3-6.9,22.5-2.3,32.8c6,13.2,15.2,26.5,29.6,26.9s35.2,0.6,49.7,0
		c-14-3.2-34.8-20.8-44.6-31.3c-7.7-8.2-5.8-20.6-3-31.4c2.4-9.4,10.6-15.9,18.3-21.8c3.8-2.9,7.7-5.8,11.3-8.9
		C152.6,733.3,131.1,745.4,120,770.6z"/>
	<path class="st0" d="M619.7,426.8c24.4-2.9,47.5,14.8,59.1,36.5s14.3,46.9,17.8,71.3s8.2,49.6,22.8,69.4c6.8,9.2,15.7,17,20.8,27.3
		c8.1,16.3,5.4,35.5,4.3,53.7c-4,68.8,17.4,114.9,62.5,167"/>
	<path class="st0" d="M713.2,874.2c-43.5,20.6-89.2,36.1-136.2,46.3c-11.3,2.4-22.8,4.7-33,10s-19.2,14.6-21.1,26
		c22.5-8.7,46.2-17.5,70-14c44.8,6.6,68.3,65.9,89.7,100.4c31.2,50.1,55,104.5,70.6,161.5c2.2,8,4.3,16.3,3.4,24.5
		c-1.6,14.6-11.8,26.5-21.7,37.3c-18.8,20.5-38.2,40.8-52.9,64.4s-24.6,51.2-22.3,79c1.8,21.6,10.8,42.3,10.3,64
		c-0.7,38.4-30.5,77.6-13.3,111.9c-46.5-37.7-35.7-93.8-43.5-139.3c-6.3-36.8-32.5-67-51.9-99s-36.7-67.4-35.3-104.7"/>
	<path class="st0" d="M231.4,784.9c39.4-16.2-52.9,146.8-37.3,199.9c14.5,49.2,61.1,86.4,111.8,94.3"/>
	<path class="st0" d="M129.4,917.7c23.4,99.7,27.2,141,6.5,161.2c-92.3,90-32.2,255.9-48.3,383.9c-1.7,13.2,0.4,31.5,13.7,32.8
		c19.7-33.4,63.4-62.5,103.7-59.3c54.1,4.3,6.1,88.7,32.3,119.1c19.2,22.3,7,52.4-1,80.7c-20.5,72.7-32.5,147.5-35.7,222.9"/>
	<path class="st0" d="M522.9,956.4c-15.1,12.6-29.5,15.8-49,13.4c-10.2,7.7-17.9,18.3-23.7,29.7c-20.5,40-36.8,76.8-36.9,121.8
		c7.6,2.4,15.9-2.9,19.7-9.8s4.3-15.2,4.8-23.2s1.4-16.2,5.7-22.9c5.7-8.8,12.9-20,18.8-28.6c1.7-2.4,3.5-5,6.2-6.2s6.5-0.5,7.6,2.3
		c-5.3,21.2-9.7,43-8.8,64.8c0.5,12.4,1.9,24.8,4.1,37c1.9,10.6,8.2,20.1,5.3,31.2c-0.1,0.5,14.7-2.4,16.7-5.3
		c2.9-4.2,1.2-10.7,1-15.4c-0.8-17.6-2-34.9-5.4-52.2c-1-5.3,2.5-7.9,2.6-13.3c10.1,5.8,23.3,6.5,33.9,1.3c2.7-1.3,4.9-3.7,7.7-4.8
		c2.1-0.8,4.4-0.5,6.4-1.4c6.2-2.5,8.3-9.2,10.8-14.9c5.7-12.8,15.4-23.4,27.6-30.2c5.3-2.9,11.3-3.4,16.4-6.1
		c6.5-3.4,12.5-10.4,18-15.2c6.2-5.4,27.7-21.8,32.1-28.8"/>
	<path class="st0" d="M438.7,1012.3c-25.3-4-58.3-18-83.9-17.9c-12.4,0-23.3,8.8-29.5,19.5c-6.2,10.7-8.5,23.1-10.7,35.3
		c-5.6,31.1-11.2,62.2-16.8,93.2c-2.2,12.3-4.1,25.3-0.1,37.2c8.2,23.7,177.9,48.3,250.5,62.8c19.8,4,21.1-58.3,23.3-69.6
		c5.2-28,11.7-55.7,17.8-83.6c2-9,4.2-37.6-30.4-43.2"/>
	<path class="st0" d="M185.7,762c4.6,3.2,10.7,2.9,16.3,2.6c17-1.1,34.1-2.3,50.8-6.1c6.7-1.5,14.3-4.5,15.9-11.2
		c1.1-4.6-1.4-9.6-5.2-12.4s-8.7-3.9-13.4-4.2c-6.9-0.5-13.9,0.5-20.8,0.6s-14.2-0.7-20-4.4c17.4,3.2,35.3,3.4,52.8,0.7
		c3-0.3,5.8-1.2,8.5-2.6c2.5-1.5,4.6-4.3,4.5-7.2c-0.1-4.2-4.1-7.1-7.8-9c-17.9-9.5-38.3-12.8-58.3-9.5c19.5-7.9,42.5,5,62.5-1.4
		c3.6-1.2,7.3-3.2,9-6.6c2.2-4.5,0.3-10.2-3.3-13.7s-8.5-5.3-13.3-6.7c-12.9-3.8-26.2-5.8-39.7-5.9c-2.4,0-5.6-0.8-5.6-3.2
		c0-1.1,0.8-8,3.4-10.8c0.9,2.1,9.4,2.5,11.6,2.3s4.4-1,6.7-1.3c5.9-0.6,11.2,3.1,17,4.6c9.6,2.3,19.6-1.6,25.1-9.7
		c-14.9-3.9-26.4-14.1-41.3-18c-9.1-2.4-22.4-11-30.7-6.6c-7.3,3.9-11.4,24.8-14.8,32.4l-4.3,9.9c-4.7,9.7-7.5,20.2-8.1,31
		c-0.6,5.2-1.2,10.4-1.5,15.6c-0.6,10-1.1,19.5-3,29.3C177.3,747.7,179.4,757.7,185.7,762z"/>
	<path class="st0" d="M246.3,496.1c-0.4,0.6-0.8,1.2-1.2,1.8c-4.3,5.6-12.4,7.7-15.8,13.9c-2.5,4.6-1.8,10.3-2.7,15.5
		c-1.3,7.2-5.7,13.3-8.1,20.2s-2,15.9,4.1,19.8c5.6,3.5,7.9,8.7,9.3,15.2c1.2,5.6,1,12.7,6,15.6c3.5,2.1,8.6,1.1,11.4,4.1
		c3.2,3.5,1,9.8,4.2,13.2c1.9,2.1,5.2,2.3,8,1.6c2.8-0.7,5.3-2.1,8.1-2.9c4-1.1,8.2-0.7,12.3-0.5c6.2,0.2,13.6-0.9,18-6.1
		c5.5-6.5,1.5-14.5,6.4-21.1c4.7-6.3,13.5-8.5,18.4-14.8c5.7-7.4,4-17.9,2.1-27.1c-3.7-17.8-7.9-36.6-20.3-49.9
		c-7.2-7.8-16.7-13.2-23.9-20.9c-7.2-7.8-11.9-19.6-6.9-29c0.7,5.9-3.9,11.1-8.7,14.5c-4.8,3.5-10.4,6.3-13.6,11.3
		c-13.8,21.6,1,47.1,19.6,59.4c11.4,7.5,24.6,11.8,37.7,15.8c1.6,0.5,11.8,5.5,13.8,2.3c2.2-3.5-0.4-12.9-0.2-14.6"/>
	<path class="st0" d="M229.3,511.8c-11.5,28.8,15.6,50.9,28.7,56.9c12.3,5.7,35.3,21.1,48.3,17.7"/>
	<path class="st0" d="M222.6,567.3c-0.3,14.4,2.8,41.1,2.5,55.6"/>
	<path class="st0" d="M299.9,607.5c-3.8,11.4-12.7,28.8-19.5,38.8"/>
	<path class="st0" d="M277.2,652.4c-2.5,5.7-6.3,14.3-8.8,19.9"/>
	<path class="st0" d="M237.6,760.9c-5.4,23.8-9,62.5-40.5,69.3"/>
	<path class="st0" d="M451.3,454.3c23.8,43.1,224.8,46.3,256.2,128"/>
	<path class="st0" d="M522.2,488.7c-41.6,34.4-253.8-18.9-222.8-48.2"/>
	<path class="st0" d="M572.7,893.8c-26.9,15-61.2,9.6-88.7-4.3s-50.3-35.4-74.9-54c-36-27.1-76.2-48.1-119-62.3
		c36.9,51.4,62.7,123.4,99.6,174.8"/>
	<path class="st0" d="M251.8,799c1.1,59.3,32.1,117.3,80.8,151.3"/>
	<path class="st0" d="M337.6,1868.1c-7.4-43.4-12.9-90.7-3.9-133.8c18.3-88.1,23.7-178.4,15.8-268c-3.6-41.5-20.6-89.4-15.8-129.9
		c4.8-40.5,27.1-85.1,41.7-122.8c8,21.4,3,50.2,5.2,72.9c10,101.9,31.2,202.3,54.8,301.8c22.9,96.6,32,195.4,57.8,291.7
		c-29.6-208.8-25.5-410.6,0.3-619.3c14.9,151.7,27,303.6,36.3,455.7c3.5,57.3,26.8,106.5,37.5,162.8
		c-17.4-120.7,61.7-350.4,58.1-339.9"/>
	<path class="st0" d="M97.6,789.8c-2.3,19.3,11.4,71.4,15.3,90.5c2.8,13.5,7.3,27.1,16.4,37.5s30,12.1,41.5,4.5
		c24.8-16.2,55.1-83,63.2-99.1"/>
	<path class="st0" d="M416,1101.2c4.7,5.9,5.3,14.1,1.5,20.7"/>
	<path class="st0" d="M475.9,1142.9c6.6,5,8.7,13.9,5.1,21.4"/>
	<path class="st0" d="M490.1,1079.5c-7.9-6.9-10-19.3-5.2-28.6s16-14.7,26.3-13.1s19.2,9.9,21.9,20c1.6,6,3.3,12-0.1,17.3"/>
	<path class="st0" d="M607,1013.1c-1.8-15.9-9.6-34.3-22.3-44.1s-28-15.7-43.7-19.3"/>
	<path class="st0" d="M598.3,1020.6c-2-18.7-10.9-38.4-25.8-49.2c-11.5-8.4-46.9-18.2-60.3-7.3"/>
	<path class="st0" d="M281.2,648.4c-2.6,0.3-2.6-0.4-5.2,0.1c-5.1,0.9-10.4-0.8-14-4.5c0.7-2.1,1.2-3.3,3-4.4"/>
	<path class="st0" d="M272.7,178.8c-0.7,6,2.8,11.7,7,16c4.2,4.3,9.2,8,12.7,12.9s5.2,11.8,2,16.9"/>
	<path class="st0" d="M255.5,199.5c-3.8-3.9-9.6-5.1-14.7-3.2c-0.4,1.3,0.1,2.8,1.2,3.7"/>
	<path class="st0" d="M268.5,196.6c-0.8,5.2-5.3,9.1-10.6,9.1"/>
</g>
<g id="Layer_3">
	<path class="st0" d="M407.3,214.2h-23.6l22.1,39.4"/>
	<line class="st0" x1="410.3" y1="214.2" x2="409.6" y2="214.2"/>
	<path class="st0" d="M417,252.2l21.2-37.9h-24.9"/>
	<path class="st0" d="M411.8,212.5c0.1-0.3,0.2-0.5,0.3-0.8c0.4-1.1,1.1-2.2,2.2-2.2"/>
	<path class="st0" d="M410.4,219.4c0-0.6,0.1-1.2,0.2-1.8"/>
	<path class="st0" d="M401.9,222.6c0.5-1.1,0.9-1,2-0.7c1,0.3,2,0.8,2.8,1.5c1,0.8,1.6,2,2.3,2.3c0.8,0.3,0.9-1.1,1.2-1.9
		c0.2-0.7,0.3-1.4,0.2-2c0-0.2,0-0.4,0-0.6"/>
	<path class="st0" d="M410,236.5c-0.4-0.1-0.7-0.3-1-0.6c-0.8-0.8-1.3-1.8-1.5-2.9c-0.1-1.5-0.4-3-0.7-4.5c-0.4-1-0.9-1.9-1.5-2.8
		c-0.5-0.8-1.1-1.4-1.8-2c-0.5-0.4-1-0.7-1.6-1"/>
	<path class="st0" d="M408.9,235.8L408.9,235.8c0.3,1.5,0.1,6.8-0.9,8.5"/>
	<path class="st0" d="M415.8,232.1c-2,6.5-5.5,9.5-7.7,12.3c-0.5,0.7-1,1.4-1.4,2.1c-4.1,8.5,3.5,17.1,6,18.6"/>
	<path class="st0" d="M412.7,265l-0.1-0.2c-1.6-2.7-4.1-7.5-3.9-10.5c0.3-3.8,1.4-4.7,3.3-8c1.4-2.6,2.4-5.5,2.9-8.4
		c0.4-1.9,0.6-3.8,0.9-5.8"/>
	<path class="st0" d="M414.9,237.9L414.9,237.9c0.2,1.9,0.3,3.8,0.3,5.8c0.1,3.3-0.6,6.5-2,9.4c-1.8,3.7-2,7.9-0.5,11.8l0.1,0.3"/>
	<path class="st0" d="M412.7,265c-0.6-2.4,3.8-7.3,4.3-11.9c0.5-4.9-1.8-8.1-1.8-9.4"/>
	<path class="st0" d="M411.2,232.3c0-3.1,0.5-4.7,2.6-7c-0.3-1.2-0.2-2.4,0.3-3.6c-0.7,0-1.4-0.2-1.9-0.7c-0.6,0.3-1.2,0.3-1.8,0
		l-0.1-0.1c-1.1,0.5-2.4,0.1-3-1c1-0.3,2.1-0.5,3.2-0.6c1.2,0,2.3,0.2,3.5,0.4h0.3c0.5,0.1,0.9,0.3,1.2,0.6c0,0,0.1,0.1,0.1,0.1
		c0.2,0.4,0.3,0.8,0.3,1.2c0.2,4.2,1.5,5.2-0.1,10.3"/>
	<path class="st0" d="M415.5,220.6c0,0,0-0.1-0.1-0.2c-0.4-1.1-1-2.2-1.7-3.2c-0.1-0.1-0.2-0.2-0.3-0.3c-0.4-0.3-0.8-0.7-1.2-0.9
		l-1.7-1.2l-1.2-0.8c-0.8-0.6-1.6-1.4-2.3-2c-0.2,0.6-0.2,1.3,0.1,1.9c0.5,1.1,1.3,2.1,2.3,2.9c0.4,0.3,0.8,0.5,1.2,0.8
		c0.6,0.4,1.3,0.7,2,1.1c0.5,0.2,1,0.6,1.3,1.1l0,0"/>
	<path class="st0" d="M414.3,209.4c-0.6,1.9-0.9,3.8-1.1,5.8"/>
	<path class="st0" d="M413.8,217.3L413.8,217.3c0-0.8-0.2-1.5-0.6-2.2l-0.2-0.3c-0.4-0.8-0.9-1.6-1.3-2.4c-0.2-0.4-0.4-0.8-0.6-1.3
		c-0.4-0.7-0.6-1.4-0.7-2.2c0-0.1,0-0.2,0-0.4c-0.1-0.2-0.5-0.3-0.7-0.2c0,0,0,0-0.1,0c-0.2,0.2-0.4,0.5-0.4,0.8
		c-0.4,1.9,0.5,3.8,1.2,5.6l0,0"/>
</g>
</svg>
