<?xml version="1.0" encoding="UTF-8" standalone="no"?>
<!-- Generator: Adobe Illustrator 23.0.1, SVG Export Plug-In . SVG Version: 6.00 Build 0)  -->

<svg
   xmlns:dc="http://purl.org/dc/elements/1.1/"
   xmlns:cc="http://creativecommons.org/ns#"
   xmlns:rdf="http://www.w3.org/1999/02/22-rdf-syntax-ns#"
   xmlns:svg="http://www.w3.org/2000/svg"
   xmlns="http://www.w3.org/2000/svg"
   xmlns:sodipodi="http://sodipodi.sourceforge.net/DTD/sodipodi-0.dtd"
   xmlns:inkscape="http://www.inkscape.org/namespaces/inkscape"
   version="1.1"
   id="Layer_1"
   x="0px"
   y="0px"
   viewBox="0 0 1813.9 2429.2"
   style="enable-background:new 0 0 1813.9 2429.2;"
   xml:space="preserve"
   sodipodi:docname="selfie2.svg"
   inkscape:version="0.92.4 (5da689c313, 2019-01-14)"><metadata
   id="metadata1143"><rdf:RDF><cc:Work
       rdf:about=""><dc:format>image/svg+xml</dc:format><dc:type
         rdf:resource="http://purl.org/dc/dcmitype/StillImage" /><dc:title></dc:title></cc:Work></rdf:RDF></metadata><defs
   id="defs1141"><filter
     style="color-interpolation-filters:sRGB;"
     inkscape:label="Drop Shadow"
     id="filter1597"><feFlood
       flood-opacity="1"
       flood-color="rgb(244,173,0)"
       result="flood"
       id="feFlood1587" /><feComposite
       in="flood"
       in2="SourceGraphic"
       operator="in"
       result="composite1"
       id="feComposite1589" /><feGaussianBlur
       in="composite1"
       stdDeviation="9.375"
       result="blur"
       id="feGaussianBlur1591" /><feOffset
       dx="0"
       dy="0"
       result="offset"
       id="feOffset1593" /><feComposite
       in="SourceGraphic"
       in2="offset"
       operator="over"
       result="composite2"
       id="feComposite1595" /></filter></defs><sodipodi:namedview
   pagecolor="#000000"
   bordercolor="#666666"
   borderopacity="1"
   objecttolerance="10"
   gridtolerance="10"
   guidetolerance="10"
   inkscape:pageopacity="0"
   inkscape:pageshadow="2"
   inkscape:window-width="1366"
   inkscape:window-height="745"
   id="namedview1139"
   showgrid="false"
   inkscape:zoom="0.2371151"
   inkscape:cx="715.20681"
   inkscape:cy="1221.1812"
   inkscape:window-x="-8"
   inkscape:window-y="-8"
   inkscape:window-maximized="1"
   inkscape:current-layer="Layer_1" />
<style
   type="text/css"
   id="style980">
	.st0{fill:none;stroke:#D4A440;stroke-width:3;stroke-miterlimit:10;}
</style>
<g
   id="g1100">
	<title
   id="title982">selfie</title>
	<path
   class="st0"
   d="M761.9,961.3c1.5,27.4,1.4,25.5,6.6,50"
   id="path984" />
	<path
   class="st0"
   d="M1270.7,1169.6c20.7-22.3,63.7-187.9,56.1-255.9c-1.7-15.6,1.3-37.9,0.3-53.5c-2.1-32.4-20.7-118.5-60.6-187.7   c-30-51.8-84.5-84.5-144.3-87.2c-44.7-2-89.7,3.3-127.4,27c-27.3,17.2-54.6,32.4-80.5,51.4c-52.3,38.4-84.6,131.6-106,191.8   c-22.9,64.6-47.3,57.7-40.3,126.3"
   id="path986" />
	<path
   class="st0"
   d="M1361.1,918.8c-5.4,16.8-23,42.3-36.8,53.4"
   id="path988" />
	<path
   class="st0"
   d="M1415.1,704.9c23.5-86.2,23-225-22-302.4c-11.8-20.4-26.2-39.9-45.5-53.4c-21.6-15.1-50.2-23.8-62.5-47   c31.1,3.2,67.2-35,66.7-65.9s-22.6-56.2-42.6-79.9c-35.3-42-109-66.2-120.9-65.6"
   id="path990" />
	<path
   class="st0"
   d="M1188.3,90.8c7.1-33.2-38.3-67.8-70.2-80.5s-67.8-9.4-101.7-3.9c-65.8,10.7-130.1,28.9-191.7,54.3   c-29.8,12.3-60,27.1-79.8,52.4c-23.3,30-28.3,71.3-19.2,108s61.8,38,87.2,66.3c-21.6,11.1-53.8,3.3-89.7,36.7   c-13.5,12.7-29.5,49.7-40.2,65.5c-13.5,20.1-1.5,42.7-8.3,63.8c-3.5,10.8-12.5,18.5-15,30.1c-2.3,10.6-0.9,21.6,0.6,31.9   c1.6,10.7,3,18,0.6,28.3c-2.7,11.4-10.3,20.6-13.2,32c-6.9,26.8,12.3,43.2,19.6,66.2c7.2,22.7,3.4,53.8,5.6,77.8   c5,54.5,13.4,108.6,25.1,162.1c8.1,37,25.7,69.4,62.7,79.6"
   id="path992" />
	<path
   class="st0"
   d="M1414.2,701.9c12.2,39.6,18.5,82.7,21.3,117.5c3.2,39.7,2.8,80.5,3.5,120.3c1.2,68.7-0.5,138-14.2,204.8   s-40.1,131.5-82.6,179.5c44.5-109.4,53.9-241.7,29.8-359.3c-2.1-20.3-5.3-34.5-10.5-46.1"
   id="path994" />
	<path
   class="st0"
   d="M1101.7,905.2c0.5-1.4,1.3-2.7,2.7-3.7c3.9-3,15-4,20.3-5.7c16.1-5.1,30.7-12.7,46.2-18.7   c7.9-3,15.1-7.1,23.1-10c7.7-2.8,13.9-6.8,21.6-9.3c14.9-4.9,28.1-8.2,43.9-4c9.3,2.5,11.6,5.5,19,10.6c6.6,4.5,16.7,8.9,20.2,15.6   c-22.4,0.8-50.2-10.7-72.1-1.5c-11.8,5-23.1,12-35.5,16.3c-10,3.5-20.2,6.7-30.3,10.2"
   id="path996" />
	<path
   class="st0"
   d="M943.9,904.4c-48.8-16-99.4-44.1-146.3-23"
   id="path998" />
	<path
   class="st0"
   d="M808.2,855.7c12.5-5.7,34.8-3.8,47.9-1.1c31.4,6.4,59,19.6,88.9,29.9c16.9,5.8,40.3,8.2,47.5,20"
   id="path1000" />
	<path
   class="st0"
   d="M767.9,1268.9c-26.4,5.5-53.7,26.7-71.3,46.1c-28.5,31.4-90.5,16.8-132.5,29.4c-34.3,10.2-98.1,5.6-121.7,21.4   "
   id="path1002" />
	<path
   class="st0"
   d="M767.9,1391.3c0.8,4.2,3.5,7.8,6.2,11.2c12.5,15.7,26.8,29.8,42.5,42.1c6.8,5.3,15,10.6,23.5,9   c6.2-1.2,11.3-5.8,14.6-11.2c2.1-3.4,3.7-7.4,3.5-11.4c-0.2-5.5-3.6-10.3-7.2-14.6c-12.1-14.6-27.2-26.4-44.2-34.6   C797,1377,763.8,1369.9,767.9,1391.3z"
   id="path1004" />
	<path
   class="st0"
   d="M797.6,1426.5c0,24.7,30.3,52.2,54,71.3c43.2,34.7,89.9,69.6,135,101.8c18.1,12.9,37.9,29.3,52.9,45.5   c10.2,10.9,19.6,22.8,25.8,36.3s10.5,46.8,6.7,61.1"
   id="path1006" />
	<path
   class="st0"
   d="M832.1,1397.8c26.5-0.4,53.9,20.4,73.1,38.4c31.4,29.3,69.8,50.2,105.7,74c84.8,56.2,157,129.8,243.6,183.3   c20.4,12.6,41.6,24.1,61,38.3c15.6,11.3,29.8,24.3,44,37.3l138,125.6c25.7,23.4,40.4,60.2,65,84.8c10.3,10.3,21.7,19.6,31.6,30.2   c35.3,37.6,51.6,88.8,59.8,139.4s9.5,102.2,19.9,152.3c6.8,32.6,21.8,90.5,32.3,122.1"
   id="path1008" />
	<path
   class="st0"
   d="M1374.2,2423.4c6-46.9,3.9-117.7-0.3-164.8c-1-11.2-2.4-22.6-7.4-32.7c-7.8-15.5-23.4-25.8-39.2-33.4   c-26.9-12.9-56.1-20.3-83.4-32.3c-43.5-19.2-80.8-49.8-122.9-71.9s-88.8-35.6-136.1-41.9c-22-2.9-44.4-4.4-65.6-11.2   c-38.9-12.5-80.4-48.1-93.9-86.2"
   id="path1010" />
	<path
   class="st0"
   d="M999.5,1970.8c-22.1-10.9-46-17.5-70.6-19.3c-31.3-2.3-62.9,3.1-94-0.7c-14.3-1.7-29-5.7-40-15   c-5-4.2-9-9.3-13-14.4c-10.6-13.5-25.2-38.1-35.8-51.6c-7.9-10-15.9-20.3-20.2-32.3c-7.2-20.5-2.1-51.7,2.9-72.9   c1.8-7.8,9.2-21.6,11.2-24c13.2-15.9,9,13.5,11.4,13c8.5-1.7,12.1-3.6,18.2,5.6c5,20-5.1,46.9,12.8,57.4s59.6,20.9,80.4,22.5   c12.6,1,25.2,0.9,37.8,1.6c31.8,1.8,63.1,8.9,94.5,14.3c5.5,0.9,12.3,1.3,15.3-3.3c1.8-2.6,1.6-6.1,0.6-9.1   c-3.1-9.6-12.9-15.2-21.8-20l-87.9-46.8c-58.4-31.1-117.5-62.5-181.8-78.5c-19.2-4.8-59.9-32.3-59.9-46.4"
   id="path1012" />
	<path
   class="st0"
   d="M1072.1,1742.5c-38-15.3-76-30.7-111.9-50.4c-10.4-5.8-20.7-11.9-31.8-16.3c-9.6-3.8-19.7-6.3-29.6-9.3   c-61.6-18.6-118.2-56.3-182.4-59.9c-5.6-0.3-11.6-0.4-17.1,1c-4.3,1.1-8.7,5.1-12.9,5.6c-8.8,0.9-20.9-4.4-30-5.3   c-5.1-0.5-10.4-0.7-15.3,1s-9.2,5.7-9.9,10.7c-0.8,5.6,2.8,10.9,6.8,15c14.2,14.8,33.8,23.2,53.1,30.5c5.6,2.1,11.8,4.2,17.6,2.6   c7-2,11.4-9.2,12-16.3c1.6-20.1-16-32.1-34.3-38.1"
   id="path1014" />
	<path
   class="st0"
   d="M444.1,1291.1c9-22.7,17.3-46.3,15.1-70.6c-1-10.8-7.1-24.4-17.9-22.6c-1.7,6.7-1.8,13.6-0.2,20.3   c-17.6-1.3-35.2-1.3-52.8,0.1c-7.2,0.6-28,13.1-34.7,15.6c-37.5,13.9-55.2,42.1-61.8,45.3c-6.1,3-13.5,4.1-19.8,7.1   c-9,4.2-18.7,9.4-24.2,17.9c-6.3,9.7-13,16.3-25.2,19.8c-5.8,1.7-12,1.5-18.1,1.8c-41.2,1.4-79.7,19.9-116.6,38   c-12.3,6-25.3,12.8-31.4,24.8c-10.8,21.3,5,45.4,11.1,68.4c10.6,39.7-8.5,83.9,6.9,122.1c4,10.1,10.3,19.1,14.7,29.1   c7.3,16.5,9,35,8,52.9c-1.1,18.3-4.9,36.2-11.4,53.3c-13,34.1,0.6,73.6,2.5,110c0.7,13.8,0.4,27.7,0.1,41.5   c-0.5,19.8,0.1,37.2-0.4,57"
   id="path1016" />
	<path
   class="st0"
   d="M277.6,1933.2c-3.3-25.6-5.7-49.9-9-75.5c-1.9-14.4-3.7-29-1.3-43.4c2.5-15.3,9.8-29.4,16.7-43.3   c8.9-17.7,17.7-35.8,20.8-55.2c2.4-15,1.5-30.6,6.6-44.8c3.4-9.6,9.4-18,15-26.6c10.2-15.4,25.1-49.9,33.3-66.4"
   id="path1018" />
	<path
   class="st0"
   d="M359.7,1578.1c26.5-41.6,49.6-86,60.5-133.9c3.3-14.3,5.4-28.8,7.6-43.3c5.4-36.6,10.9-73.2,16.3-109.7"
   id="path1020" />
	<path
   class="st0"
   d="M111.5,1439.8c5.8-2.3,12.2-2.3,18.4-2.1c17.8,0.6,35.5,2.3,53.1,5.2"
   id="path1022" />
	<path
   class="st0"
   d="M128,1396.8c18,0.6,36.1-1.5,53.5-6.2c4.8,8.8,14.3,14,24.3,13.2c2.2,13,4.5,26,9.8,38.1s19.5,25.1,31.6,30.8"
   id="path1024" />
	<path
   class="st0"
   d="M303.3,1518.6c-10.1,4.8-21-5.6-25.9-15.6c-5.8-11.9-8.9-25-9.2-38.2c-0.3-13.4,2.4-26.7,1.3-40   c-2.5-32.6-26.1-59.3-48.5-83.4c-9.7-10.5-23.6-18.4-38.6-12.7"
   id="path1026" />
	<path
   class="st0"
   d="M332.6,1500c-0.1-21.4-0.8-42.8-2.3-64.2c-1-14.8-2.4-29.7-5.7-44.2c-5.1-22.2-14.7-43.2-28.3-61.6   c-11.8-16-37.6-29.7-56.8-14.8"
   id="path1028" />
	<path
   class="st0"
   d="M332.9,1498.5c-1.2-4.5-2.6-9.1-5.6-12.6s-8.1-5.8-12.5-4.2c-5.2,1.9-7.4,8-8.4,13.3   c-3.3,18-1.2,36.5,5.9,53.3c1.7,4,4.7,8.6,9.1,8.4C344.5,1555.9,336,1510,332.9,1498.5z"
   id="path1030" />
	<path
   class="st0"
   d="M295.4,1279.2c11.9,2.3,24,4.7,34.7,10.3c27.8,14.4,40.6,46.4,49.3,76.2c5.8,19.7,10.8,39.5,15.2,59.6   c4,18.4,10.2,41.3,10.5,60.1c0.1,0.8,0,1.6-0.4,2.3c-0.6,1.1-2,1.5-3.2,1.7c-20.7,3.7-16.8-18.4-30.9-26.6   c-15.8-9.1-21-10.4-27.1-29.5c-2.1-6.5-9.9-20.2-15.8-23.9"
   id="path1032" />
	<path
   class="st0"
   d="M269.2,1445.2c-8.6,4.5-21.1,11.4-21.9,20.9s1.7,19,4.1,28.2c1,3.9,2.1,7.9,4.7,11s12.1,1.1,16.2-15.6"
   id="path1034" />
	<path
   class="st0"
   d="M277.6,1933.2c-8,11.2-17.5,21.3-28.2,30c-19.9,16.4-63.9,28.7-89.5,31.8"
   id="path1036" />
	<path
   class="st0"
   d="M277.6,1933.2c2.8-1.3,10.7,4.5,11.5,7.4c5.3,21.4,7.7,43.5,7.2,65.6c-0.1,3.6-0.6,7.7-3.6,9.7   c-2.7,1.8-12.4,0.3-10,2.6c-14.6,19.3-36.9,31.2-58.4,42.6c-16.6,8.7-44.4,19.8-88.5,19.8"
   id="path1038" />
	<path
   class="st0"
   d="M63.5,2081.4c-13.6,51.3-23.7,91.3-36.3,142.8c-6.8,27.9,10.4,58,21.7,84.4s29.8,50.8,55.7,63.8   c37.6,19,85.1,10.4,119.8-13.3s58.3-60.3,75.7-98.2c3-6.5,5.9-13.2,6.8-20.3c1-8.3-0.6-16.6-2.2-24.8   c-12.3-64.2-21.4-132-22.1-197.4"
   id="path1040" />
	<path
   class="st0"
   d="M159.9,1986.2c0.1-6.8-7.8-19.8-11.3-25.6c-8-13.1-12.1-19.8-24.6-29s-30.2-13.2-43.7-5.6   c-15.5,8.7-34,26.7-39.6,43.4c-6.3,18.9-7.8,35.3-5.6,52.8c1,7.8,2.1,15.7,4.4,23.3c5.8,19.5,19.8,36.9,38.8,44.7   s42.7,4.8,57.4-9.3c5.7-5.4,9.9-12.1,13.2-19.1C160.3,2038.2,159.4,2012.2,159.9,1986.2z"
   id="path1042" />
	<path
   class="st0"
   d="M374.4,1349.6c2.1-4.1,6.3-17.3,6.7-21.9c2.8-34.8,11.7-56.7,29.3-72.8c-15.1,14.5-49.5,32.6-57.1,53.9"
   id="path1044" />
	<path
   class="st0"
   d="M767.9,1593.4V981.9c0-42.5,28.2-76.9,62.9-76.9h377c34.7,0,62.9,34.4,62.9,76.9v721.3"
   id="path1046" />
	<path
   class="st0"
   d="M1270.7,1169.6c13.1-21.4,44.2,16.2,49.6,27.8c9.6,20.8,6.3,40.2-0.6,61.6c-7.1,22.2-20.8,32.4-5.5,53.1   c10.4,14,28.6,25.8,43.9,34.9c23.2,13.7,54.5,29.1,47.9,61.9"
   id="path1048" />
	<path
   class="st0"
   d="M1406.2,1408.9c32.7,4.6,76.2,29.3,104.8,45.4c32.5,18.3,65,37.4,99.8,51c39,15.2,99.7,9.8,128.1,42.8"
   id="path1050" />
	<path
   class="st0"
   d="M1738.8,1548c45.1,27.3,42.8,129,49.8,176.2c13.9,93.7,23.7,186.6,23.7,282.9c0,52-22.9,364.6-22.9,416.3"
   id="path1052" />
	<path
   class="st0"
   d="M418.5,1710.3c-59,3.8,1.5,207.2-3.6,240.3c-15.1,96.9-51.1,163.8-24.6,266c13.7,52.8,11.1,199.2,73.4,211.2"
   id="path1054" />
	<path
   class="st0"
   d="M294.4,1804.5c37.8,13.1,86.6,104.3,120.5,146.1"
   id="path1056" />
	<path
   class="st0"
   d="M318.3,1715c15.3,30.1,69.9,119.8,85.9,154.9"
   id="path1058" />
	<path
   class="st0"
   d="M299.2,1898.7c23.6,21.4,86.9,69.5,105,106"
   id="path1060" />
	<path
   class="st0"
   d="M1592.2,1813.9c41.4-43.1,76.9-92.1,106.2-145c22.5-40.6,30.5-82.8-24.9-47   c-72.8,47.1-103.8,190.5-119.4,267.3"
   id="path1062" />
	<path
   class="st0"
   d="M1582.7,1959.9c19.7-39.4,35.8-84.9,85.4-88.5c-25.5,39-68.5,76.7-85.4,121.5"
   id="path1064" />
	<path
   class="st0"
   d="M1749.7,1691.4c-12.7,29.6-30.4,59.1-39.2,90.5c-7.8,27.7-7,59.2-22.8,83.7"
   id="path1066" />
	<path
   class="st0"
   d="M1611.3,1992.9c38-32,76.8-69.1,119.3-98.9"
   id="path1068" />
	<path
   class="st0"
   d="M1764,2167.1c-32.9-25.2-70.1-52.4-115.5-46.5"
   id="path1070" />
	<path
   class="st0"
   d="M1783.1,1997.6c-30.8-36.5-128.4,29.3-143.1,65.9"
   id="path1072" />
	<path
   class="st0"
   d="M1406.2,1408.9c-15.7,30.4-84.2,110.2-135.5,111.6"
   id="path1074" />
	<path
   class="st0"
   d="M696.7,1315c-14.7,20,27.6,93.8,70.9,127.6"
   id="path1076" />
	<path
   class="st0"
   d="M1090.7,922.7h97.5c21.4,0,38.7,17.3,38.7,38.7l0,0c0,21.4-17.3,38.7-38.7,38.7h-97.5   c-21.4,0-38.7-17.3-38.7-38.7l0,0C1052,940,1069.4,922.7,1090.7,922.7z"
   id="path1078" />
	<path
   class="st0"
   d="M1176.6,938.4c12.9,0,23.3,10.3,23.3,23s-10.4,23-23.3,23s-23.3-10.3-23.3-23S1163.7,938.4,1176.6,938.4z"
   id="path1080" />
	<path
   class="st0"
   d="M1130.3,945.6c5.1,0,9.2,3.5,9.2,7.9s-4.1,7.9-9.2,7.9s-9.2-3.5-9.2-7.9S1125.2,945.6,1130.3,945.6z"
   id="path1082" />
	<path
   class="st0"
   d="M445.2,1228.3c5.3,17.4-5,20-34.8,26.7"
   id="path1084" />
	<path
   class="st0"
   d="M306.3,2224.6c12.9,24.8,66.2,61.7,83.2,94.2c18.5,35.4,23.3,68.4,27.3,108.9"
   id="path1086" />
	<path
   class="st0"
   d="M26,2231.6c-9.5-9.7-24.4,83.1-24.5,102.5c-0.1,32.6,2.1,60.3,18,89.3"
   id="path1088" />
	<path
   class="st0"
   d="M722.9,1793.9c18.8-8.4,29.5-28.1,28.5-40.2"
   id="path1090" />
	<path
   class="st0"
   d="M768,1712.4l1.6,46.9"
   id="path1092" />
	<path
   class="st0"
   d="M392.8,1416.8c-3.6-7.4-13.7-8.3-19.2-3.2c-5.3,5-6.5,11.6-6.4,18.5c0.1,13.2,5.7,24.6,10,36.6"
   id="path1094" />
	<path
   class="st0"
   d="M407.6,1217.4c-4.2,0.4-11,3.6-7.7,8.1c3.5,4.7,24.2,3.6,29,3.2c5.1-0.5,27.3,1.2,29.6-5.3   c1.5-4.4-11.1-5.9-17.5-5.2"
   id="path1096" />
	<path
   class="st0"
   d="M445.2,1288.5c0-10,0.9-19.6,1.9-29.4c0.4-4.4,0.4-8.9,0.1-13.4c-0.2-3.8,0-4.7-0.9-7.4"
   id="path1098" />
</g>
<g
   id="g1136"
   style="filter:url(#filter1597)">
	<g
   id="g1134">
		<title
   id="title1102">ArastarOutline</title>
		<path
   class="st0"
   d="M1000.6,1168H862.9l128.5,222.7"
   id="path1104" />
		<path
   class="st0"
   d="M1057.5,1382.5l123.8-214.5h-145.4"
   id="path1106" />
		<path
   class="st0"
   d="M1027.2,1157.9c0.5-1.5,1.1-3.1,1.7-4.6c2.4-6,6.4-12.6,12.9-12.6"
   id="path1108" />
		<path
   class="st0"
   d="M1019.1,1197.3c0.2-3.4,0.6-6.8,1-10.1"
   id="path1110" />
		<path
   class="st0"
   d="M969.3,1215.2c2.9-6,5.4-5.7,11.8-3.8c6,1.6,11.5,4.5,16.4,8.3c5.8,4.5,9.3,11.5,13.5,12.8    c4.9,1.5,5-6,7.1-10.9c2-4.9,1-6.4,0.9-11.6c0-1.1,0-2.1,0-3.2"
   id="path1112" />
		<path
   class="st0"
   d="M1016.3,1293.8c-2.2-0.7-4.2-1.8-6-3.4c-4.6-4-7.3-10.5-8.5-16.6c-1.6-8.5-1.2-17.4-4.1-25.6    c-2-5.8-5.5-10.8-9.1-15.8c-3-4.2-6.1-8.5-10.2-11.6c-4.2-3.1-3.5-2.5-9.2-5.7"
   id="path1114" />
		<path
   class="st0"
   d="M1010.3,1290.3v0.2c1.7,8.5,0.4,38.2-5.2,47.9"
   id="path1116" />
		<path
   class="st0"
   d="M1050.1,1269.1c-11.8,36.6-31.9,53.4-44.7,69.5c-3.1,3.7-5.7,7.7-7.9,12c-23.7,48.1,20.3,96.8,34.6,105.2"
   id="path1118" />
		<path
   class="st0"
   d="M1032.1,1455.1l-0.5-0.8c-9.5-15-24.1-42.2-22.5-59.5c1.9-21.7,7.9-26.8,19-45.5    c8.7-14.6,13.6-30.8,16.9-47.5c2.2-10.8,3.7-21.8,5.1-32.8"
   id="path1120" />
		<path
   class="st0"
   d="M1045,1301.8L1045,1301.8c1.1,10.9,1.6,21.8,1.5,32.7c-0.4,30.5-7,42.6-11.7,53.2    c-10.6,23.8-11.9,42.4-3.1,66.5c0.2,0.5,0.4,1,0.5,1.5"
   id="path1122" />
		<path
   class="st0"
   d="M1032.1,1455.1c-3.7-13.5,22.5-41.1,25-67.4c2.7-27.5-10.5-45.5-10.3-53.2"
   id="path1124" />
		<path
   class="st0"
   d="M1023.8,1270.4c0.2-17.6,3.1-26.3,15-39.3c-1.8-6.7-1.3-13.8,1.5-20.2c-4,0-7.9-1.3-11-3.9    c-4.5,1.7-6.5,1.8-10.4-0.1l-0.9-0.4c-6,3-14.2,0.3-17.3-5.7c7.5-1.4,10.6-3.4,18.4-3.5c4.6-0.1,10.7,0.5,20.3,2.3l1.7,0.3    c2.7,0.5,5.4,1.5,7.2,3.5c0.2,0.2,0.4,0.5,0.6,0.7c1.3,1.9,1.7,4.3,1.8,6.7c1.2,24,8.9,29.5-0.7,58.4"
   id="path1126" />
		<path
   class="st0"
   d="M1048.8,1204.3c-0.1-0.3-0.3-0.6-0.4-0.9c-2.7-5.8-5.6-13.1-9.8-18.1c-0.5-0.6-1.1-1.2-1.7-1.8    c-2.3-2-4.7-3.8-7.2-5.4l-9.9-6.5l-6.8-4.5c-5-3.3-9.1-7.7-13.7-11.4c-1.4,3.4-0.7,7.4,0.6,10.8c2.6,6.6,7.7,11.9,13.3,16.1    c2.2,1.6,4.5,3.1,6.9,4.5c3.7,2.2,7.6,4.1,11.5,6.1c3,1.5,6.2,3.3,7.8,6.3l0,0"
   id="path1128" />
		<path
   class="st0"
   d="M1041.8,1140.8c-3.2,10.7-5.3,21.6-6.4,32.7"
   id="path1130" />
		<path
   class="st0"
   d="M1038.6,1185.7c0-0.1,0-0.3,0-0.4c0.3-3.4-1.5-8.3-3.3-11.8c-0.3-0.7-0.7-1.3-1-1.9c-2.6-4.5-5-9-7.4-13.6    c-1.2-2.3-2.4-4.7-3.6-7.1c-1.9-4-3.8-8.1-3.8-12.5c0.1-0.7,0-1.4-0.2-2c-0.7-1.6-3-1.8-4.4-0.7s-2,2.8-2.3,4.5    c-2.1,10.7,2.6,21.5,7.2,31.4v0.1"
   id="path1132" />
	</g>
</g>
</svg>